<?xml version="1.0" encoding="UTF-8"?>
<!DOCTYPE svg PUBLIC "-//W3C//DTD SVG 1.1//EN" "http://www.w3.org/Graphics/SVG/1.1/DTD/svg11.dtd">
<!-- Creator: CorelDRAW 2021 (64-Bit) -->
<svg xmlns="http://www.w3.org/2000/svg" xml:space="preserve" width="600px" height="578px" version="1.1" style="shape-rendering:geometricPrecision; text-rendering:geometricPrecision; image-rendering:optimizeQuality; fill-rule:evenodd; clip-rule:evenodd"
viewBox="0 0 573.92 552.46"
 xmlns:xlink="http://www.w3.org/1999/xlink"
 xmlns:xodm="http://www.corel.com/coreldraw/odm/2003">
 <defs>
  <style type="text/css">
   <![CDATA[
    .str0 {stroke:#2B2A29;stroke-width:8.71;stroke-linecap:round;stroke-linejoin:round;stroke-miterlimit:22.9256}
    .fil3 {fill:none}
    .fil8 {fill:#FEFEFE}
    .fil12 {fill:#EBECEC}
    .fil11 {fill:#D9DADA}
    .fil10 {fill:#C5C6C6}
    .fil9 {fill:#B2B3B3}
    .fil4 {fill:#9D9E9E}
    .fil2 {fill:#898989}
    .fil1 {fill:#727271}
    .fil0 {fill:#2B2A29}
    .fil7 {fill:#E31E24}
    .fil13 {fill:#E31E24}
    .fil5 {fill:#FEFEFE;fill-rule:nonzero}
    .fil6 {fill:#2B2A29;fill-rule:nonzero}
   ]]>
  </style>
    <clipPath id="id0">
     <path d="M113.65 214.89l346.62 0c62.51,0 113.65,51.14 113.65,113.65l0 110.27c0,62.51 -51.14,113.65 -113.65,113.65l-346.62 0c-62.51,0 -113.65,-51.14 -113.65,-113.65l0 -110.27c0,-62.51 51.14,-113.65 113.65,-113.65z"/>
    </clipPath>
    <clipPath id="id1">
     <path d="M121.57 222.6l330.78 0c59.65,0 108.46,48.81 108.46,108.46l0 105.23c0,59.65 -48.81,108.46 -108.46,108.46l-330.78 0c-59.65,0 -108.46,-48.81 -108.46,-108.46l0 -105.23c0,-59.65 48.81,-108.46 108.46,-108.46z"/>
    </clipPath>
    <clipPath id="id2">
     <path d="M299.73 11.13c76.3,-11.17 147.22,41.62 158.4,117.92 11.18,76.31 -41.61,147.23 -117.92,158.41 -76.3,11.18 -147.22,-41.62 -158.4,-117.92 -11.18,-76.31 41.61,-147.23 117.92,-158.41z"/>
    </clipPath>
 </defs>
 <g id="Layer_x0020_1">
  <metadata id="CorelCorpID_0Corel-Layer"/>
  <g id="_1576332366880">
   <path class="fil0" d="M113.65 214.89l346.62 0c62.51,0 113.65,51.14 113.65,113.65l0 110.27c0,62.51 -51.14,113.65 -113.65,113.65l-346.62 0c-62.51,0 -113.65,-51.14 -113.65,-113.65l0 -110.27c0,-62.51 51.14,-113.65 113.65,-113.65z"/>
   <g style="clip-path:url(#id0)">
    <g>
     <g>
      <circle class="fil1" transform="matrix(1.44918 3.43275 -3.59711 1.38297 478.052 352.491)" r="18.49"/>
      <circle class="fil2" transform="matrix(1.44918 3.43275 -3.59711 1.38297 477.377 368.611)" r="13.17"/>
     </g>
     <g>
      <ellipse class="fil1" cx="113.04" cy="299.57" rx="20.09" ry="19.17"/>
      <ellipse class="fil2" cx="117.36" cy="301.43" rx="14.31" ry="13.66"/>
     </g>
     <g>
      <circle class="fil1" transform="matrix(1.65218 -0.837198 0.877281 1.57669 134.921 510.631)" r="18.49"/>
      <circle class="fil2" transform="matrix(1.65218 -0.837198 0.877281 1.57669 143.058 510.125)" r="13.17"/>
     </g>
     <g>
      <circle class="fil1" transform="matrix(0.620901 1.47076 -1.54118 0.592531 46.9516 382.871)" r="18.49"/>
      <circle class="fil2" transform="matrix(0.620901 1.47076 -1.54118 0.592531 46.6621 389.778)" r="13.17"/>
     </g>
     <g>
      <circle class="fil1" transform="matrix(-2.11754 1.38673 -1.45312 -2.02079 360.583 499.945)" r="18.49"/>
      <circle class="fil2" transform="matrix(-2.11754 1.38673 -1.45312 -2.02079 349.565 501.841)" r="13.17"/>
     </g>
     <g>
      <circle class="fil1" transform="matrix(1.80253 -0.913383 0.957114 1.72017 277.772 240.853)" r="18.49"/>
      <circle class="fil2" transform="matrix(1.80253 -0.913383 0.957114 1.72017 286.65 240.3)" r="13.17"/>
     </g>
     <g>
      <circle class="fil1" transform="matrix(-0.895736 0.5871 -0.61521 -0.854809 499.838 487.909)" r="18.49"/>
      <circle class="fil2" transform="matrix(-0.895736 0.5871 -0.61521 -0.854809 495.176 488.714)" r="13.17"/>
     </g>
    </g>
   </g>
   <path class="fil3" d="M113.65 214.89l346.62 0c62.51,0 113.65,51.14 113.65,113.65l0 110.27c0,62.51 -51.14,113.65 -113.65,113.65l-346.62 0c-62.51,0 -113.65,-51.14 -113.65,-113.65l0 -110.27c0,-62.51 51.14,-113.65 113.65,-113.65z"/>
   <path class="fil4" d="M121.57 222.6l330.78 0c59.65,0 108.46,48.81 108.46,108.46l0 105.23c0,59.65 -48.81,108.46 -108.46,108.46l-330.78 0c-59.65,0 -108.46,-48.81 -108.46,-108.46l0 -105.23c0,-59.65 48.81,-108.46 108.46,-108.46z"/>
   <g style="clip-path:url(#id1)">
    <g>
     <g>
      <circle class="fil1" transform="matrix(1.44918 3.43275 -3.59711 1.38297 478.052 352.491)" r="18.49"/>
      <circle class="fil2" transform="matrix(1.44918 3.43275 -3.59711 1.38297 477.377 368.611)" r="13.17"/>
     </g>
     <g>
      <ellipse class="fil1" cx="113.04" cy="299.57" rx="20.09" ry="19.17"/>
      <ellipse class="fil2" cx="117.36" cy="301.43" rx="14.31" ry="13.66"/>
     </g>
     <g>
      <circle class="fil1" transform="matrix(1.65218 -0.837198 0.877281 1.57669 134.921 510.631)" r="18.49"/>
      <circle class="fil2" transform="matrix(1.65218 -0.837198 0.877281 1.57669 143.058 510.125)" r="13.17"/>
     </g>
     <g>
      <circle class="fil1" transform="matrix(0.620901 1.47076 -1.54118 0.592531 46.9516 382.871)" r="18.49"/>
      <circle class="fil2" transform="matrix(0.620901 1.47076 -1.54118 0.592531 46.6621 389.778)" r="13.17"/>
     </g>
     <g>
      <circle class="fil1" transform="matrix(-2.11754 1.38673 -1.45312 -2.02079 360.583 499.945)" r="18.49"/>
      <circle class="fil2" transform="matrix(-2.11754 1.38673 -1.45312 -2.02079 349.565 501.841)" r="13.17"/>
     </g>
     <g>
      <circle class="fil1" transform="matrix(1.80253 -0.913383 0.957114 1.72017 277.772 240.853)" r="18.49"/>
      <circle class="fil2" transform="matrix(1.80253 -0.913383 0.957114 1.72017 286.65 240.3)" r="13.17"/>
     </g>
     <g>
      <circle class="fil1" transform="matrix(-0.895736 0.5871 -0.61521 -0.854809 499.838 487.909)" r="18.49"/>
      <circle class="fil2" transform="matrix(-0.895736 0.5871 -0.61521 -0.854809 495.176 488.714)" r="13.17"/>
     </g>
    </g>
   </g>
   <path class="fil3" d="M121.57 222.6l330.78 0c59.65,0 108.46,48.81 108.46,108.46l0 105.23c0,59.65 -48.81,108.46 -108.46,108.46l-330.78 0c-59.65,0 -108.46,-48.81 -108.46,-108.46l0 -105.23c0,-59.65 48.81,-108.46 108.46,-108.46z"/>
   <path class="fil5" d="M126.99 462.69l-17.33 0 -3.52 -35.76 -21.96 0 -3.5 35.76 -17.33 0 0 -0.5 22.69 -188.13 18.43 0 22.52 188.63zm-23.33 -59.92l-8.57 -85.03 -8.59 85.03 17.16 0z"/>
   <path id="_1" class="fil5" d="M178.87 391.92l-17.02 0 0 -27.86 -13.5 0.53 0 98.1 -17.17 0 0 -121.56 17.17 0 0 4.56c3.56,-1.07 7.08,-2.14 10.59,-3.21 4.24,-1.23 7.79,-1.85 10.65,-1.85 6.16,0.04 9.26,5.02 9.28,14.92l0 36.37z"/>
   <path id="_2" class="fil5" d="M222.78 462.69l-19.25 0c-6.16,-0.05 -9.25,-5.02 -9.27,-14.92l0 -83.22 -8.13 0 0 -23.42 8.13 0 0 -33.04 17.02 0 0 33.04 11.04 0 0 23.42 -11.04 0 0 74.71 11.5 0 0 23.43z"/>
   <path id="_3" class="fil5" d="M287.16 492.15c-0.03,9.9 -3.12,14.88 -9.28,14.92l-30.52 0c-6.16,-0.04 -9.26,-5.02 -9.28,-14.92l0 -19.6 16.56 0 0 14.55 15.49 0 0 -25.15 -17.64 0c-4.75,0 -8.56,-2.18 -11.4,-6.54 -2.83,-4.31 -4.24,-10.31 -4.24,-17.87l0 -74.39c0,-6.98 1.23,-12.45 3.71,-16.48 2.45,-4.02 5.83,-6.04 10.09,-6.04 2.15,0 8.64,1.65 19.48,4.93l0 -4.43 17.03 0 0 151.02zm-17.03 -52.4l0 -74.71c-5.75,-0.98 -9.3,-1.48 -10.71,-1.48 -3.7,0 -5.55,2.92 -5.55,8.8l0 58.23c0,6.12 1.9,9.16 5.71,9.16l10.55 0z"/>
   <path id="_4" class="fil5" d="M342.56 391.92l-17.02 0 0 -27.86 -13.5 0.53 0 98.1 -17.18 0 0 -121.56 17.18 0 0 4.56c3.56,-1.07 7.08,-2.14 10.58,-3.21 4.25,-1.23 7.8,-1.85 10.66,-1.85 6.16,0.04 9.26,5.02 9.28,14.92l0 36.37z"/>
   <path id="_5" class="fil5" d="M396.26 462.69l-16.41 0 0 -4.2c-4.12,0.95 -8.21,1.94 -12.32,2.88 -5.4,1.19 -9.46,1.81 -12.27,1.81 -5.37,-0.04 -8.06,-5.02 -8.08,-14.92l0 -43.89c0.02,-9.9 2.81,-14.87 8.38,-14.92l24.44 0 0 -27.86 -16.41 0 0 17.26 -15.49 0 0 -22.81c0.02,-9.9 2.81,-14.87 8.36,-14.91l30.52 0c6.16,0.04 9.25,5.01 9.28,14.91l0 106.65zm-16.26 -21.95l0 -32.55 -16.41 0 0 33.54 16.41 -0.99z"/>
   <path id="_6" class="fil5" d="M453.94 462.69l-17.03 0 0 -4.4c-14.26,3.41 -22.26,5.14 -24,5.14 -2.89,0 -5.16,-2.02 -6.8,-6.09 -1.66,-4.07 -2.48,-9.61 -2.48,-16.6l0 -85.19c0,-5.88 2.2,-9.94 6.6,-12.29 3.19,-1.76 8.05,-2.63 14.54,-2.63 1.46,0 3.56,0.09 6.29,0.25 2.76,0.16 4.7,0.25 5.85,0.25l0 -66.82 17.03 0 0 188.38zm-17.03 -23.88l0 -74.75 -10.55 0c-3.81,0 -5.7,3.04 -5.7,9.16l0 58.11c0,5.96 1.79,8.92 5.39,8.92 0.84,0 4.47,-0.5 10.86,-1.44z"/>
   <path id="_7" class="fil5" d="M510.57 447.77c-0.02,9.9 -3.12,14.87 -9.28,14.92l-30.36 0c-6.16,-0.05 -9.26,-5.02 -9.28,-14.92l0 -91.73c0.02,-9.9 3.12,-14.87 9.28,-14.91l30.36 0c6.16,0.04 9.26,5.01 9.28,14.91l0 44.8 -4.73 7.6 -27.78 0 0 34.03 16.1 0 0 -20.22 16.41 0 0 25.52zm-16.41 -57.29l0 -29.14 -16.1 0 0 29.14 16.1 0z"/>
   <g>
    <path id="_8" class="fil0" d="M126.99 464.14l-17.33 0c-0.79,0 -1.43,-0.64 -1.45,-1.43l-3.38 -34.33 -19.34 0 -3.37 34.44c-0.07,0.75 -0.71,1.31 -1.44,1.31l0 0.01 -17.33 0c-0.8,0 -1.45,-0.65 -1.45,-1.45l0 -0.5c0,-0.08 0,-0.16 0.02,-0.24l22.69 -188.06c0.08,-0.74 0.71,-1.28 1.43,-1.28l0 0 18.43 0c0.77,0 1.4,0.59 1.45,1.34l22.51 188.57c0.1,0.79 -0.47,1.51 -1.27,1.6 -0.05,0.01 -0.11,0.01 -0.17,0.01l0 0.01zm0 -1.45l-17.33 0 -3.52 -35.76 -21.96 0 -3.5 35.76 -17.33 0 0 -0.5 22.69 -188.13 18.43 0 22.52 188.63zm-23.33 -59.92l-8.57 -85.03 -8.59 85.03 17.16 0zm-1.6 -1.45l-6.97 -69.16 -6.99 69.16 13.96 0z"/>
   </g>
   <g>
    <path id="_9" class="fil0" d="M178.87 393.37l-17.02 0c-0.8,0 -1.45,-0.65 -1.45,-1.45l0 -26.36 -10.6 0.42 0 96.71c0,0.8 -0.65,1.45 -1.45,1.45l-17.17 0c-0.81,0 -1.46,-0.65 -1.46,-1.45l0 -121.56c0,-0.81 0.65,-1.46 1.46,-1.46l17.17 0c0.8,0 1.45,0.65 1.45,1.46l0 2.61c3.37,-1.02 6.27,-1.9 8.72,-2.64 0,0 0.01,0 0.01,-0.01l0 0c2.19,-0.63 4.19,-1.11 6.01,-1.42 1.86,-0.33 3.55,-0.49 5.05,-0.49 0.05,0 0.1,0 0.15,0.01 3.55,0.06 6.22,1.54 8.02,4.44 1.69,2.71 2.54,6.69 2.56,11.92l0 0 0 36.37c0,0.8 -0.65,1.45 -1.45,1.45zm0 -1.45l-17.02 0 0 -27.86 -13.5 0.53 0 98.1 -17.17 0 0 -121.56 17.17 0 0 4.56c3.56,-1.07 7.08,-2.14 10.59,-3.21 4.24,-1.23 7.79,-1.85 10.65,-1.85 6.16,0.04 9.26,5.02 9.28,14.92l0 36.37z"/>
   </g>
   <g>
    <path id="_10" class="fil0" d="M222.78 464.14l-19.25 0c-0.05,0 -0.1,-0.01 -0.15,-0.01 -3.54,-0.06 -6.21,-1.54 -8.02,-4.44 -1.68,-2.72 -2.54,-6.69 -2.55,-11.92l-0.01 0 0 -81.77 -6.67 0c-0.8,0 -1.45,-0.65 -1.45,-1.45l0 -23.42c0,-0.81 0.65,-1.46 1.45,-1.46l6.67 0 0 -31.58c0,-0.81 0.65,-1.46 1.46,-1.46l17.02 0c0.8,0 1.45,0.65 1.45,1.46l0 31.58 9.59 0c0.8,0 1.45,0.65 1.45,1.46l0 23.42c0,0.8 -0.65,1.45 -1.45,1.45l-9.59 0 0 71.81 10.05 0c0.8,0 1.45,0.65 1.45,1.45l0 23.43c0,0.8 -0.65,1.45 -1.45,1.45zm0 -1.45l-19.25 0c-6.16,-0.05 -9.25,-5.02 -9.27,-14.92l0 -83.22 -8.13 0 0 -23.42 8.13 0 0 -33.04 17.02 0 0 33.04 11.04 0 0 23.42 -11.04 0 0 74.71 11.5 0 0 23.43z"/>
   </g>
   <g>
    <path id="_11" class="fil0" d="M288.6 492.15c-0.01,5.23 -0.86,9.21 -2.55,11.92 -1.83,2.94 -4.55,4.42 -8.17,4.44 0,0 0,0 0,0l0 0.01 -30.52 0c-0.05,0 -0.1,0 -0.15,-0.01 -3.55,-0.06 -6.22,-1.54 -8.02,-4.44 -1.69,-2.71 -2.54,-6.69 -2.56,-11.92l0 0 0 -19.6c0,-0.8 0.65,-1.45 1.45,-1.45l16.56 0c0.8,0 1.45,0.65 1.45,1.45l0 13.09 12.59 0 0 -22.24 -16.19 0c-2.63,0 -5.01,-0.61 -7.14,-1.83 -2.09,-1.2 -3.92,-2.99 -5.47,-5.37 -0.01,-0.02 -0.02,-0.04 -0.03,-0.06 -1.5,-2.29 -2.61,-4.99 -3.35,-8.09 -0.73,-3.1 -1.1,-6.61 -1.1,-10.51l0 -74.39c0,-3.58 0.32,-6.8 0.96,-9.66 0.65,-2.9 1.64,-5.42 2.96,-7.57l0 0c1.35,-2.21 2.97,-3.89 4.86,-5.02 1.92,-1.14 4.08,-1.72 6.47,-1.72 2.15,0 8.16,1.48 18.03,4.44l0 -2.49c0,-0.81 0.65,-1.46 1.45,-1.46l17.03 0c0.8,0 1.45,0.65 1.45,1.46l0 151.02 -0.01 0zm-1.44 0c-0.03,9.9 -3.12,14.88 -9.28,14.92l-30.52 0c-6.16,-0.04 -9.26,-5.02 -9.28,-14.92l0 -19.6 16.56 0 0 14.55 15.49 0 0 -25.15 -17.64 0c-4.75,0 -8.56,-2.18 -11.4,-6.54 -2.83,-4.31 -4.24,-10.31 -4.24,-17.87l0 -74.39c0,-6.98 1.23,-12.45 3.71,-16.48 2.45,-4.02 5.83,-6.04 10.09,-6.04 2.15,0 8.64,1.65 19.48,4.93l0 -4.43 17.03 0 0 151.02zm-17.03 -52.4l0 -74.71c-5.75,-0.98 -9.3,-1.48 -10.71,-1.48 -3.7,0 -5.55,2.92 -5.55,8.8l0 58.23c0,6.12 1.9,9.16 5.71,9.16l10.55 0zm-1.45 -1.45l0 -72.03c-2.33,-0.4 -4.24,-0.7 -5.73,-0.9 -1.7,-0.24 -2.88,-0.36 -3.53,-0.36 -1.32,0 -2.3,0.51 -2.94,1.52 -0.77,1.22 -1.15,3.16 -1.15,5.83l0 58.23c0,2.79 0.4,4.83 1.2,6.11 0.66,1.07 1.68,1.6 3.05,1.6l9.1 0z"/>
   </g>
   <g>
    <path id="_12" class="fil0" d="M342.56 393.37l-17.02 0c-0.8,0 -1.45,-0.65 -1.45,-1.45l0 -26.36 -10.6 0.42 0 96.71c0,0.8 -0.65,1.45 -1.45,1.45l-17.18 0c-0.8,0 -1.45,-0.65 -1.45,-1.45l0 -121.56c0,-0.81 0.65,-1.46 1.45,-1.46l17.18 0c0.8,0 1.45,0.65 1.45,1.46l0 2.61c3.37,-1.02 6.27,-1.9 8.72,-2.64 0,0 0.01,0 0.01,-0.01l0 0c2.19,-0.63 4.19,-1.11 6.01,-1.42 1.86,-0.33 3.55,-0.49 5.05,-0.49 0.05,0 0.1,0 0.15,0.01 3.55,0.06 6.22,1.54 8.02,4.44 1.69,2.71 2.54,6.69 2.56,11.92l0 0 0 36.37c0,0.8 -0.65,1.45 -1.45,1.45zm0 -1.45l-17.02 0 0 -27.86 -13.5 0.53 0 98.1 -17.18 0 0 -121.56 17.18 0 0 4.56c3.56,-1.07 7.08,-2.14 10.58,-3.21 4.25,-1.23 7.8,-1.85 10.66,-1.85 6.16,0.04 9.26,5.02 9.28,14.92l0 36.37z"/>
   </g>
   <g>
    <path id="_13" class="fil0" d="M396.26 464.14l-16.41 0c-0.8,0 -1.45,-0.65 -1.45,-1.45l0 -2.37c-1.4,0.32 -2.89,0.67 -4.39,1.02 -1.94,0.46 -3.89,0.92 -6.16,1.44 -0.03,0.01 -0.06,0.02 -0.1,0.02 -2.72,0.6 -5.1,1.06 -7.12,1.36 -2.11,0.31 -3.9,0.47 -5.37,0.47 -0.06,0 -0.11,0 -0.16,-0.01 -3.18,-0.07 -5.57,-1.57 -7.16,-4.52 -1.46,-2.69 -2.19,-6.64 -2.21,-11.84l0 0 0 -43.89 0 0c0.02,-5.21 0.78,-9.16 2.3,-11.86 1.67,-2.98 4.18,-4.48 7.53,-4.5 0,0 0,0 0,0l0 -0.01 22.99 0 0 -24.96 -13.51 0 0 15.81c0,0.8 -0.65,1.45 -1.45,1.45l-15.49 0c-0.8,0 -1.45,-0.65 -1.45,-1.45l0 -22.81 0 0c0.02,-5.21 0.78,-9.16 2.29,-11.86 1.67,-2.97 4.17,-4.47 7.51,-4.5 0,0 0.01,0 0.01,0l0 -0.01 30.52 0c0.05,0 0.1,0.01 0.15,0.01 3.54,0.06 6.22,1.54 8.02,4.44 1.69,2.72 2.54,6.69 2.55,11.92l0.01 0 0 106.65c0,0.8 -0.65,1.45 -1.45,1.45zm0 -1.45l-16.41 0 0 -4.2c-4.12,0.95 -8.21,1.94 -12.32,2.88 -5.4,1.19 -9.46,1.81 -12.27,1.81 -5.37,-0.04 -8.06,-5.02 -8.08,-14.92l0 -43.89c0.02,-9.9 2.81,-14.87 8.38,-14.92l24.44 0 0 -27.86 -16.41 0 0 17.26 -15.49 0 0 -22.81c0.02,-9.9 2.81,-14.87 8.36,-14.91l30.52 0c6.16,0.04 9.25,5.01 9.28,14.91l0 106.65zm-16.26 -21.95l0 -32.55 -16.41 0 0 33.54 16.41 -0.99zm-1.45 -1.36l0 -29.74 -13.51 0 0 30.55 13.51 -0.81z"/>
   </g>
   <g>
    <path id="_14" class="fil0" d="M453.94 464.14l-17.03 0c-0.8,0 -1.45,-0.65 -1.45,-1.45l0 -2.57c-6.37,1.52 -11.35,2.66 -14.94,3.43 -4.11,0.88 -6.64,1.33 -7.61,1.33 -1.81,0 -3.42,-0.63 -4.84,-1.9 -1.3,-1.16 -2.4,-2.86 -3.3,-5.09l0 0c-0.87,-2.14 -1.52,-4.66 -1.95,-7.54 -0.43,-2.85 -0.64,-6.05 -0.64,-9.61l0 -85.19c0,-3.18 0.61,-5.89 1.83,-8.15 1.23,-2.3 3.07,-4.1 5.52,-5.4l0 -0.01c1.73,-0.95 3.89,-1.66 6.48,-2.13 2.53,-0.45 5.45,-0.68 8.76,-0.68 0.67,0 1.58,0.02 2.73,0.07 1.1,0.04 2.32,0.1 3.65,0.18 1.42,0.09 2.59,0.15 3.5,0.19 0.28,0.01 0.55,0.02 0.81,0.03l0 -65.34c0,-0.81 0.65,-1.46 1.45,-1.46l17.03 0c0.8,0 1.45,0.65 1.45,1.46l0 188.38c0,0.8 -0.65,1.45 -1.45,1.45zm0 -1.45l-17.03 0 0 -4.4c-14.26,3.41 -22.26,5.14 -24,5.14 -2.89,0 -5.16,-2.02 -6.8,-6.09 -1.66,-4.07 -2.48,-9.61 -2.48,-16.6l0 -85.19c0,-5.88 2.2,-9.94 6.6,-12.29 3.19,-1.76 8.05,-2.63 14.54,-2.63 1.46,0 3.56,0.09 6.29,0.25 2.76,0.16 4.7,0.25 5.85,0.25l0 -66.82 17.03 0 0 188.38zm-17.03 -23.88l0 -74.75 -10.55 0c-3.81,0 -5.7,3.04 -5.7,9.16l0 58.11c0,5.96 1.79,8.92 5.39,8.92 0.84,0 4.47,-0.5 10.86,-1.44zm-1.45 -1.25l0 -72.05 -9.1 0c-1.37,0 -2.39,0.53 -3.05,1.6 -0.8,1.29 -1.2,3.32 -1.2,6.11l0 58.11c0,2.71 0.38,4.69 1.13,5.95 0.62,1.01 1.55,1.52 2.81,1.52 0.38,0 1.44,-0.12 3.17,-0.35 1.43,-0.19 3.53,-0.49 6.24,-0.89z"/>
   </g>
   <g>
    <path id="_15" class="fil0" d="M512.02 447.77c-0.02,5.23 -0.87,9.2 -2.56,11.92 -1.82,2.94 -4.55,4.42 -8.16,4.44 0,0 -0.01,0 -0.01,0l0 0.01 -30.36 0c-0.05,0 -0.1,-0.01 -0.15,-0.01 -3.55,-0.06 -6.22,-1.54 -8.02,-4.44 -1.69,-2.72 -2.54,-6.69 -2.56,-11.92l0 0 0 -91.73 0 0c0.02,-5.23 0.87,-9.2 2.56,-11.92 1.82,-2.93 4.55,-4.41 8.16,-4.44 0,0 0,0 0.01,0l0 -0.01 30.36 0c0.05,0 0.1,0.01 0.15,0.01 3.55,0.06 6.22,1.54 8.02,4.44 1.69,2.72 2.54,6.69 2.56,11.92l0 0 0 44.8c0,0.31 -0.1,0.6 -0.26,0.83l-4.69 7.53c-0.27,0.45 -0.74,0.69 -1.23,0.69l0 0 -26.33 0 0 31.13 13.2 0 0 -18.77c0,-0.8 0.65,-1.45 1.45,-1.45l16.41 0c0.8,0 1.45,0.65 1.45,1.45l0 25.52 0 0zm-1.45 0c-0.02,9.9 -3.12,14.87 -9.28,14.92l-30.36 0c-6.16,-0.05 -9.26,-5.02 -9.28,-14.92l0 -91.73c0.02,-9.9 3.12,-14.87 9.28,-14.91l30.36 0c6.16,0.04 9.26,5.01 9.28,14.91l0 44.8 -4.73 7.6 -27.78 0 0 34.03 16.1 0 0 -20.22 16.41 0 0 25.52zm-16.41 -57.29l0 -29.14 -16.1 0 0 29.14 16.1 0zm-1.45 -1.45l0 -26.23 -13.2 0 0 26.23 13.2 0z"/>
   </g>
   <path class="fil6" d="M297.59 1.59c40.73,-5.96 80.03,5.15 110.64,27.94 30.63,22.8 52.56,57.27 58.53,98 5.97,40.73 -5.15,80.03 -27.93,110.64 -22.81,30.63 -57.28,52.56 -98.01,58.53 -40.72,5.96 -80.02,-5.15 -110.64,-27.94 -30.63,-22.8 -52.56,-57.27 -58.52,-98 -5.97,-40.73 5.14,-80.03 27.93,-110.64 22.8,-30.63 57.28,-52.56 98,-58.53zm99.36 43.16c-26.72,-19.89 -61.03,-29.59 -96.61,-24.38 -35.57,5.22 -65.66,24.34 -85.53,51.03 -19.89,26.72 -29.58,61.04 -24.37,96.61 5.21,35.58 24.33,65.66 51.03,85.53 26.71,19.89 61.03,29.59 96.61,24.38 35.57,-5.21 65.65,-24.34 85.53,-51.03 19.89,-26.72 29.58,-61.04 24.37,-96.61 -5.21,-35.58 -24.33,-65.66 -51.03,-85.53z"/>
   <path class="fil7" d="M299.73 11.13c76.3,-11.17 147.22,41.62 158.4,117.92 11.18,76.31 -41.61,147.23 -117.92,158.41 -76.3,11.18 -147.22,-41.62 -158.4,-117.92 -11.18,-76.31 41.61,-147.23 117.92,-158.41z"/>
   <g style="clip-path:url(#id2)">
    <g>
     <circle class="fil2" cx="132.79" cy="78.68" r="17.98"/>
    </g>
   </g>
   <path class="fil3 str0" d="M299.73 11.13c76.3,-11.17 147.22,41.62 158.4,117.92 11.18,76.31 -41.61,147.23 -117.92,158.41 -76.3,11.18 -147.22,-41.62 -158.4,-117.92 -11.18,-76.31 41.61,-147.23 117.92,-158.41z"/>
   <path class="fil8" d="M388.43 48.96c-0.09,-2.07 -0.46,-3.32 -0.86,-4.65 -0.37,-1.23 -1.77,-8.54 -4.83,-9.15 -0.52,-0.11 -1.43,0.12 -1.91,0.62 -0.58,0.6 0.14,1.36 0.92,3.4 1.36,3.58 1.92,6.03 1.33,10.79 -0.21,-2.2 -0.27,-3.88 -0.4,-5.18 -0.45,-4.47 -0.71,-4.5 -1.91,-6.2 -0.1,-0.14 0.87,2.61 0.74,5.6 -0.2,-1.54 -2.01,-7.89 -2.19,-7.67 -0.15,0.17 -0.16,0.19 -0.24,0.8 -0.88,-1.51 -1.19,-0.95 -0.05,2.89 0,-0.04 -1.53,-0.33 -1.87,-1.17 -0.82,-2 -0.91,-5.61 -0.93,-5.74 -0.23,-1.14 -0.86,-3.09 -1.63,-3.49 -0.35,-0.19 -0.31,3.93 0.38,7.57 -1.35,-2.72 -1.5,-0.76 -1.37,-6.26 0.1,-3.93 -2.18,-4.52 -2.6,-3.28 -0.23,0.66 -1.97,2.68 -2.6,5.58 -2.07,-0.54 -4.47,-0.24 -6.05,0.03 0.67,2.67 -0.04,0.12 -0.45,0.75 -0.18,0.2 -0.28,0.51 0.01,1.35 -0.31,-0.69 -0.65,-1.37 -1.13,-1.76 -0.78,-0.56 -1.18,-0.5 -1.44,-0.25 -0.45,0.43 -0.58,-0.27 -1.23,-0.17 -0.2,0.03 -0.45,0.48 -0.76,0.41 -0.61,-0.14 -0.63,-0.12 -0.89,-0.07 -0.39,0.08 -0.14,0.3 -0.46,0.5 -0.13,0.09 -0.18,0.42 -0.49,0.37 -0.51,-0.74 -0.67,-1.15 -0.93,-1.11 -0.61,0.08 -0.67,0.22 -1.35,0.34 -0.84,-1.08 -1.13,-3.11 -2.07,-4.27 -1.93,-2.37 -2.91,-2.7 -3.64,-2.3 -1.25,0 -0.32,-1.51 -1.39,-2.21 -1.86,-1.21 -1.49,-1.43 -1.5,-3.45 0,-1.23 -1.18,-0.83 -1.6,0.63 -0.26,0.88 -1.34,2.51 -1.36,5.95 -0.35,-0.53 -0.77,-0.42 -0.97,-0.61 -0.25,-0.24 0.02,-1.07 0.1,-3.24 0.02,-0.51 -0.04,-1.15 -0.21,-1.44 -0.67,0.4 -1.4,1.05 -1.49,3.26 -0.08,0.08 -0.2,0.06 -0.23,-0.01 -0.18,-0.41 0.23,-1.66 -0.06,-1.96 -0.15,-0.16 -1.07,0 -1.3,0.96 -0.21,0.93 -0.05,1.57 -0.13,2.06 -0.31,-0.03 -0.58,0.14 -0.85,0.39 -0.1,-0.44 0.29,-1.91 -0.18,-2.31 -0.1,-0.99 0.05,-1.55 -0.32,-1.62 -0.6,0.01 0.16,0.19 -1.81,-0.22 -5.92,-0.44 -11.12,2.17 -14.69,3.06 0.94,2.88 1.21,5.66 1.49,8.64 -0.01,0.81 -0.05,3.54 0.21,11.26 0.01,0.28 -0.71,-4.47 -1.38,-10.69 -3.94,1.76 -9.96,2.46 -9.33,6.51l-0.11 -0.21c-0.37,-0.81 -1.22,-2.24 -2.01,-3.57l-1.21 -2.15c0.5,-2.81 1.08,-4.58 1.13,-9.24 -1.03,0.82 -2.15,2.7 -2.91,4.18 0.48,-2.45 1.72,-4.69 2.69,-7.1 -1.77,0.81 -3.21,4.14 -4.21,7.27 -3.85,-5.93 -7.83,-9.27 -9.72,-10.77 -2.23,-1.82 -6.48,-6.05 -9.23,-6.08 -3.08,-0.04 -5.36,1.13 -7.66,4.2 -3.84,5.15 -6.53,11.76 -7.02,13.33l-0.55 1.74c-0.91,2.87 -2.05,6.48 -3.22,10.87 -1.04,3.9 -2.16,8.79 -3.14,13.7 -0.89,4.5 -1.66,9.02 -2.13,12.83 -0.48,3.9 -0.8,7.64 -0.89,11.38 -0.1,3.73 0.03,7.41 0.45,11.23 0.14,1.35 1.5,3.36 3.71,5.8 2.07,2.29 4.92,5.04 8.19,8.01 1.48,1.34 5.43,6.74 7.05,8.94l0.73 0.98c0.13,0.17 0.72,0.72 0.9,0.8 -2.11,1.62 -3.76,3.15 -4.25,3.39 -0.81,0.39 -7.13,5.28 -8.49,6.74 -2.8,3.02 -9.76,8.91 -11.69,8.92 -0.96,11.67 7.36,7.42 4.81,19.25 -0.38,1.79 -0.37,2.74 -1.61,6.6 -0.67,1.75 -5.84,12.44 -7.81,35.79 0.12,1.88 -3.73,8.31 -4.96,10.53 -6.69,12.1 -10.4,24.34 -16.12,32.2 -4.66,4.97 -7.26,9.21 -8.9,9.5 -5.3,1.92 -8.09,2.21 -8.04,7.08 0.04,3.47 0.61,8.52 4.17,11.96 0.54,0.26 1.72,1.62 2.25,1.63 0.66,1.72 1.03,4.02 1.19,5.79 -3.66,4.61 -4.29,12.63 -4.22,13.81 0.09,1.52 1.72,3.24 3.09,4.66 1.48,1.54 4.18,2.98 5.59,3.24 0.46,0.09 2.59,4.01 4.81,8.37 -0.41,0.06 -1.23,1.53 -1.12,2.44 4.34,18.67 29.82,19.21 42.91,18.51 5.76,-0.35 12.02,-1.51 16.39,-2.04 15.44,-2.2 14.74,-9.64 20.64,-18.69 3.01,-5.53 7.8,-10.46 12.39,-14.52 3,-2.66 8.06,-6.35 11.11,-7.5 7.23,-3.21 8.36,-5.23 9.7,-7.19 0.26,-0.39 2,-2.95 2.77,-4.09 2.95,-4.37 8.84,-6.18 10.42,-7.16 5.03,-3.11 9.51,-5.19 14.97,-5.42 2.68,-0.33 5.09,-0.8 7.41,-1.55 2.33,-0.75 4.54,-1.79 6.83,-3.25 4.15,-2.67 9.27,-7.07 14.44,-11.99 6.86,-6.53 12.2,-12.37 17.12,-17.96 2.7,-3.06 1.69,-10.11 1.45,-13.76 -0.19,-10.32 0.26,-21.33 1.41,-31.86 0.21,-0.68 0.27,-1.55 0.27,-2.42 0,-0.95 -0.06,-1.89 -0.08,-2.54 -0.09,-4.77 0.65,-10.62 0.37,-14.89 -0.19,-2.82 0.5,-6.18 -0.06,-9.73 2.08,-0.42 5.94,-0.77 8.97,0.26 -0.54,-0.24 -0.81,-0.42 -2.28,-1.23 0.07,0.02 0.15,-0.16 0.22,-0.15 1.51,0.25 2.63,0.63 3.73,1.09 -3.86,-3.2 -7.3,-3.64 -11.29,-3.6 -2.54,0.03 -4.18,0.53 -5.14,1.05 0,-0.17 0.02,-0.57 0.05,-0.76 0.34,0.01 0.82,-0.18 1.4,-0.67 0.77,-0.66 2.62,-0.86 4.7,-0.59 1.52,0.19 3.2,-0.55 4.11,-0.59 -3.59,-1.38 -4.99,-1.7 -6.05,-2.18 0.91,-0.97 2.35,0.27 3.98,-0.28 0.67,-0.22 0.9,0.77 3.04,0.77 1.67,0 5.07,-1.45 2.98,-1.63 -3.48,-0.31 -9.34,-3.19 -9.07,-4.58 3.76,2.18 5.82,3.47 7.53,3.87 1.13,0.28 2.92,-0.32 5.18,-1.73 -1.18,0.41 -1.79,0.8 -3.44,0.91 -3.5,0.24 -10.09,-4.72 -10.7,-8.37 -0.33,-1.97 -0.16,-3.92 0.07,-4.55 0.08,-0.05 6.17,-3.65 7.79,-6.43 -1.24,0.53 -5.37,3.55 -7.18,4.57 -0.11,0.06 -0.22,-0.18 -0.31,-0.14 0.06,-0.46 0.14,-0.89 0.15,-1.6 1.05,-0.63 7.47,-4.13 8.99,-7.81 -0.56,0.08 -3.47,2.84 -4.23,3.14 0.76,-1.59 4.74,-4.17 -0.08,-1.48 -0.21,0.11 -4.65,1.73 0.81,-1.91 0.51,-0.35 2.39,-1.7 3.86,-3.22 0.44,-0.46 1.28,-0.79 1.42,-1.16 -0.33,0.06 -1.14,0.56 -1.73,0.79 0.14,-0.22 1.16,-1.04 0.85,-0.93 -0.43,0.16 -1.3,0.7 -1.85,1.03 -0.3,0.08 -0.78,-0.03 -0.92,0.03 -1.52,0.61 -2.93,1.15 -3.32,1.14 3.76,-2.88 5.27,-5.19 8.25,-8.66 0.79,-0.91 -1.4,1.29 -2.63,2.29 -0.12,0.09 -0.16,-0.12 -0.26,-0.05 0.6,-1.09 2.81,-3.5 3.55,-4.57 2.62,-3.78 3.05,-3.53 6.41,-5.18 2.88,-1.42 -3.21,0.84 -3.41,0.46 0.04,-0.15 3.69,-2.74 4.61,-5.77 0.03,-0.09 -1.63,-5.35 -1.6,-5.45 -0.3,-1.3 -12.9,-19.3 -13.24,-19.52 -1.6,-1.05 -1.61,-2.42 -3.17,-3.43 -0.29,-0.19 -0.51,-0.22 -0.66,-0.24 -0.26,-0.59 -0.87,-1.17 -1.2,-1.52 -1.15,-1.22 -0.35,-1.12 -1.36,-1.37 -0.22,-0.04 -0.33,-0.02 -0.45,0.06 -0.78,-0.88 -2.36,-3.17 -3.3,-4.13l-0.03 -0.27c-0.23,-1.85 -1.66,-2.81 -3.29,-3.37 -0.22,-0.08 -1.1,-0.81 -1.18,-0.83 -0.23,-0.26 -0.51,-0.51 -0.78,-0.66l0 0c0.27,-0.63 0.34,-1.35 0,-1.37 -0.07,-0.17 -0.2,-0.35 -0.37,-0.58 -0.15,-0.2 -1.76,-1.5 -2.76,-1.97 0.45,-0.63 0.63,-1.15 0.33,-1.43 -0.77,-0.69 -2.71,2.15 -4.32,3.11 0.57,-0.98 1.81,-5.73 1.06,-5.66 -0.21,0.02 -0.73,0.74 -1.39,2.22 -0.71,1.58 -1.48,4.12 -2.49,4.48 0.88,-2.06 1.14,-3.89 1.45,-5.05 1.58,-5.81 -1.47,-3.07 -3.63,-5.79 -0.3,-0.38 -1.99,-1.18 -2.97,-0.83 -0.14,1.12 -0.25,1.35 -0.53,3.66 -0.1,0.89 -1.48,5.45 -2.19,8.24 0.45,-3.22 1.73,-14.15 -2.1,-14.01 0.79,1.33 1.12,2.92 0.78,6.24 -0.41,-2.5 -1.52,-5.67 -2.64,-5.55 1.09,0.33 1.48,6.28 1.17,10.21z"/>
   <path class="fil0" d="M290.32 109.47l0 0.01c-0.06,0.26 -0.16,0.48 -0.29,0.67 -0.43,0.46 -1.2,0.21 -2.41,0.08 -2.36,-0.25 -3.89,-1.9 -5.34,-3.54 -0.86,-0.98 -2.18,-2.46 -2.76,-5.5 -0.81,-4.33 2.55,-2.02 4.83,-1.38 -1.42,-0.75 -2.53,-1.81 -2.78,-2.82 -0.23,-0.9 0.6,-2.26 2.73,-2.84 -2.33,-0.99 -2.52,-2.31 -2.08,-2.61 0.42,-0.29 1.31,0.04 2.36,0.13 -0.98,-0.53 -2.12,-3.05 2.06,-1.83 -0.67,-0.64 -0.59,-0.48 -1.1,-1.04 -2.07,0.64 -6.1,-2.3 -7.46,-3.68 -0.74,-0.75 -2.97,-3.73 -2.97,-3.71l0 0.01 0 0.03c0.01,-1.03 -0.78,-1.99 0.07,-2.02 0.42,0.08 0.91,2.73 2.52,2.34 -0.84,-1.35 -3.24,-5.2 -2.78,-5.55 0.34,-0.27 3.49,4.87 4.39,5.85 0.25,0.02 2.17,1.33 3.02,1.41 -1.63,-1.83 -3.42,-7.68 -3.51,-7.98 -1.32,-4.56 -1,-11.02 -0.62,-13.85 1.5,-11.31 3.46,-17.59 4.69,-19.47 -0.35,-0.25 -1.98,-0.36 0.32,-2.21 -0.99,-0.74 -1.46,-0.77 -2.17,-1.69 -2.42,-2.43 -1.52,-3.87 0.41,-6.7 0.97,-1.44 1.87,-2.13 2.17,-2.19 -3.24,-2.22 -3.48,-5.81 -3.14,-5.84 0.17,-0.02 0.55,1.24 0.83,2.02 0.2,0.59 1.54,2.25 1.94,2.62 0.79,0.73 1.76,1.18 1.49,1.42 -0.24,0.2 -0.3,-0.12 -0.62,0.01 -0.3,0.13 -0.88,0.6 -1.41,1.48 -1.31,2.17 -4.25,4.57 -0.22,7.26 2.24,1.49 3.11,1.53 2.87,1.88 -0.34,0.51 -1.52,-0.68 -2.5,1.04 0.35,0.06 1.19,-0.29 1.66,-0.22 0.53,0.08 0.67,0.63 -0.74,1.37 -0.84,0.44 -1.78,4.24 -1.72,5.22 0.58,8.9 -0.64,12.91 1.26,22.24 2.62,12.87 9.98,16.12 9.52,19.21 -0.14,0.89 -4.45,0.07 -6.7,-1.83 1.02,2.13 3.75,2.52 3.76,3.06 -0.54,2.23 -3.11,2.08 -4.27,1.64 -0.51,0.7 -1.58,0.41 -2.48,0.58 0.84,1.04 3.86,0.94 3.89,1.26 0.06,0.64 -6.36,1.56 -3.94,3.91 2.27,2.2 5.28,1.64 3.63,3.23 -0.89,-0.57 -1.89,-0.22 -3.12,-0.62 -1.73,-0.56 -2.55,-1.42 -3.45,-1.17 -1.6,2.85 6.6,9.91 10.16,10.31zm-15.19 -26.74c0.21,3.55 1.7,5 4.06,7.22 -3.27,-2.66 -3.94,-4.92 -4.06,-7.22zm4.06 7.22c-0.31,0.66 -0.93,2.02 0.28,3.82 -1.06,-1.18 -0.83,-3.03 -0.28,-3.82zm0.28 3.82c-0.23,0.04 -0.56,0.1 -0.94,0.22l-0.07 -0.07c0.34,-0.09 0.68,-0.14 1.01,-0.15z"/>
   <path class="fil2" d="M285.54 88.8c0.51,0.56 0.43,0.4 1.1,1.04 -4.18,-1.22 -3.04,1.3 -2.06,1.83 -1.05,-0.09 -1.94,-0.42 -2.36,-0.13 -0.44,0.3 -0.25,1.62 2.08,2.61 -2.13,0.58 -2.96,1.94 -2.73,2.84 0.25,1.01 1.36,2.07 2.78,2.82 -2.28,-0.64 -5.64,-2.95 -4.83,1.38 0.58,3.04 1.9,4.52 2.76,5.5 1.45,1.64 2.98,3.29 5.34,3.54 1.56,0.17 2.4,0.53 2.7,-0.67 0.04,-0.16 -0.1,-0.18 -0.31,-0.31 0.8,-1.64 2.77,-5.05 4.45,-7.43 0.74,-1.96 1.71,-3.89 2.26,-4.97 -2.97,2.54 -3.06,5.16 -4.06,4.49 -1.44,-0.96 4.38,-8.66 6,-9.77 0.85,2.94 2.67,5.01 3.37,6.14 -2.25,1.81 -8.95,8.59 -8.96,10.47 2.35,-0.76 4.81,-4.01 7.02,-5.22 1.69,-0.93 3.37,-2.85 4.36,-2.8 1.31,1.54 2.98,3.6 6.95,2.54 -3.67,1.95 -9.08,5.12 -12.33,5.9 -0.61,0.15 -0.9,0.82 -1.2,1.27 2.83,0.47 6.83,-0.39 10.52,-2.05 3.58,-1.62 9.22,-5.35 9.94,-6.69 1.58,0.57 3.22,1.61 3.84,3.01 0.91,2.07 2.15,5.99 2.47,8.3 0.38,2.69 -0.37,8.56 -1.85,12.26 -2,5 -9.08,7.9 -17.88,9.21 -3.3,0.49 -9.85,0.49 -11.83,-1.17 -4.06,-3.41 -0.36,-11.34 1.17,-15.71 -0.95,-0.5 -2.95,-1.3 -3.2,-4.33 -0.56,0.49 -1.15,0.82 -1.74,1.02 -0.01,-0.02 -0.03,-0.04 -0.07,-0.04 -4.17,0.08 -8.06,-3.22 -10.26,-6.25 -3.16,-4.36 -3.33,-4.51 -3.86,-6.72 -1.36,-5.62 3.09,-6.72 4.35,-6.94 -1.21,-1.8 -0.59,-3.16 -0.28,-3.82 -2.63,-2.48 -4.18,-3.99 -4.08,-8.53l0 -0.01c0,-0.02 2.23,2.96 2.97,3.71 1.36,1.38 5.39,4.32 7.46,3.68z"/>
   <path class="fil9" d="M280.42 23.12c0.46,-0.2 1.11,2.71 4.63,5.59 0.1,0.07 0.42,0.44 0.81,0.9 -0.3,-0.05 -0.39,-0.02 -0.53,0.03 0.33,0.29 0.58,0.69 -0.27,1.11 -1.19,2.89 -2.05,3.63 0.01,6.74 0.77,1.16 1.86,2.14 2.84,2.47 0.71,0.24 1.4,0.24 1.41,0.48 0.01,0.12 -0.58,0.19 -1.41,0.29 -4.25,4.8 -2.6,18.33 -2.42,23.91 0.17,5.01 1,9.25 5.42,16.1 -0.8,-4.15 -0.5,-6.32 0.19,-8.12 0.29,2.31 1.51,8.82 2.52,11.56 0.9,2.43 2.71,6.12 2.22,6.25 -0.45,0.12 -1.74,-0.4 -2.98,-1.55 0.08,-3.04 -6.98,-6.43 -9.54,-18.99 -1.9,-9.33 -0.68,-13.34 -1.26,-22.24 -0.06,-0.98 0.88,-4.78 1.72,-5.22 1.41,-0.74 1.27,-1.29 0.74,-1.37 -0.47,-0.07 -1.31,0.28 -1.66,0.22 0.98,-1.72 2.16,-0.53 2.5,-1.04 0.24,-0.35 -0.63,-0.39 -2.87,-1.88 -4.03,-2.69 -1.09,-5.09 0.22,-7.26 0.53,-0.88 1.11,-1.35 1.41,-1.48 0.32,-0.13 0.38,0.19 0.62,-0.01 0.27,-0.24 -0.7,-0.69 -1.49,-1.42 -0.4,-0.37 -1.74,-2.03 -1.94,-2.62 -0.26,-0.73 -0.61,-1.89 -0.8,-2.01 -0.07,-0.26 -0.11,-0.43 -0.09,-0.44z"/>
   <path class="fil2" d="M286.62 29.48c-2.65,3.31 -1.45,5.45 -0.9,6.68 0.49,1.1 3.56,3.25 4.75,1.79 -2.53,-0.31 -3.59,-1.51 -4.19,-2.62 -1.53,-2.81 0.3,-4.96 0.27,-5.68 0,-0.03 0.08,-0.19 0.07,-0.17z"/>
   <path class="fil0" d="M296.69 77.27c-0.6,0.06 -0.07,3.62 0.35,5.52 0.47,2.16 1.69,3.93 1.71,5.96 -1.3,-2.05 -1.28,-2.69 -1.47,-3.34 -0.29,2.02 0.85,3.43 1.71,7.14 0.92,2.43 2.42,4.16 3.04,5.16 -1.46,1.17 -4.8,4.44 -6.97,7.11 -1.16,1.44 -1.99,2.7 -1.99,3.36 2.35,-0.76 4.81,-4.01 7.02,-5.22 1.69,-0.93 3.37,-2.85 4.36,-2.8 1.31,1.54 2.98,3.6 6.95,2.54 -3.67,1.95 -9.08,5.12 -12.33,5.9 -0.61,0.15 -0.9,0.82 -1.2,1.27 2.83,0.47 6.83,-0.39 10.52,-2.05 3.58,-1.62 9.22,-5.35 9.94,-6.69l0.06 0.02c0.14,-0.27 0.35,-0.54 0.63,-0.78 0.48,0.05 6.18,-1.36 7.89,-2.33 1.94,-1.09 3.35,-2.06 5.85,-4.63 2.16,0.08 3.11,-0.31 3.79,-0.61 0.39,0.46 3.71,3.13 4.96,1.25 0.43,-0.65 0.75,-1.1 1.41,-2.05 -0.71,1.02 0.03,1.7 0.53,1.49 -1.45,1.18 -0.22,1.74 1.9,-0.64 0.97,-1.1 2.76,-2.79 3.92,-4.09 3.53,-3.98 8.03,-17.74 8.87,-23.31 -1.2,8.89 -4.02,17.18 -5.98,20.33 -1.08,1.73 -3.28,5.88 -7.15,9.65 0.55,-0.02 1.12,-0.78 1.86,-0.59 1.74,0.42 6.09,0.77 9.98,-0.15 0.2,0.27 0.53,0.58 0.86,0.35 0.1,-0.08 0.76,-0.54 1.31,-1.16 0.48,1.33 1.17,1.36 2.61,0.14 0.48,-0.41 1.03,-0.46 1.96,-0.45 0.18,1.68 3.23,1.68 5.02,1.1 1.62,-0.53 3.25,-1.42 4.13,-2.19 1.22,-1.16 2.54,-2.28 3.38,-3.71 0.13,0.54 -2.19,4.2 -3.76,4.88 -0.7,0.3 -1.65,0.84 -2.35,1.31 -0.83,0.55 -3,0.81 -2.99,1.12 0.02,0.24 0.74,0.56 1.75,0.7 0.32,0.33 1.33,0.68 2.59,0.62 0.41,0.91 3.59,1.01 5.12,0.54 -0.99,1.92 -0.51,2.92 -1.01,4.61 -0.95,3.23 -3.03,8.8 -4.28,10.34 1.85,-1.1 3.73,-5.88 6.37,-12.63 0.24,-0.62 0.88,-4.17 1.94,-6.24 0.48,-0.93 0.38,-5.53 0.25,-7.78 -0.16,-2.88 -0.37,-7.47 -0.39,-10.98 -0.01,-1.39 0.24,-2.73 0.26,-4.09 3.45,-2.53 2.95,-3.62 4.7,-5.02 0.59,-0.47 1.34,-1.69 2.03,-2.17 4.53,-3.18 9.74,-6.09 14.3,-9.87 0.67,-0.56 6.94,-5.33 5.74,-6.42 -0.78,-0.69 -2.87,2.15 -4.48,3.11 0.57,-0.98 1.81,-5.73 1.06,-5.66 -0.21,0.02 -0.73,0.74 -1.39,2.22 -0.72,1.59 -1.48,4.12 -2.49,4.48 0.88,-2.06 1.14,-3.89 1.45,-5.05 1.58,-5.81 -1.46,-3.07 -3.63,-5.79 -0.3,-0.38 -1.99,-1.18 -2.97,-0.83 -0.14,1.12 -0.25,1.35 -0.53,3.66 -0.1,0.89 -1.48,5.45 -2.19,8.24 0.45,-3.22 1.73,-14.15 -2.1,-14.01 0.79,1.33 1.12,2.92 0.78,6.24 -0.41,-2.5 -1.52,-5.67 -2.64,-5.55 1.4,0.43 1.65,10.13 0.74,12.92 -1.33,4.07 -3.38,11.28 -4.27,12.17 0.16,-0.58 2.23,-6.59 3.43,-11.1 0.84,-3.14 0.66,-5.46 0.41,-8.43 -0.11,-1.28 -1.77,-8.54 -4.83,-9.15 -0.52,-0.11 -1.43,0.12 -1.91,0.62 -0.58,0.6 0.14,1.36 0.92,3.4 1.36,3.58 1.92,6.03 1.33,10.79 -0.21,-2.2 -0.27,-3.88 -0.4,-5.18 -0.45,-4.47 -0.71,-4.5 -1.91,-6.2 -0.1,-0.14 0.87,2.61 0.74,5.6 -0.2,-1.54 -2.01,-7.89 -2.19,-7.67 -0.15,0.17 -0.16,0.19 -0.24,0.8 -0.88,-1.51 -1.19,-0.95 -0.05,2.89 1.39,4.69 1.51,14.66 0.22,18.96 -0.56,1.4 -1.34,5.3 -2.46,8.75 -0.14,1.06 0.29,2.06 0.27,3.08 -0.83,3.04 -1.7,5.79 -3.46,9.35 0.89,-2.97 1.18,-4.12 1.62,-5.97 0.22,-1.7 0.65,-4.26 1.16,-7.15 1.96,-3.61 2.12,-11.72 2.14,-14.69 0.03,-4.84 -0.22,-8.55 -1.06,-12.15 -0.34,-1.46 -0.83,-3.72 -1.15,-6.58 -0.1,-0.91 -0.8,-3.53 -1.71,-4 -0.35,-0.19 -0.31,3.93 0.38,7.57 -1.35,-2.72 -1.5,-0.76 -1.37,-6.26 0.1,-3.93 -2.18,-4.52 -2.6,-3.28 -0.23,0.66 -1.97,2.68 -2.6,5.58 -2.07,-0.54 -4.75,-0.86 -6.33,-0.6 1.28,2.93 2.06,3.62 2.08,7.24 -0.75,-3.66 -1.42,-4.88 -2.55,-6.22 -0.17,0.2 0.02,0.87 0.31,1.71 -0.31,-0.69 -0.65,-1.37 -1.13,-1.76 -0.78,-0.56 -1.18,-0.5 -1.44,-0.25 -0.45,0.43 -0.58,-0.27 -1.23,-0.17 -0.2,0.03 -0.44,0.48 -0.76,0.41 -0.61,-0.14 -0.56,-0.64 -0.81,-0.56 -0.61,0.21 1.34,3.4 2.15,5.76 1.02,2.97 2.05,7.13 2.6,11.35 0.34,2.57 -0.97,12.5 -0.91,11.69 0.55,-7.48 0.53,-15.94 -2.17,-22.98 -0.43,-1.11 -0.71,-2.67 -1.44,-3.75 -1.32,-1.94 -1.77,-2.36 -1.26,-0.71 -0.51,-0.74 -0.67,-1.15 -0.93,-1.11 -1.07,0.15 5.26,8.2 2.85,27.04 -0.14,1.07 0.1,1.93 -1.75,8.58 1.99,-9.14 1.43,-23.12 -0.69,-29.95 -0.49,-1.57 -2.28,-7.7 -3.83,-9.6 -1.93,-2.37 -2.91,-2.7 -3.64,-2.3 -1.25,0 -0.32,-1.51 -1.39,-2.21 -1.86,-1.21 -1.49,-1.43 -1.5,-3.45 -0.01,-1.23 -1.18,-0.83 -1.6,0.63 -0.26,0.89 -1.34,2.51 -1.36,5.95 -0.35,-0.53 -0.77,-0.42 -0.97,-0.61 -0.25,-0.24 0.02,-1.07 0.1,-3.24 0.02,-0.51 -0.04,-1.15 -0.21,-1.44 -0.67,0.4 -1.4,1.05 -1.49,3.26 -0.08,0.08 -0.2,0.06 -0.23,-0.01 -0.18,-0.41 0.23,-1.66 -0.06,-1.96 -0.15,-0.16 -1.07,0 -1.3,0.96 -0.21,0.93 -0.05,1.57 -0.13,2.06 -0.31,-0.03 -0.58,0.14 -0.85,0.39 -0.1,-0.44 0.29,-1.91 -0.18,-2.31 -0.1,-0.99 0.05,-1.7 -0.32,-1.77 -0.96,0.01 -1.83,10.55 -1.87,13.54 -0.27,21.09 -0.56,31.52 3.56,51.66 -5.16,-15.43 -6.13,-41.04 -5.62,-48.01 0.56,-7.77 2.11,-17.33 2.15,-17.44 -5.92,-0.43 -11.15,2.35 -14.72,3.24 0.94,2.88 1.21,5.66 1.49,8.64 0.23,-1.19 -0.31,-2.92 0.64,-3.72 0.43,-0.36 0.62,-0.69 0.63,-0.36 -0.63,4.92 -0.11,20.66 -0.96,23.97 -0.3,-7.97 0.41,-14.91 -1.48,-20.46 -4.06,1.8 -10.32,3.72 -9.25,8.02 0,-0.65 -2.41,-4.4 -3.42,-6.25 0.5,-2.84 1.09,-4.61 1.14,-9.29 -1.03,0.82 -1.72,1.78 -2.48,3.25 0.49,-2.44 1.72,-3.59 2.26,-6.17 -4.12,1.89 -5.86,13.82 -6.71,18.41 -0.22,-2.5 0.7,-8.75 0.83,-10.84 -0.78,1.35 -1.12,2.96 -1.52,5.5 -0.28,1.82 -0.31,3.46 -0.65,6.32 -0.26,2.23 -0.15,10.22 0.61,12.98 0.37,1.36 1.33,4.79 2.34,7.32 0.09,0.22 0.18,0.92 0.27,1.11 -3.89,-7.05 -5.15,-15.55 -4.95,-17.18 -1.66,1.11 0.15,7.76 0.66,10.24 0.41,1.99 2.19,5.4 1.96,5.62 -0.08,0.08 -1.36,-2.19 -1.71,-3.35 -0.54,-1.75 -1.03,-3.44 -1.41,-4.37 0.05,1.63 0.16,2.31 0.54,3.93 0.4,1.72 2.84,7.21 4.39,8.66 -1.33,5.1 1.49,11.18 7.1,19.12 -6.66,-3.75 -8.43,-19.33 -8.58,-17.28 0.17,6.7 4.01,13.92 6.23,17.95 -1.18,-0.84 -2.95,-4.12 -3.95,-6.21 -1.07,-2.23 -1.53,-4.42 -1.87,-5.08 -0.09,0.37 -0.06,0.84 -0.08,1.22 0.87,4.38 4.35,9.41 6.94,13.41l0.6 0.95c0.09,0.25 -0.22,0.43 -0.37,0.32 -0.29,-0.24 -0.56,-0.47 -0.82,-0.7 -4.21,-3.72 -5.21,-7.16 -5.85,-9.04 -0.63,2.33 0.44,7.11 1.3,9.07 -1,-1.13 -3.06,-5.31 -3.65,-6.6 -1.22,-2.65 -2.48,-8.39 -3.07,-8.32z"/>
   <path class="fil2" d="M340.95 61.34c1.07,-6.55 1.11,-12.11 1.38,-16.55 0.44,-7.28 0.63,-11.56 0.66,-12.29 -0.66,3.19 -0.72,6.91 -1.23,12.4 -0.39,4.08 -0.96,9.28 -0.81,16.44z"/>
   <path class="fil4" d="M344.39 35.16c-0.35,9.4 -2.77,44.69 -3.26,51.09 1.99,-6.87 3.34,-19.33 3.59,-28.15 0.29,-10.14 -0.06,-21.76 -0.33,-22.94z"/>
   <path class="fil2" d="M369.67 62.25c0.61,4.49 -0.8,10.67 -2.64,16.35 -2.01,6.2 -4.56,11.82 -6.39,14.02 3.24,-5.64 7.64,-19.84 9.03,-30.37z"/>
   <path class="fil4" d="M351 57.81c-0.14,8.15 -2.83,17.99 -4.62,27.23 1.54,-3.22 2.69,-10.01 4.28,-15.28 1.72,-5.67 0.64,-10.64 0.34,-11.95z"/>
   <path class="fil10" d="M307.39 41.92c-0.25,3.65 2.51,24.64 6.12,28.43 -0.97,-2.42 -3.21,-9.31 -4.23,-15.65 -1.4,-8.71 -0.16,-12.01 -1.89,-12.78z"/>
   <path class="fil6" d="M281.75 116.83c0.14,0.18 0.23,0.39 0.26,0.6 1.43,-1.05 2.7,-1.88 3.26,-1.97 0.29,0.6 -1.95,1.81 -3.39,3.43 -3.04,3.4 -8.21,6.98 -10.97,9.31 -2.24,1.9 -3.63,3.39 -4.69,4.63 -1.09,1.28 -1.66,2.19 -6.28,2.73 -4.03,0.47 -2.47,-1.93 0.19,-2.48 3.29,-0.68 5.1,-1.71 7.38,-4.17 1.35,-1.47 7.27,-6.24 8.08,-6.63 0.49,-0.24 2.53,-1.89 4.64,-3.51 -0.17,-0.08 -0.33,-0.2 -0.46,-0.37l-0.73 -0.98c-1.62,-2.2 -5.57,-7.6 -7.05,-8.94 -3.27,-2.97 -6.12,-5.72 -8.19,-8.01 -2.21,-2.44 -3.57,-4.45 -3.71,-5.8 -0.42,-3.82 -0.55,-7.5 -0.45,-11.23 0.09,-3.74 0.41,-7.48 0.89,-11.38 0.47,-3.81 1.24,-8.33 2.13,-12.83 0.98,-4.91 2.1,-9.8 3.14,-13.7 1.17,-4.39 2.31,-8 3.22,-10.87l0.55 -1.74c0.49,-1.56 3.18,-9.05 7.02,-14.2 2.3,-3.07 5.05,-5.37 8.13,-5.34 2.23,0.03 2.81,0.57 5.89,3.42 0.86,0.79 1.93,1.78 3.09,2.82l0.81 0.66c1.98,1.57 6.04,4.79 10.07,11.31 0.47,0.81 1.01,1.72 1.43,2.54 1.99,3.56 5.52,9.88 6.47,11.48 2.28,3.87 4.21,11.61 5.05,19.64 0.75,7.23 0.62,14.76 -0.91,19.97 -0.2,0.67 -0.9,1.05 -1.57,0.86 -0.67,-0.2 -1.06,-0.9 -0.86,-1.57 1.44,-4.88 1.55,-12.06 0.83,-19 -0.8,-7.7 -2.61,-15.04 -4.72,-18.61 -0.88,-1.49 -4.47,-7.91 -6.49,-11.53l-1.4 -2.49c-3.8,-6.13 -7.6,-9.14 -9.47,-10.62l-0.92 -0.75c-1.4,-1.26 -2.35,-2.15 -3.12,-2.86 -2.48,-2.3 -2.95,-2.73 -4.2,-2.74 -2.11,-0.02 -4.22,1.83 -6.08,4.33 -3.63,4.85 -6.17,11.95 -6.64,13.44l-0.55 1.74c-0.91,2.88 -2.06,6.51 -3.19,10.75 -1.02,3.85 -2.13,8.68 -3.1,13.54 -0.88,4.43 -1.64,8.89 -2.1,12.66 -0.47,3.88 -0.79,7.54 -0.88,11.13 -0.09,3.6 0.04,7.18 0.44,10.9 0.08,0.79 1.21,2.33 3.07,4.38 1.98,2.19 4.77,4.88 8.02,7.83 1.67,1.51 5.73,7.05 7.39,9.32l0.67 0.9z"/>
   <path class="fil8" d="M317.06 42.25c-1.62,1.02 -1.68,0.93 -1.61,1.53 0.29,2.25 1.36,7.48 1.92,9.17 -0.08,-1.51 -0.17,-9.76 -0.31,-10.7z"/>
   <path class="fil1" d="M357 117.17c13.81,-0.52 18.29,-5.8 20.18,-15.93 -2.44,6.23 -4.23,10.6 -5.99,11.65 1.25,-1.54 3.33,-7.11 4.28,-10.34 0.5,-1.69 0.02,-2.69 1.01,-4.61 -1.53,0.47 -4.71,0.37 -5.12,-0.54 -1.26,0.06 -2.27,-0.29 -2.59,-0.62 -1.01,-0.14 -1.73,-0.46 -1.75,-0.7 -0.01,-0.31 2.16,-0.57 2.99,-1.12 0.7,-0.47 1.65,-1.01 2.35,-1.31 1.57,-0.68 3.89,-4.34 3.76,-4.88 -0.84,1.43 -2.16,2.55 -3.38,3.71 -0.88,0.77 -2.51,1.66 -4.13,2.19 -1.79,0.58 -4.84,0.58 -5.02,-1.1 -0.93,-0.01 -1.48,0.04 -1.96,0.45 -1.44,1.22 -2.13,1.19 -2.61,-0.14 -0.55,0.62 -1.21,1.08 -1.31,1.16 -0.33,0.23 -0.66,-0.08 -0.86,-0.35 -3.89,0.92 -8.24,0.57 -9.98,0.15 -0.74,-0.19 -1.31,0.57 -1.86,0.59 3.87,-3.77 6.07,-7.92 7.15,-9.65 1.96,-3.15 4.78,-11.44 5.98,-20.33 -0.84,5.57 -5.34,19.33 -8.87,23.31 -1.16,1.3 -2.95,2.99 -3.92,4.09 -2.12,2.38 -3.35,1.82 -1.9,0.64 -0.5,0.21 -1.24,-0.47 -0.53,-1.49 -0.66,0.95 -0.98,1.4 -1.41,2.05 -0.45,0.68 -1.17,0.76 -1.93,0.57 -2.47,8.01 -4.16,23.37 17.42,22.55z"/>
   <path class="fil2" d="M379.57 82.53c-0.11,-2.39 -0.2,-5.05 -0.21,-7.27 0,-1.39 0.24,-2.73 0.26,-4.09 3.45,-2.53 2.95,-3.62 4.7,-5.02 0.59,-0.47 1.34,-1.69 2.03,-2.17 1.86,-1.3 3.83,-2.56 5.83,-3.86 -3.16,5.82 -5.82,9.15 -7.19,14.64 1.14,-1.71 5.89,-7.66 7.91,-9.29 -8.63,12.83 -8.82,37.85 -8.84,37.78 -2.22,-1.37 -1.55,-19.16 -1.15,-20.94 -1.62,3.99 -1.97,6.98 -2.22,10.78 -0.63,-3.44 -0.41,-8.23 -1.12,-10.56z"/>
   <path class="fil0" d="M408.49 52.13c-3.68,3.78 -14.31,10.48 -16.05,14.48 -0.34,0.77 -0.86,1.47 -1.47,2.19 -5.89,11.71 -6.75,29.38 -6.88,33.54 0.06,2.78 -0.09,4.21 1,4.21 0.18,0 -0.2,-0.45 0.05,-1.29 0.2,-0.69 0.17,-3.88 0.41,-5.15 0.15,0.95 1.56,3.93 1.86,3.68 0.62,-0.51 -1.54,-6.54 0.71,-20.53 0.92,-5.66 3.5,-13.13 5.81,-16.1 3.59,-4.62 14.07,-11.89 15.14,-13.87 0.51,-0.95 0.57,-2.35 -0.58,-1.16z"/>
   <path class="fil2" d="M391.91 61.3c1.66,-0.78 2.98,-2.22 4.02,-2.59 1.4,-0.49 4.98,-3.58 7.82,-5.32 -0.71,1.64 -4.61,4.71 -5.52,7.11 3.71,-3.04 8.14,-6.19 10.26,-8.37 0.32,-0.34 0.55,-0.47 0.7,-0.46 -0.07,-0.17 -0.2,-0.35 -0.37,-0.58 -0.15,-0.2 -1.76,-1.5 -2.76,-1.97 -1.31,1.82 -4.91,4.57 -5.41,4.99 -1.73,1.43 -3.54,2.73 -5.38,3.98 -0.57,0.71 -1.56,1.72 -3.36,3.21z"/>
   <path class="fil11" d="M388.5 62.51l0 0.01 0.02 -0.01 -0.02 0zm3.68 -2.39c-3.16,5.82 -5.82,9.15 -7.19,14.64 1.14,-1.71 5.89,-7.66 7.91,-9.29 -0.7,1.04 -1.34,2.15 -1.93,3.33 0.61,-0.72 1.13,-1.42 1.47,-2.19 0.73,-1.69 3.07,-3.87 5.79,-6.11 0.91,-2.4 4.81,-5.47 5.52,-7.11 -2.84,1.74 -6.42,4.83 -7.82,5.32 -1.04,0.37 -2.36,1.81 -4.02,2.59 1.8,-1.49 2.79,-2.5 3.36,-3.21 -1.03,0.69 -2.07,1.37 -3.09,2.03zm-3.23 13.42l-0.05 0.14 0 0 0.05 -0.14zm15.41 -22.57l0.07 -0.07 0 0 -0.07 0.07z"/>
   <path class="fil11" d="M281.04 38.28c-7.61,8.74 -8.77,17.26 -8.77,29.98 -5.02,-10.97 -3.85,-15.7 -3.7,-23.31l-0.01 0.04c-0.89,3.47 -2.33,9.43 -3.24,13.85l-0.04 0.19 -0.01 0.04 -0.04 0.19 0 0.02 -0.04 0.2 -0.01 0.02 -0.04 0.21c-0.88,4.43 -1.64,8.89 -2.1,12.66 -0.47,3.88 -0.79,7.54 -0.88,11.13l0 0.15 0 0.02c-0.08,3.46 0.04,6.9 0.41,10.47 0.53,1.01 1.08,1.99 1.61,2.9 0.42,0.53 0.92,1.11 1.49,1.74 1.98,2.19 4.77,4.88 8.02,7.83 0.63,0.57 1.61,1.73 2.67,3.07 1.76,1.17 4.75,2.92 6.67,3.65 3.29,1.24 6.34,1.36 6.37,0.35l-0.09 0.04c-0.01,-0.02 -0.03,-0.04 -0.07,-0.04 -4.17,0.08 -8.06,-3.22 -10.26,-6.25 -3.16,-4.36 -3.33,-4.51 -3.86,-6.72 -1.11,-4.61 1.92,-6.85 4.35,-6.94 -1.06,-1.18 -0.83,-3.03 -0.28,-3.82 -3.87,-3.15 -4.1,-5.74 -4.08,-8.5 0.01,-1.03 -0.78,-1.99 0.07,-2.02 0.42,0.08 0.91,2.73 2.52,2.34 -0.84,-1.35 -3.24,-5.2 -2.78,-5.55 0.34,-0.27 3.49,4.87 4.39,5.85 0.25,0.02 2.17,1.33 3.02,1.41 -1.63,-1.83 -3.42,-7.68 -3.51,-7.98 -1.32,-4.56 -1,-11.02 -0.62,-13.85 1.5,-11.31 3.46,-17.59 4.69,-19.47 -0.35,-0.25 -1.98,-0.36 0.32,-2.21 -0.99,-0.74 -1.46,-0.77 -2.17,-1.69zm-15.54 48.39c-0.02,1.79 0.34,3.47 0.84,4.51 0.25,0.51 1.62,3.15 2.24,4.11 1.5,2.33 3.38,4 5.33,4.77 -0.77,-2.37 -1.65,-3.52 -2.25,-5.43 -0.34,-1.05 -1.67,-3.22 -1.76,-4.25 -0.06,-0.73 -3.91,-2.5 -4.4,-3.71zm19.31 -49.59c-0.05,-0.12 -0.11,-0.21 -0.17,-0.28l0.17 0.28z"/>
   <path class="fil0" d="M333.3 173.37c2.71,-3.48 4.71,-7.46 7.78,-10.47 2.22,-2.18 3.88,-5.07 11.26,-4.91 0.85,0.02 1.84,-0.54 3.84,-1.62 1.78,-0.97 2.97,-2.86 3.71,-3.5 -0.72,1.74 -1.66,2.91 -3.11,4.27 -0.24,0.12 -0.72,0.16 -1.79,1.07 2.51,-0.31 5.51,0.66 6.04,0.68 2.8,0.11 7.16,-1.98 9.48,-3.31 -0.11,0.28 -0.66,0.83 -1.54,1.44 -2.66,1.86 -2.98,1.83 -5.92,2.61 0.46,0.12 5.41,1.41 7.74,1.64 2.68,0.26 5.53,0.34 7.78,0.32 -0.81,0.68 -3.56,1.32 -7.16,1.32 -0.44,0 -4.31,-0.48 -5.14,-0.72 -0.02,0.38 3.23,1.67 5.48,1.61 1.47,-0.04 2.21,-0.15 4.26,-0.2 -0.6,0.25 -1.42,0.26 -2.1,0.45 -2.95,0.8 -6.4,0.54 -8.42,-0.54 -1.72,3.61 -3.88,6.51 -4.56,7.13 -3.83,3.5 -9.94,5.03 -16.95,3.14 -1.66,-0.44 -2.77,-1.49 -3.55,-1.86 -1.02,-0.49 -2.54,-1.12 -2.67,-1.1 -2.47,2.99 -4.49,4.69 -5.39,5.13 -0.06,0.03 -0.23,-0.03 -0.36,0.09 -0.43,0.43 -1.18,1 -1.68,1.1 0.08,-0.6 1.77,-2.22 2.97,-3.77z"/>
   <path class="fil8" d="M343.36 164.09c-1.4,3.82 3.83,3.32 4.56,1.26 1.78,-5.04 -3.47,-4.27 -4.56,-1.26z"/>
   <path class="fil8" d="M340.08 169.04c-0.22,1.7 2.03,1.88 2.35,0.97 0.87,-2.38 -1.99,-3.74 -2.35,-0.97z"/>
   <path class="fil8" d="M354.77 163.38c0.4,-0.39 0.13,-2.38 -0.68,-2.29 -1.53,0.17 -1.04,3.98 0.68,2.29z"/>
   <path class="fil4" d="M360.23 161.59c-1.4,4.27 -4.94,8.53 -9.48,10 -1.3,0.41 0.84,1.44 1.81,1.05 0.53,-0.21 1.69,-0.77 2.17,-1.05 -0.25,2.14 6.32,-2.91 6.65,-8.13 0.01,-0.18 0.06,-0.94 -0.09,-1.62 -0.1,0.09 -0.11,0.88 -0.23,1.15 -0.01,-0.64 -0.22,-1.36 -0.83,-1.4z"/>
   <path class="fil8" d="M265.5 86.67c-0.02,1.79 0.34,3.47 0.84,4.51 0.25,0.51 1.62,3.15 2.24,4.11 1.5,2.33 3.38,4 5.33,4.77 -0.77,-2.37 -1.65,-3.52 -2.25,-5.43 -0.34,-1.05 -1.67,-3.22 -1.76,-4.25 -0.06,-0.73 -3.91,-2.5 -4.4,-3.71z"/>
   <path class="fil11" d="M395.38 72.43c-0.33,1.44 -1.59,7.4 -1.12,11.49 0.59,5.14 2.1,13.97 4.03,13.18 0.17,-1.16 0.53,-4.72 3.58,-6.42 -0.59,-1.4 -1.54,-4.61 -0.84,-6.16 0.39,0.58 0.37,1.47 1.27,3.22 -0.22,-1.07 -0.96,-5.91 -0.79,-6.7 0.08,1.84 4.85,6.48 6.54,6.51 -0.19,-0.4 -2.99,-1.7 -4.65,-3.65 -1.13,-1.31 -1.26,-2.62 -1.18,-2.64 0.6,-0.16 0.64,-0.11 2.61,1.12 1.06,0.67 2.19,1.69 3.79,1.44 -3.49,-4.43 1.35,-10.68 2.33,-10.67 0.25,0.01 -2.74,2.83 -2.83,6.33 -0.06,2.19 1.24,4.02 1.36,4.31 0.16,0.06 0.31,0.03 0.43,-0.03 -2.58,-3.66 0.75,-10.63 1.77,-10.55 -0.02,-0.38 0.03,-0.45 0.19,-0.65 0.17,0.47 0.79,1.12 1.39,1.14 0.73,0.02 3.36,-0.43 3.59,-0.9 -0.25,-4.37 0.76,-8.58 1.28,-10.15 -0.6,-0.3 -4.01,-5.58 -4.38,-4.84 -1.79,3.55 -3.15,11.19 -3.45,13.73 -0.3,0.22 -1.01,0.6 -1.58,0.74 -0.46,-0.68 -0.79,-1.28 -0.98,-2.23 0.16,-3.83 1.09,-12.39 2.67,-15.19 0.26,-0.37 -0.51,-1.44 -1.22,-1.82 -0.04,0.09 -0.08,0.17 -0.12,0.25 -0.72,1.33 -5.69,5.05 -9.96,8.75 -0.8,2.26 -3.19,7.99 -3.73,10.39z"/>
   <path class="fil12" d="M409.97 53.7c0.08,0.02 0.96,0.75 1.18,0.83 1.63,0.56 3.06,1.52 3.29,3.37l0.03 0.27c-0.36,-0.37 -0.63,-0.54 -0.72,-0.36 -1.79,3.55 -3.15,11.19 -3.45,13.73 -0.3,0.22 -1.01,0.6 -1.58,0.74 -0.46,-0.68 -0.79,-1.28 -0.98,-2.23 0.16,-3.83 1.09,-12.39 2.67,-15.19 0.16,-0.23 -0.07,-0.72 -0.44,-1.16z"/>
   <path class="fil2" d="M418.22 62.24c1.01,0.25 0.21,0.15 1.36,1.37 0.54,0.58 1.8,1.73 1.17,2.61 -0.48,0.66 -0.81,3.73 -1.36,4.64 -0.51,0.85 -0.41,1.24 -1.27,2.45 -0.66,0.91 -1.94,1.71 -3.06,2.1 -0.84,0.28 -1.34,0.11 -2.12,-0.46 -0.97,-0.72 -1.07,-0.67 -1.07,0.78 0,1.32 0.57,2.66 1.13,3.79 0.82,1.64 0.08,0.11 0.22,1.8 0.05,0.57 0.8,2.15 1.7,2.11 1.06,-0.04 0.52,0.17 0.01,0.95 -0.76,1.13 -3.43,3.14 -4.9,2.36 -1.43,-0.77 -2.78,-1.06 -4.09,-2.12 -1.16,-0.93 -1.44,-1.01 -2.56,-2.19 -0.05,-0.06 -0.61,-0.35 -1.12,-0.69 -0.07,-0.29 -0.07,-0.48 -0.04,-0.48 0.6,-0.16 0.64,-0.11 2.61,1.12 1.06,0.67 2.19,1.69 3.79,1.44 -3.49,-4.43 1.35,-10.68 2.33,-10.67 0.25,0.01 -2.74,2.83 -2.83,6.33 -0.06,2.19 1.24,4.02 1.36,4.31 0.16,0.06 0.31,0.03 0.43,-0.03 -2.58,-3.66 0.75,-10.63 1.77,-10.55 -0.02,-0.38 0.03,-0.45 0.19,-0.65 0.17,0.47 0.79,1.12 1.39,1.14 0.73,0.02 3.36,-0.43 3.59,-0.9 -0.25,-4.37 0.76,-8.58 1.28,-10.15 -0.08,-0.04 -0.2,-0.16 -0.36,-0.35 0.12,-0.08 0.23,-0.1 0.45,-0.06zm-16.7 18.9l-0.02 -0.03 0.01 -0.07 0.01 0.1zm7.67 -9.01c0.23,-0.16 0.48,-0.32 0.76,-0.47 0.13,-0.07 0.25,-0.12 0.36,-0.17l-0.01 0.05c-0.22,0.16 -0.66,0.41 -1.11,0.59z"/>
   <path class="fil0" d="M420.78 65.13c0.15,0.02 0.37,0.05 0.66,0.24 1.56,1.01 1.57,2.38 3.17,3.43 0.34,0.22 1.17,2.1 0.47,2.89 -1.67,1.88 -3.83,3.48 -6.24,4.24 0.16,0.34 1.54,-0.16 2.39,-0.21 -1.42,1.91 -4.6,1.51 -5.97,0.91 0.27,0.41 2.2,1.48 3.1,1.57 1.6,0.17 -1.22,1.12 -2.04,1.03 -0.69,-0.08 -1.83,-0.86 -2.29,-1.33 0.84,1.64 1.49,2.33 2.6,2.62 2.32,1.84 -0.63,1.81 -1.81,0.94 -0.3,-0.22 -0.87,-0.89 -0.49,0.02 0.06,0.13 0.46,0.58 0.56,0.69 1.13,1.3 3.68,-1.12 2.81,0.95 -0.84,1.97 -3.89,3.13 -5.64,3.5 -0.73,0.31 -1.47,0.41 -2.03,0.12 -1.43,-0.77 -2.78,-1.06 -4.09,-2.12 -1.16,-0.93 -1.44,-1.01 -2.56,-2.19 -0.05,-0.06 -0.61,-0.35 -1.12,-0.69 0.11,0.5 0.43,1.33 1.14,2.16 1.66,1.95 4.46,3.25 4.65,3.65 -1.66,-0.03 -6.3,-4.51 -6.53,-6.41l-0.02 -0.03c-0.12,0.98 0.58,5.59 0.8,6.63 -0.9,-1.75 -0.88,-2.64 -1.27,-3.22 -0.68,1.51 0.2,4.58 0.79,6.03l0.08 0.15c0.39,0.8 0.89,1.53 1.53,2.09 -2.22,1.45 -3.05,4.66 -2.4,7.09l0.01 0.02 0 0c-1.9,3.57 2.96,2.49 0.47,3.43 -0.63,0.24 -1.82,1.29 -0.84,1.84 1.04,0.58 0.44,0.42 -1.15,1.2 -2.99,1.46 -4.71,2.28 -6.73,5.71 -0.92,0.13 -3.76,-1.17 -5.31,-1.74 2.67,2.81 5.23,4 8.64,4.02 0.01,0 -1.8,0.31 -2.83,0.79 -1.58,0.72 -2.52,0.29 -2.63,0.68 -0.33,1.08 7.1,3.42 10.04,-2.81 0.17,-0.37 0.5,-0.29 0.64,-0.47 0.14,-0.19 -2.21,0.2 -2.97,0.39 1.53,-0.54 3.78,-1.85 4.6,-2.78 0.5,-0.57 0.72,-0.9 -0.52,-0.29 -1.12,0.55 -5.56,3.29 -8.52,2.58 2.28,-3.38 4.97,-4.49 8.33,-5.91 0.93,-0.39 1.73,-1.95 0.04,-2.15 -0.66,-0.08 2.14,-1.04 0.99,-2.34 -0.2,-0.22 -0.18,-0.38 -0.03,-0.58 0.19,-0.1 0.36,-0.2 0.52,-0.26 1.26,-0.41 1.62,-0.79 1.72,-1.11 0.45,-0.31 0.65,-0.83 -0.07,-1.81l-0.04 -0.05c0.1,-0.17 0.23,-0.31 0.39,-0.39 3.99,0.01 3.23,-2.59 4.2,-3.3 1.72,-1.24 -0.66,-1.53 -1.13,-1.7 -3.11,-1.08 -5.12,-5.1 -6.4,-8.32 1.05,2.17 6.44,7.06 9.94,3.7 1.43,-0.14 3.17,-1.43 3.12,-1.95 -0.08,-0.21 -1.22,0.56 -3.45,0.34 1.2,-0.5 2.4,-1.54 2.87,-2.24 0.51,-0.78 1.05,-0.99 -0.01,-0.95 -0.9,0.04 -1.65,-1.54 -1.7,-2.11 -0.14,-1.69 0.6,-0.16 -0.22,-1.8 -0.56,-1.13 -1.13,-2.47 -1.13,-3.79 0,-1.45 0.1,-1.5 1.07,-0.78 0.78,0.57 1.28,0.74 2.12,0.46 1.12,-0.39 2.4,-1.19 3.06,-2.1 0.86,-1.21 0.76,-1.6 1.27,-2.45 0.55,-0.91 0.88,-3.98 1.36,-4.64 0.24,-0.34 0.2,-0.72 0.03,-1.09z"/>
   <path class="fil2" d="M401.83 90.56l0.04 0.12c-3.05,1.7 -3.41,5.26 -3.58,6.42 0,1.28 -0.14,2.37 0.31,3.59 -3.48,-0.17 -8.19,4.64 -7.48,11.05 0.2,0.06 0.39,0.12 0.57,0.17l0 -0.01c-0.14,-4.06 2.43,-8.23 5.27,-9.77 0.44,-0.24 2.03,-0.81 2.1,0.04 0.04,0.44 -0.87,0.52 -1.49,1.41 -0.43,0.63 -1.17,1.03 -1.74,1.5 -2.2,1.81 -3.71,3.9 -3.67,6.95 0.25,0.05 0.47,0.07 0.63,0.05 2.02,-3.43 3.74,-4.25 6.73,-5.71 1.59,-0.78 2.19,-0.62 1.15,-1.2 -0.98,-0.55 0.21,-1.6 0.84,-1.84 2.49,-0.94 -2.37,0.14 -0.47,-3.43l0 0 -0.01 -0.02c-0.65,-2.43 0.18,-5.64 2.4,-7.09 -0.64,-0.56 -1.14,-1.29 -1.53,-2.09l-0.07 -0.14z"/>
   <path class="fil8" d="M391.69 111.9c-0.14,-4.06 2.43,-8.23 5.27,-9.77 0.44,-0.24 2.03,-0.81 2.1,0.04 0.04,0.44 -0.87,0.52 -1.49,1.41 -0.43,0.63 -1.17,1.03 -1.74,1.5 -2.2,1.81 -3.71,3.9 -3.67,6.95 -0.15,-0.03 -0.3,-0.07 -0.47,-0.12l0 -0.01z"/>
   <path class="fil2" d="M341.17 132.73c-1.13,1.79 -8.49,14.05 -2.79,17.22 4.82,0.73 1.56,-5.48 10.17,-3.23 1.91,0.49 4.4,1.08 6.11,0.98 1.94,-0.13 3.82,-2.59 4.47,-4.59 0.56,-1.73 1.09,-3.45 1.27,-5.24 0.2,-2 -2.37,-7.34 -3.54,-9.06 -3.99,-5.89 -7.52,-6.47 -12.2,-0.96l0.36 -0.16c1.39,-0.63 5.33,-1.93 2.81,-0.77 -1.69,0.78 -3.18,1.67 -4.5,2.61 -0.69,0.94 -1.41,2 -2.16,3.2z"/>
   <path class="fil0" d="M345.02 127.69c-1.27,0.57 -3.06,1.2 -4.64,2.62 -2.58,2.32 -2.86,2.9 -4.75,5.84 -1.51,2.33 -2.77,4.67 -3.48,6.92 1.03,-1.14 1.77,-2.92 2.5,-3.92 0.99,-1.36 4.48,-8.2 13.18,-12.23 2.52,-1.16 -1.42,0.14 -2.81,0.77z"/>
   <path class="fil0" d="M342.58 137.47c3.41,-3.21 8.62,-7.35 12.97,-6.1 4.23,1.21 7.81,3.71 10.15,6.37 0.69,0.78 3.33,3.73 4.12,5.2 -1.56,-1.46 -4.32,-4.32 -4.86,-4.67 -2.31,-1.51 -2.01,-1.93 -5.32,-3.46 -1.57,-0.73 -5.75,-3.52 -10.43,-0.31 5.77,-1.55 10.79,0.01 14.49,4.21 1.68,1.91 -2.57,-0.54 -3.38,-1.24 -1.83,-1.58 -4.59,-2.03 -7.04,-2.22 -8.31,-0.66 -11.81,6.26 -16.84,12.91 -2.34,3.09 -4.09,5.78 -4.24,5.78 -2.16,0 8.04,-14.28 10.38,-16.47z"/>
   <path class="fil2" d="M366.85 158.39c4.56,4.86 14.15,2.58 21.76,-3.38 1.73,-1.35 14.13,-11.41 15.22,-13.1 2.79,1.53 6.72,5.65 8.01,11.18 -0.68,-1.55 -7.85,-9.62 -5.04,-4.87 1.41,2.39 3.28,4.96 4.56,7.86 1.42,3.22 2.41,6.98 3.67,8.55 0.06,-0.16 0.1,-0.32 0.14,-0.51 -0.4,-2.8 -1.16,-6.33 -1.17,-7.68 -0.05,-4.85 4.91,-6.46 9.14,-6.11 -0.5,-0.26 -1.66,-0.6 -2.95,-0.59 -0.54,0.03 -1.08,0.09 -1.59,0.12 -0.78,0.1 -1.52,0.41 -2.13,0.68 -2.42,1.64 -3.72,0.03 -1.57,-1.14 0,-0.17 0.02,-0.36 0.05,-0.55 -0.77,-0.02 -0.81,-1.06 0.36,-1.93 0.59,-0.45 1.73,-0.64 3.03,-0.93 -0.17,-0.13 -2.86,-0.7 -4.88,0.61 -0.46,-4.18 0.73,-19.29 -3.74,-21.09 -1.78,-0.72 -4.46,-0.29 -5.76,0.31 2.69,-0.62 4.87,-0.1 4.77,0.45 -0.06,0.34 -1.32,0.54 -1.96,1.11 -1.95,1.74 -3.91,3.28 -5.32,5.3 1.1,-0.57 5.8,-1.2 5.77,0.57 -1.77,-0.22 -5.09,2.03 -4.39,2.03 2.4,0 5.75,-0.16 6.44,1.62 0.83,2.12 0.26,0.85 -0.69,0.6 -2.52,-0.7 -0.18,0.09 0.2,0.99 0.77,1.83 -0.48,0.98 -1.19,0.71 -1.16,-0.44 -2.64,-0.67 -3.29,-0.26 -2.09,1.32 -2.67,-0.15 -1.49,-1.1 0.57,-0.46 1.54,-0.7 2.39,-0.82 -0.37,-0.2 -0.81,-0.19 -1.45,-0.22 -1.52,1.48 -1.76,-0.12 -1.43,-0.57 -1.69,-0.19 -1.18,-2.38 0.67,-2.97 -0.99,-0.12 -1.8,0.43 -2.07,0.84 -1.13,1.71 -1.68,-2.41 3.46,-5.73 -2.26,0.91 -3.73,3.27 -3.74,3.27 -0.39,-2.66 6.43,-5.51 2.12,-3.97 -3.47,1.25 -1.54,0.3 -1.34,-0.32 0.56,-1.82 1.7,-3.51 3.16,-5.08 -0.29,0.13 -0.59,0.29 -0.9,0.49 -9.71,7.32 -10.21,12.09 -19.09,19.16 -8.41,8.2 -22.95,8.08 -18.26,15.71 1.59,-0.65 3.1,-1.43 4.18,-2.05 -0.11,0.28 -0.66,0.83 -1.54,1.44 -0.92,0.65 -1.56,1.07 -2.12,1.37z"/>
   <path class="fil0" d="M437.88 94.24c-1.94,2.93 -14.75,11.08 -18.97,16.71 -4.87,4.47 -15.33,9.45 -17.49,16.4 -0.2,0.62 -2.13,1.57 1.34,0.32 4.31,-1.54 -2.51,1.31 -2.12,3.97 0.01,0 1.48,-2.36 3.74,-3.27 -5.14,3.32 -4.59,7.44 -3.46,5.73 0.27,-0.41 1.08,-0.96 2.07,-0.84 -1.85,0.59 -2.36,2.78 -0.67,2.97 -0.33,0.45 -0.09,2.05 1.43,0.57 0.64,0.03 1.08,0.02 1.45,0.22 -0.85,0.12 -1.82,0.36 -2.39,0.82 -1.18,0.95 -0.6,2.42 1.49,1.1 0.65,-0.41 2.13,-0.18 3.29,0.26 0.71,0.27 1.96,1.12 1.19,-0.71 -0.38,-0.9 -2.72,-1.69 -0.2,-0.99 0.95,0.25 1.52,1.52 0.69,-0.6 -0.69,-1.78 -4.04,-1.62 -6.44,-1.62 -0.7,0 2.62,-2.25 4.39,-2.03 0.03,-1.77 -4.67,-1.14 -5.77,-0.57 1.41,-2.02 3.37,-3.56 5.32,-5.3 0.64,-0.57 1.9,-0.77 1.96,-1.11 0.1,-0.55 -2.08,-1.07 -4.77,-0.45 1.3,-0.6 3.98,-1.03 5.76,-0.31 4.47,1.8 3.28,16.91 3.74,21.09 2.02,-1.31 4.71,-0.74 4.88,-0.61 -1.3,0.29 -2.44,0.48 -3.03,0.93 -1.68,1.26 -0.85,2.87 1.04,1.26 0.77,-0.66 2.62,-0.86 4.7,-0.59 1.52,0.19 3.2,-0.55 4.11,-0.59 -3.59,-1.38 -4.99,-1.7 -6.05,-2.18 0.28,-0.18 1.26,-0.4 2.59,0.23 0.51,0.24 0.82,0.22 1.24,0.06 0.66,-0.25 1.05,0.48 3.19,0.48 1.67,0 5.33,-1.8 3.24,-1.98 -3.48,-0.32 -9.64,-3.25 -9.41,-4.43 3.63,2.69 5.89,3.5 7.6,3.91 1.15,0.28 4.05,0.27 7.34,-2.96 -1.19,0.41 -3.94,1.62 -5.59,1.73 -3.5,0.24 -10.09,-4.43 -10.7,-8.08 -0.34,-1.97 -0.16,-3.92 0.07,-4.55 0.08,-0.05 7.46,-3.83 8.52,-7.16 -1.32,0.57 -6.73,4.43 -8.22,5.16 0.05,-0.46 0.14,-0.89 0.15,-1.6 1.05,-0.63 7.47,-4.28 8.98,-7.96 -0.56,0.08 -3.46,2.85 -4.22,3.14 1.24,-1.33 4.82,-4.46 -0.01,-1.77 -0.21,0.12 -4.16,2.24 1.3,-1.41 0.52,-0.35 2.16,-1.83 3.63,-3.36 0.44,-0.46 0.95,-0.86 1.09,-1.22 -0.33,0.05 -1.14,0.55 -1.73,0.78 0.14,-0.21 1.16,-1.04 0.85,-0.92 -0.43,0.16 -1.3,0.69 -1.85,1.02 -0.3,0.09 -0.78,-0.02 -0.92,0.03 -1.52,0.61 -2.93,1.16 -3.32,1.14 3.76,-2.88 5.61,-4.78 8.25,-8.51 1.04,-1.46 -1.79,1.47 -2.89,2.24 0.6,-1.09 2.81,-3.5 3.55,-4.57 2.62,-3.78 3.05,-3.53 6.41,-5.18 2.88,-1.42 -1.28,-0.26 -3.41,0.46 0.04,-0.16 3.92,-2.9 4.69,-6.06 0.07,-0.28 -1.51,0.54 -1.65,0.76z"/>
   <path class="fil11" d="M334.12 148.58c-0.26,0.77 -2.62,4.37 -3.53,6.52 -1.7,4.03 -1.06,5.34 0.49,7.08 0.58,-0.77 1.1,-1.35 1.55,-1.69 -0.46,0.96 -0.55,1.15 -1.23,2.4 -0.72,1.29 -0.33,1.61 -0.9,2.61 -2.96,5.23 -6.03,11.37 -9.18,18.04 0.07,0.69 0.45,0.59 1.48,-1.75 1.43,-3.26 5.2,-8.98 8.26,-12.29 0.54,-0.58 3.86,-2.88 5.21,-3.68 -1.55,2.92 -2.42,4.75 -3.17,6.39 -0.63,1.38 -1.2,1.71 -0.48,2 0.23,-0.28 0.47,-0.56 0.68,-0.84 1.85,-2.38 3.37,-4.99 5.12,-7.36 -0.85,0.26 -0.88,-0.42 -0.57,-1.28 -0.66,0.83 -1.26,1.6 -1.78,2.24 1.6,-3.41 4,-5.94 6.84,-8.12 2.93,-2.24 6.16,-2.95 11.95,-1.78 -1.13,0.14 -3.52,0 -4.83,-0.04 -0.99,-0.02 -1.92,0.1 -2.81,0.34 0.81,0.07 0.71,0.61 0.5,1.02 1.24,-0.29 2.75,-0.44 4.62,-0.4 0.85,0.02 1.84,-0.54 3.84,-1.62 1.37,-0.75 2.4,-2.05 3.14,-2.9 -1.11,-0.47 -2.36,-0.9 -3.8,-1.33 -2.03,-0.6 -2.2,-0.61 -4.23,0.11 -3.11,1.1 -6.44,2.19 -9.7,4.36 -1.12,0.74 -4.47,3.72 -5.83,1.62 -0.95,-1.48 1.85,-5.33 3.17,-7.36 0.17,-0.28 0.26,-0.57 0.29,-0.86 -0.25,0.01 -0.53,-0.01 -0.84,-0.06 -0.87,-0.48 -1.44,-1.18 -1.77,-2.02l-0.17 0.23c-2.34,3.09 -4.09,5.78 -4.24,5.78 -0.91,0 0.39,-2.56 2.37,-5.68 -0.26,0.16 -0.44,0.27 -0.45,0.32zm32.46 11.91c-0.06,-0.48 -0.27,-1.12 -0.56,-1.72 -0.76,0.3 -1.56,0.49 -2.97,0.86 0.25,0.06 1.8,0.47 3.53,0.86zm-1.07 -2.55l-0.16 -0.2c-1.55,-1.81 -3.31,-3.08 -5.78,-4.16 -0.68,1.37 -1.55,2.4 -2.79,3.56 -0.24,0.12 -0.72,0.16 -1.79,1.07 2.51,-0.31 5.51,0.66 6.04,0.68 1.28,0.05 2.89,-0.36 4.48,-0.95z"/>
   <path class="fil0" d="M336.07 166.97c2.7,-3.27 7.13,-10.11 13.96,-9.94 1.31,0.04 3.7,0.18 4.83,0.04 -5.79,-1.17 -9.02,-0.46 -11.95,1.78 -2.84,2.18 -5.24,4.71 -6.84,8.12z"/>
   <path class="fil0" d="M283.39 259.15c4.45,-1.86 9.89,-13.87 19.76,-35.46 9.55,-20.87 18.88,-43.26 27.35,-58.19 0.57,-1 0.18,-1.32 0.9,-2.61 0.68,-1.25 0.77,-1.44 1.23,-2.4 -4.87,3.76 -18.88,35.25 -30.38,61.7 -7.23,16.63 -15.56,34.71 -18.86,36.96z"/>
   <path class="fil0" d="M336.54 174.46c1.17,-1.25 2.97,-0.35 5.04,0.52 1.75,0.73 3.73,1.39 5.48,1.29 2.68,-0.17 3.99,-0.39 8.37,-1.09 -1.18,0.63 -3.71,1.25 -4.75,1.47 -3.51,0.77 -6.55,1.3 -10.2,-0.43 -0.54,-0.25 -2.21,-0.67 -1.15,-0.86 0.1,-0.01 1.75,0.17 2.54,0.32 -1.09,-0.45 -3.64,-2.17 -5.33,-1.22z"/>
   <path class="fil0" d="M327.66 181.01c2.84,1.81 7.12,-1.53 8.09,-2.99 -1.64,-0.03 -3.27,1.43 -4.96,1.89 -1.21,0.33 -2.33,0.41 -2.91,0.46 -0.42,0.04 -0.69,0.34 -0.22,0.64z"/>
   <path class="fil0" d="M367.46 169.61c-4.33,1.32 -9.31,6.24 -10.22,9.63 1.69,-2.49 4.3,-5.16 5.35,-6 2.08,-1.67 5.22,-3.74 4.87,-3.63z"/>
   <path class="fil0" d="M368.8 170.5c-2.73,0.31 -8.79,4.87 -10.21,8.39 0.08,-0.1 1.97,-2.01 4.26,-3.89 2.29,-1.89 5.08,-3.67 5.95,-4.5z"/>
   <path class="fil11" d="M341.76 176.75c1.55,0.98 3.18,2.2 6.35,2.83 2.25,0.44 5.6,0.6 6.23,0.41 0.63,-0.19 1.14,-0.31 0.34,0.26 -0.21,0.15 -0.67,0.35 -0.79,0.55 -0.08,0.14 1.02,-0.16 0.9,-0.05 -4.56,3.88 -9.38,1.96 -12.84,1.61 3.52,3.02 9.01,2.86 11.47,1.17 6.03,-3.85 7.98,-6.92 11.3,-9.98 -0.63,0.46 -1.27,0.95 -1.87,1.45 -2.29,1.88 -4.18,3.79 -4.26,3.89 0.96,-2.37 4.01,-5.2 6.73,-6.9 0.11,-0.31 0.21,-0.65 0.33,-1.03 -0.96,0.68 -2.12,1.52 -3.06,2.28 -1.05,0.84 -3.66,3.51 -5.35,6 0.8,-2.98 4.74,-7.13 8.61,-8.99 0.21,-0.73 0.41,-1.54 0.59,-2.36 0.67,-3.16 -0.24,-1.18 -3.09,2.04 -1.5,1.69 -4.76,3.92 -8,5.27l0.08 -0.02c-1.18,0.63 -3.71,1.25 -4.75,1.47 -3.09,0.68 -5.82,1.17 -8.92,0.1z"/>
   <path class="fil11" d="M362.07 180.88c-4.71,7.53 4.63,-4.59 7.84,-6.26 1.2,-0.63 2.78,-1.62 3.21,-2.17 -5.11,0.04 -8.49,4.34 -11.05,8.43z"/>
   <path class="fil6" d="M420.19 181.77c-1.15,10.53 -1.6,21.54 -1.41,31.86 0.24,3.65 1.25,10.7 -1.45,13.76 -4.92,5.59 -11.12,12.29 -17.98,18.82 -5.17,4.92 -10.29,9.32 -14.45,11.99 -2.28,1.46 -4.49,2.5 -6.82,3.25 -2.32,0.75 -4.73,1.22 -7.41,1.55 -5.46,0.23 -9.94,2.31 -14.97,5.42 -1.64,1.02 -8.03,6.05 -10.82,10.67 0.92,-5.06 8.22,-10.48 9.91,-11.54 11.4,-8.37 20.79,-4.43 28.75,-11.48 3.71,-3.38 8.94,-6.82 14.38,-11.38 6.78,-6.46 12.47,-11.98 17.37,-17.53 0.56,-0.64 1.71,-4.11 1.78,-5.87 0.07,-1.97 -0.09,-4.52 -0.29,-7.5 -0.47,-11.3 0.23,-22.4 -0.56,-33.25 -0.05,-0.33 -0.07,-0.67 -0.08,-1.02l0 -0.01c-0.01,-0.16 0,-0.33 0,-0.49 0.1,-3.81 -0.87,-9.57 -0.74,-12 0.12,-2.44 -1.38,-8.67 -1.4,-10.58 -0.05,-4.85 4.91,-6.46 9.14,-6.11 -1.01,-0.51 -4.6,-0.69 -6.67,0.21 -3.5,2.37 -4.65,-2.04 3.57,-2.14 3.99,-0.04 7.9,0.86 11.77,4.06 -1.16,-0.48 -2.81,-0.97 -4.44,-1.24 1.48,0.81 2.22,1.21 2.75,1.46 -3.03,-1.03 -7.35,-0.91 -9.43,-0.49 0.56,3.55 -0.13,6.91 0.06,9.73 0.28,4.27 -0.46,10.12 -0.37,14.89 0.02,0.66 0.08,1.59 0.08,2.54 0,0.87 -0.06,1.74 -0.27,2.42z"/>
   <path class="fil2" d="M416.6 201.99c-2.87,-6.18 -7.61,-10.01 -15.21,-6.63 -9.66,4.3 -19.17,21.45 -13.3,32.51 3.62,6.83 18.24,8.35 19.86,7.07l0 0c2.64,-2.65 5.07,-5.21 7.34,-7.78 0.56,-0.64 1.71,-4.11 1.78,-5.87 0.07,-1.97 -0.09,-4.52 -0.29,-7.5 -0.16,-3.96 -0.18,-7.89 -0.18,-11.8z"/>
   <path class="fil6" d="M410.01 186.16c0.16,1.73 0.27,5.6 -0.02,9.54 -0.34,4.69 -1.14,9.49 -1.38,10.88 -0.51,3.03 -6.13,23.1 -8.94,25.99 0.18,-1.53 1.64,-5.29 2.9,-9.55 1.97,-6.64 4.03,-14.48 4.43,-16.86 0.38,-2.19 1.5,-6.09 2.1,-10.08 0.55,-3.76 0.58,-7.63 0.91,-9.92z"/>
   <path class="fil11" d="M410.01 153.42c0.11,5.43 0.85,4.29 1.17,7.72 0.1,1.18 -0.29,5.01 -0.3,13.05 0,4.1 -0.42,9.41 -0.77,13.59 0.08,1.79 0.1,4.34 -0.06,6.99 3.79,1.77 5.81,8.78 6.55,9.1 -0.01,-7.89 0.17,-15.68 -0.38,-23.33 -0.05,-0.33 -0.07,-0.67 -0.08,-1.02l0 -0.01c-0.01,-0.16 0,-0.33 0,-0.49 0.1,-3.81 -0.87,-9.57 -0.74,-12 0.03,-0.71 -0.07,-1.74 -0.23,-2.9 -0.04,0.19 -0.08,0.35 -0.14,0.51 -1.26,-1.57 -2.25,-5.33 -3.67,-8.55 -0.4,-0.92 -0.87,-1.8 -1.35,-2.66l0 0z"/>
   <path class="fil11" d="M396.64 233.83c-1.83,5.91 -15.53,22.41 -20.89,23.38 0.75,0.75 1.42,1.52 2.01,2.28 2.01,-0.74 3.93,-1.79 5.78,-3.42 3.71,-3.38 8.94,-6.82 14.38,-11.38 3.64,-3.47 6.97,-6.67 10.03,-9.75 -0.94,0.75 -6.29,0.54 -11.31,-1.11z"/>
   <path class="fil2" d="M337.45 282.7c0.9,-1.75 1.97,-3.55 1.84,-5.39 -0.32,-4.49 -0.79,-8.99 1.16,-13.64 2.88,-6.85 10.84,-13.5 16.28,-14.17 8.35,-1.03 16.93,4.66 21.03,9.99 -6.65,2.46 -14.22,1.63 -22.97,8.06 -1.06,0.66 -4.31,3.03 -6.82,5.95 -3.03,2.51 -3.54,3.33 -7.41,8.02 -0.39,0.47 -3.79,2.51 -3.11,1.18z"/>
   <path class="fil0" d="M368.27 250.2c-4.96,1.55 -10.76,11.08 -7.72,8.66 0.96,-0.76 6.19,-6.09 8.24,-7.48 1.06,-0.72 0.59,-1.52 -0.52,-1.18z"/>
   <path class="fil4" d="M318.45 174.17c-1.24,0.02 -2.5,-0.81 -4.89,-0.7 -1.66,0.08 -2.49,1 -2.73,1.17 -2.81,2.01 -4.19,3.68 -5.86,8.99 -1.43,4.51 0.87,17.95 6.62,17.34 4.57,-10.21 9.06,-19.9 12.83,-27.29 -0.27,-0.77 -2.18,0.44 -5.97,0.49z"/>
   <path class="fil4" d="M313.92 241.86c-6.92,14.19 15.49,13.68 20.48,8.05 6.7,-7.57 8.11,-25.71 -5.69,-26.86 -8.92,-0.74 -9.18,6.04 -11.59,13.85 -0.78,2.54 -2.19,2.88 -3.2,4.96z"/>
   <path class="fil6" d="M346.36 274.82c-1.35,2.22 -2.46,3.62 -3.19,4.7 -1.47,2.18 -2.54,3.87 -10.36,7.34 -3.05,1.15 -8.11,4.84 -11.11,7.5 -4.59,4.06 -8.53,9.85 -11.53,15.37 -5.9,9.06 -6.06,15.64 -21.5,17.84 -4.37,0.53 -10.63,1.69 -16.39,2.04 -13.09,0.7 -38.57,0.16 -42.91,-18.51 -0.13,-1.15 1.21,-3.19 1.32,-2.17 3.45,14.55 18.35,17.22 28.84,17.75 11.91,0.92 17.51,-0.14 27.98,-2 11.29,-2.74 14.86,-7.94 20.41,-16.45 4.52,-6.95 6.37,-11.11 13.98,-17.27 2.72,-2.11 6.76,-4.59 10.12,-5.85 6.4,-2.97 9.53,-4.77 10.76,-6.59 1.89,-2.16 1.62,-1.97 3.58,-3.7z"/>
   <path class="fil6" d="M329.75 273.19c0.64,0.95 -0.22,1.71 -1.14,2.1 0.12,0.73 -0.39,1.21 -1.46,2.33 -1.47,1.54 -3.58,3.61 -6.92,7.42 -0.4,0.42 -1.59,2.61 -1.98,3.04 -4.06,4.36 -8.2,9.37 -11.97,13.95 -4.09,4.95 -6.99,10.45 -10.01,12.06 -2.87,1.2 -12.4,6.93 -14.27,6.67 -16.37,-0.25 -27.41,-1.13 -40.2,-5.53 -6.27,-1.52 -8.4,-4.19 -10.03,-4.02 -2.61,-5.24 -5.54,-10.82 -6.09,-10.92 -1.41,-0.26 -4.11,-1.7 -5.59,-3.24 -1.37,-1.42 -3,-3.14 -3.09,-4.66 -0.07,-1.18 0.27,-9.2 3.94,-13.81 -0.59,2.94 -2.16,12.05 -1.85,13.66 0.09,1.49 3.01,3.97 4.29,4.7 1.29,0.73 1.51,1.18 2.24,1.78 13.68,0.88 41.23,10.16 59.98,8.88 3.18,-0.69 9.24,-3.73 13.85,-5.6 7.61,-4.51 9.1,-7.63 17.3,-15.27 3.24,-3.37 3.3,-7.28 5.22,-9.03 -0.59,0.59 -1.29,1.68 -1.16,0.59 0.43,-3.65 8.22,-6.17 8.94,-5.1zm-100.7 28.18c1.41,1.72 3.36,4.6 4.31,6.05 2.63,0.82 6.37,2.47 13.62,4.23 12.49,3.03 24.27,5.92 29.44,6.05 7.61,-1.66 14.11,-4.43 20.96,-8.38 0.43,-0.94 0.83,-3.98 0.16,-4.51 -2.13,0.52 -7.59,3.43 -11.55,4.56 -14.77,0.78 -41.82,-5.03 -56.94,-8z"/>
   <path class="fil11" d="M274.25 326.7c4.13,-0.39 8.1,-1.1 13.26,-2.02 11.29,-2.74 14.86,-7.94 20.41,-16.45 3.03,-4.65 4.86,-8.05 8.02,-11.64 -1.91,1.2 -5.67,4.59 -7.28,5.98 0.82,-1.22 5.99,-8.8 7.68,-12.4 -3.44,3.83 -6.88,8 -10.06,11.86 -4.09,4.95 -6.99,10.45 -10.01,12.06 -2.87,1.2 -12.4,6.93 -14.27,6.67 -2.62,-0.04 -5.1,-0.1 -7.48,-0.18 0.43,2.13 0.75,4.1 -0.27,6.12z"/>
   <path class="fil2" d="M246.39 316.68c-2.06,1.82 -2.31,4.28 -2.88,6.85 5.27,2.25 11.04,2.9 16.02,3.15 6.04,0.47 10.46,0.42 14.72,0.02 1.02,-2.02 0.7,-3.99 0.27,-6.12 -10.67,-0.38 -19.17,-1.32 -28.13,-3.9z"/>
   <path class="fil10" d="M233.45 315.5c1.83,1.24 5.32,3 6.12,3.14 0.48,0.08 1.94,0.43 2.09,0.88 0.01,0.01 1.21,1.81 2.11,2.8 0.43,-2.11 0.89,-4.08 2.59,-5.61l0.03 -0.03c-1.51,-0.43 -3.04,-0.91 -4.59,-1.45 -6.27,-1.52 -8.4,-4.19 -10.03,-4.02l-1.01 -2.01c0.61,2.42 1.53,4.5 2.69,6.3z"/>
   <path class="fil11" d="M285.88 309.37c1.01,0.41 0.73,0.29 2,0.74 -0.09,0.19 -0.17,2.92 -0.19,4.05 3.26,-1.35 6.43,-2.96 9.69,-4.84 0.43,-0.94 0.83,-3.98 0.16,-4.51 -2.13,0.52 -7.59,3.43 -11.55,4.56l-0.11 0z"/>
   <path class="fil11" d="M219.05 291.58c1.74,0.32 5.73,2.81 8.38,4.36 5.96,1.28 28.21,5.12 32.71,9.3 -13.23,-2.47 -26.35,-6 -34.52,-6.52 -0.73,-0.6 -0.95,-1.05 -2.24,-1.78 -1.28,-0.73 -4.2,-3.21 -4.29,-4.7 -0.03,-0.15 -0.04,-0.38 -0.04,-0.66z"/>
   <path class="fil11" d="M258.35 195.64c2.37,-3.21 3.57,-3.41 3.87,-2.87 1.17,2.15 -10.65,12.85 -14.77,34.62 -0.67,3.53 -1.08,5.72 -1.59,7.46 -7.5,0.23 -13.58,7.06 -14.09,14.75 -0.76,1.83 -1.35,3.67 -2.35,6.62 -1.38,4.07 -2.92,5.79 -0.34,8.65 0.03,0.03 8.62,12.2 2.27,5.56 -1.75,-1.83 -2.39,-3.04 -2.98,-3.45 1.18,4.18 5.44,10.7 4.77,19.79 1.48,-0.07 2.52,4.4 4.87,6.71 -2.82,-1.14 -7.09,-2.29 -12.26,-5.17 -0.67,-1.19 -1.27,-2.46 -1.76,-4.36 2.42,-7.85 -0.74,-13.25 -3.56,-15.02 3.96,6.63 3.4,8.29 3.34,14.09 -0.19,-0.84 -0.35,-1.78 -0.49,-2.88 0,1.48 -2.09,6.63 -1.99,2.38 0.07,-2.99 -0.03,-6.51 -1.26,-9.73 0.1,0 0.17,-0.03 0.22,-0.13 0.16,-0.82 -1.97,-3.31 -3.01,-5.12 -2.63,-4.55 -3.36,-15.09 3.3,-13.78 2.1,0.41 6.45,-4.03 11.08,-9.66 8.11,-10.53 9.82,-22.32 16.24,-32.48 3.04,-4.81 5.89,-9.69 9.22,-14.63 0.56,-0.54 1.02,-1.01 1.27,-1.35zm-31.94 83.54c0.37,-1.14 0.28,-7.59 -1.07,-10.19 -1.83,-3.54 -4.75,-5.69 -5.85,-5.97 0.89,1.22 3.7,3.9 5.01,6.29 0.91,1.65 1.29,7.95 1.91,9.87z"/>
   <path class="fil2" d="M249.53 235.25c-10.07,-2.57 -18.91,7.24 -17.68,17.28 0.59,4.81 5.54,7.34 6.95,9.52 5.73,8.8 7.4,-3.08 8.91,-7.78 1,-3.09 2.7,-6.06 3.93,-7.76 3.48,-4.84 3.13,-9.92 -2.11,-11.26z"/>
   <path class="fil6" d="M271.52 179.72c-11.47,10.87 -17.13,21.57 -23.66,31.9 -6.42,10.16 -8.13,21.95 -16.24,32.48 -4.63,5.63 -8.98,10.07 -11.08,9.66 -6.66,-1.31 -5.93,9.23 -3.3,13.78 1.04,1.81 3.17,4.3 3.01,5.12 -0.31,0.63 -1.84,-1.2 -2.47,-1.5 -3.56,-3.44 -4.13,-8.49 -4.17,-11.96 -0.05,-4.87 2,-6.88 7.3,-8.8 1.64,-0.29 4,-2.81 8.66,-7.78 5.72,-7.86 9.43,-20.1 16.12,-32.2 1.81,-3.27 3.86,-6.47 6.02,-9.51 -0.59,-6 0.32,-19.71 6.36,-32.96 -0.42,-1.26 -2.11,-3.12 -2.2,-3.48 -0.16,-0.65 1.27,1.07 2.49,2.82 0.34,-0.73 0.36,-0.77 -0.09,-1.44 -1.14,-1.73 -3.29,-3.6 -0.81,-2.76 0.23,0.07 1.16,1.08 1.68,1.86 0.16,-0.13 0.42,-0.5 0.31,-0.68 -0.65,-1.05 -1.25,-5.09 -0.47,-5.2 0.26,-0.04 0.53,1.5 1.07,3.15 0.45,1.38 1.24,2.69 1.63,3.53 0.14,0.3 0.41,1.26 0.22,1.37 -0.31,0.2 -1.23,-0.91 -2.13,-2.25 -0.12,0.24 -0.54,0.41 0.2,1.39 1.11,1.45 1.26,2.86 2.08,4.75 0.07,0.17 0.49,2.99 -3.02,-3.85 -0.09,0.22 -0.22,0.4 -0.35,0.83 0.1,0.42 0.64,0.94 1.12,2.61 0.04,0.12 0.25,1.57 -0.83,-0.75 -0.09,-0.18 -0.43,-1.01 -0.54,-1.09 -0.28,0.27 -0.48,5 -0.78,5.73 -1.17,2.89 -3.17,15.12 -2.05,21.25l0 0.01c6.06,-7.62 12.29,-13.62 15.92,-16.03z"/>
   <path class="fil0" d="M226.41 279.18c0.37,-1.14 0.28,-7.59 -1.07,-10.19 -1.83,-3.54 -4.75,-5.69 -5.85,-5.97 0.89,1.22 3.7,3.9 5.01,6.29 0.91,1.65 1.29,7.95 1.91,9.87z"/>
   <path class="fil0" d="M220.43 268.93c4.31,7.21 3.27,8.54 3.33,15.71 2.83,-8.23 -0.42,-13.89 -3.33,-15.71z"/>
   <path class="fil0" d="M331.68 259.34c1.01,0.08 1.94,1.84 2.56,3.74 1.1,3.32 1.57,7.07 1.89,3.02 0.24,-3.02 -0.6,-4.96 -1.44,-6.16 -2.48,-3.53 -6.78,-0.9 -3.01,-0.6z"/>
   <path class="fil0" d="M334.58 257.1c0.01,0.05 1.63,1.9 1.92,3.94 0.19,1.35 0.48,2.96 0.7,2.13 0.48,-1.9 -0.18,-5.51 -2.62,-6.07z"/>
   <path class="fil11" d="M330.53 268.64c2.76,-2.33 5.84,2.23 4.48,5.05 -2.16,4.5 -14.57,11.4 -14.62,11.17 3.24,-3.7 5.31,-5.73 6.76,-7.24 1.07,-1.12 1.58,-1.6 1.46,-2.33 0.92,-0.39 1.78,-1.15 1.14,-2.1 -0.07,-0.1 -0.21,-0.17 -0.4,-0.21 1.62,-1.62 -0.36,-3.04 1.18,-4.34z"/>
   <path class="fil0" d="M329.4 272.08c-3,-2 -9.8,1.76 -10.08,7.66 0.32,-0.27 1.17,-0.96 1.25,-1.64 0.36,-3.02 5.75,-5.27 8.01,-5.35 0.15,0 0.82,-0.41 0.82,-0.67zm-7.78 5.54l0.02 -0.02 0.09 -0.09 -0.11 0.11z"/>
   <path class="fil11" d="M265.64 248.77c-1.19,0.72 -2.97,3.39 -3.6,5.4 -1.08,3.46 0.48,10 0.59,10.49 0.36,-4.42 0.27,-6.55 0.61,-9.17 0.39,-2.97 1.96,-5.53 2.4,-6.72z"/>
   <path class="fil2" d="M284.99 250.75c-0.54,-0.13 -0.54,-4.04 -5.55,-5.44 -6.07,-1.7 -8.87,4.95 -9.55,5.61 -3.45,3.35 -4.66,10.21 -5.29,15.55 -0.56,4.67 -1.64,15.66 4.41,17.14 4.11,1 13.42,-5.15 18.52,-4.63 3.65,0.37 6.78,-1.12 9.54,-3.97 3.41,-3.52 6.62,-15.01 3.61,-18.8 -4.05,-5.1 -7.48,-5.9 -10.31,-5.79 -2.74,4.96 -4.96,7.89 -6.98,8.73 1.27,-0.86 3.28,-4.07 5.68,-8.63 -1.57,0.19 -2.93,0.5 -4.08,0.23z"/>
   <path class="fil0" d="M269.5 261.45c-2.44,-0.07 -4.17,5.49 -3.69,8.04 0.24,1.29 0.34,3.73 3.16,6.82 0,0 -3.35,-6.29 -2.33,-10.34 0.97,-3.87 2.89,-4.52 2.86,-4.52z"/>
   <path class="fil0" d="M272.38 261.75c-1.58,-0.06 -3.23,0.97 -4.02,2.45 -1.51,2.81 -1.16,6.51 0.1,9.36 0.26,0.58 2.37,4.69 2.02,2.92 -0.17,-0.81 -0.6,-2.05 -0.9,-2.84 -1.29,-3.54 -1.56,-6.79 -0.03,-9.28 0.47,-0.76 1.59,-1.75 2.61,-1.7 0.78,0.04 3.41,-0.4 4.38,-1.34 -1.29,-0.08 -3.01,0.47 -4.16,0.43z"/>
   <path class="fil0" d="M278.4 267.24c-1.53,0.06 -3.48,1.05 -3.65,2.63 -0.61,5.89 1.83,10.38 7.81,12.18 2.69,0.82 3.7,0.19 4.77,-2.69 2.2,-5.93 4.25,-8.53 5.2,-11.38 -1.05,1.24 -4.33,5.83 -6.21,3.87 -3.21,-3.37 1.84,-8.09 0.69,-10.85 -0.74,0.44 -2.39,2.91 -3.57,3.9 -0.37,0.31 -3.39,2.28 -5.04,2.34z"/>
   <path class="fil11" d="M301.17 228.03c0.87,-0.6 1.68,0.22 1.19,2.81 -0.38,2.03 -2.21,20.32 -3.36,23.46 -3.32,-3.4 -6.2,-3.98 -8.63,-3.88 2.89,-5.23 6.37,-12.71 10.8,-22.39z"/>
   <path class="fil11" d="M272.04 283.46c1.19,1.35 5.35,6.08 5.72,6.07 4.6,-0.19 10.42,-4.49 9.14,-4.64 -2.98,-0.36 -4.5,1.06 -7.39,1.34 -0.76,-0.86 -2.26,-3.06 -3.03,-4.21 -1.58,0.6 -3.1,1.13 -4.44,1.44z"/>
   <path class="fil0" d="M287.26 285.01c0.86,-0.32 1.96,-1.7 2.02,-2.75 -0.26,0.49 -1.86,2.9 -2.96,2.35 -0.44,-0.22 -0.11,0.8 0.94,0.4z"/>
   <path class="fil11" d="M302.38 186.84c0.19,-0.47 1.56,-5.16 2.79,-9.72 1.57,-5.86 3.45,-9.87 3.38,-10 -0.49,-0.97 -2.84,4.11 -4.58,9.55 -1.96,6.12 -2.64,12.79 -1.59,10.17z"/>
   <path class="fil11" d="M299.07 186.41c0.05,0.57 0.41,2.54 0.82,1.27 1.29,-4.05 4.01,-16.63 6.15,-20.61 0.79,-1.47 1.38,-1.8 1.27,-1.92 -2.14,-2.43 -8.62,16.75 -8.24,21.26z"/>
   <path class="fil11" d="M277.12 186.35c0.66,0.38 3.12,-6.41 4.76,-12.9 1.51,-5.97 2.22,-12 1.2,-12.16 -0.43,-0.06 -0.25,1.59 -0.65,3.94 -0.35,2.04 -1.18,4.63 -1.83,7.24 -1.65,6.56 -4.04,13.56 -3.48,13.88z"/>
   <path class="fil11" d="M278.16 161.93c0,2.84 0.01,6.92 -0.99,11.62 -1.36,6.42 -3.15,9.78 -2.81,11.78 0.61,-1.5 2.82,-8.69 3.48,-12.14 1.22,-6.41 0.32,-11.27 0.32,-11.26z"/>
   <path class="fil11" d="M275.31 164.76c1.26,7.2 0.02,15.02 -2.02,18.73 -0.54,-0.7 0.24,-4.25 0.75,-8.18 0.41,-3.23 0.59,-6.73 0.15,-9.14l-0.02 -0.08c0.41,-0.49 0.79,-0.97 1.14,-1.41l0 0.08z"/>
   <path class="fil0" d="M256.34 140.34c-2.74,-1.72 3.17,8.08 5.15,9.14 -0.82,1 -3.08,1.57 -5.3,1.71 -2.1,0.13 -4.18,-0.13 -4.98,0.16 3.39,1.83 8.11,1.5 9.61,0.44 0,-0.01 -0.21,0.66 -0.89,1.28 -1.54,1.39 -5.79,1.31 -7.49,1.47 5.41,1.17 6.42,0.46 7.91,-0.31 0.07,0.16 -0.75,3.3 0.11,5.61 0.26,0.69 0.78,1.61 1.4,2.53 0.1,0.15 0.28,0.31 0.41,0.03 -0.02,0.53 1.21,2.28 1.84,2.85 1.51,1.38 3.08,2.21 0.26,-0.96 0.83,-0.36 -0.77,-1.34 -0.75,-1.98 0.6,-0.04 0.59,0.49 1.17,0.96 0.56,0.45 1.93,0.15 2.68,0.58 0,0.53 0.02,1.03 0.06,1.43 0.14,1.15 0.36,3.27 0.35,5.36 -0.03,2.94 -0.33,5.81 -0.25,5.87 1.15,0.87 1.75,-11.01 1.88,-11.33 0.04,-0.09 -0.29,-5.83 -0.44,-6.28 -0.2,-1.7 -0.61,-3.41 -1.08,-4.73 -0.43,-1.22 -1.64,-3.47 -2.3,-4.37 -0.66,-0.9 -1.19,-0.69 -1.62,-1.36 -0.24,-0.37 -0.63,-0.51 -0.98,-0.51 -0.72,0.02 -0.16,0.33 -0.29,0.56 -0.17,0.3 -0.59,0.67 -1.02,0.73 -0.99,-2.58 -3.78,-5.63 -3.67,-6.05 0.43,0.09 1.57,2.09 2.27,2.19 -0.19,-0.3 -2.97,-3.96 -2.97,-4.41 0,-0.88 -0.06,-2.76 0.09,-3.56 0.93,-1.2 0.27,-1.18 -0.56,-0.76 -0.71,0.36 -1.01,1.01 -0.6,3.71z"/>
   <path class="fil8" d="M262.1 151.75c-0.36,3.02 2.23,2.7 2.42,1.1 0.31,-2.57 -2.21,-2.79 -2.42,-1.1z"/>
   <path class="fil4" d="M260.91 155.59c0.01,1.1 1.21,1.35 1.5,0.4 0.53,-1.75 -1.51,-1.96 -1.5,-0.4z"/>
   <path class="fil4" d="M265.03 158.62c-0.58,0.65 -1.68,0.1 -2.38,0.57 -0.2,0.13 0.17,0.44 0.36,0.72 0.42,0.61 0.63,1.54 1.82,1.58 1.42,0.05 2.58,-1.45 2.68,-2.77 0.07,-0.83 -0.07,-1.02 -0.25,-1.82 -0.09,-0.43 -0.11,-1.41 -0.45,-1.43 -0.27,-0.02 -1.34,2.65 -1.78,3.15z"/>
   <path class="fil8" d="M266.07 157.6c0.32,-0.23 -0.01,-0.74 -0.34,-0.48 -0.33,0.27 0.03,0.7 0.34,0.48z"/>
   <path class="fil2" d="M266.19 132.87c4.22,2.33 6.2,2.51 9.21,6.09 8.09,9.61 3.18,20.82 1.42,23.72 -0.44,0.73 -6.24,8.2 -7.86,8.53l0.02 -0.14 0 -0.05 0.01 -0.08 0.01 -0.14 0.01 -0.05 0.01 -0.08 0.01 -0.14 0.01 -0.05 0 -0.08 0.02 -0.14 0 -0.06 0.01 -0.07 0.01 -0.13 0.01 -0.07 0 -0.07 0.02 -0.13 0 -0.06 0.01 -0.07 0.01 -0.13 0.01 -0.07 0 -0.06 0.02 -0.13 0 -0.07 0.01 -0.06 0.01 -0.13 0 -0.07 0.01 -0.06 0.01 -0.13 0.01 -0.07 0 -0.05 0.01 -0.12 0.01 -0.08 0 -0.05 0.01 -0.12 0.01 -0.07 0 -0.05 0.01 -0.12 0.01 -0.07 0 -0.05 0.01 -0.11 0.01 -0.08 0 -0.03 0.01 -0.12 0 -0.07 0.01 -0.04 0.01 -0.11 0 -0.07 0.01 -0.03 0 -0.11 0.01 -0.07 0.01 -0.13 0.01 -0.07 0 -0.03 0.01 -0.1 0 -0.07 0 -0.02 0.01 -0.09 0.01 -0.07 0 -0.02 0 -0.09 0.01 -0.06 0 -0.02 0.01 -0.08 0 -0.06 0 -0.02 0.01 -0.07 0.01 -0.06 0 -0.02 0 -0.07 0.01 -0.05 0 -0.01 0.01 -0.07 0 -0.05 0 -0.01 0.01 -0.05 0 -0.05 0 -0.01 0.01 -0.05 0 -0.04 0 -0.01 0.01 -0.04 0 -0.04 0 0 0 -0.04 0.01 -0.03 0 0 0 -0.03 0.01 -0.02 0 -0.01 0 -0.02 0 -0.01 0.01 -0.03c0.04,-0.09 -0.29,-5.83 -0.44,-6.28 -0.2,-1.7 -0.61,-3.41 -1.08,-4.73 -0.43,-1.22 -1.64,-3.47 -2.3,-4.37 -0.66,-0.9 -1.19,-0.69 -1.62,-1.36l-0.01 -0.02 0 0 -0.01 -0.01 0 0 -0.01 -0.02 0 0 -0.01 -0.01 -0.01 -0.01 -0.01 -0.01 0 0 -0.01 -0.01 0 -0.01 -0.01 -0.01 0 0 -0.01 -0.01 -0.01 -0.01 0 -0.01 -0.01 0 -0.01 -0.01 0 -0.01 -0.01 -0.01 -0.01 0 0 -0.01 -0.01 -0.01 0 0 -0.01 -0.01 -0.01 0 -0.01 -0.01 0 -0.01 -0.01 0 0 -0.01 -0.02 -0.01 0 0 -0.01 -0.01 0 0 -0.01 -0.01 -0.01 0 -0.01 -0.01 -0.01 -0.01 -0.02 -0.02 0 0 -0.01 -0.01 0 0 -0.02 0 0 -0.01 -0.01 -0.01 0 0 -0.01 0 -0.01 -0.01 -0.01 0 0 -0.01 -0.02 0 0 -0.01 -0.01 0 -0.01 0 0 0 0 -0.01 -0.01 0 -0.01 -0.01 -0.01 0 0 0c-1.46,-3.3 -4.79,-4.71 -6.08,-6.73l-0.01 -0.02 -0.01 -0.01 -0.01 -0.02 -0.01 -0.02 0 0 -0.01 -0.01 -0.01 -0.02 0 -0.01 -0.01 -0.02 0 0 -0.01 -0.01 -0.01 -0.02 0 -0.01 0 0 -0.01 -0.01 -0.01 -0.02 0 -0.01 -0.01 -0.01 0 0 0 -0.01 -0.01 -0.02 0 -0.01 -0.01 -0.01 0 -0.01 0 -0.01 -0.01 -0.01 0 0 0 -0.01 0 0 0 -0.01 -0.01 -0.01 0 0 0 -0.01 0 0 0 0 0 -0.01 0 -0.01 0 0 0 -0.01 0 0 0 -0.01c0,-0.88 -0.06,-2.76 0.09,-3.56l0.04 -0.04 0.01 -0.01 0.02 -0.04 0.02 -0.02 0.01 -0.02 0.03 -0.03 0 -0.01 0.03 -0.04 0 0 0.03 -0.04 0 -0.01 0.03 -0.03 0 -0.02 0.02 -0.02 0.01 -0.02 0.02 -0.02 0.01 -0.02 0.01 -0.01 0.02 -0.04 0 0 0.02 -0.03 0 -0.01 0.01 -0.02 0.01 -0.01 0.01 -0.02 0.01 -0.02 0 -0.01 0.02 -0.03 0 0 0.01 -0.03 0 0 0.01 -0.03 0 0 0.01 -0.02 0.01 -0.02 0 -0.01 0.01 -0.01 0 -0.01 0 -0.02 0 0 0.01 -0.02 0 -0.01 0 -0.02 0 0 0.01 -0.02 0 0 0 -0.01 0 -0.01 0 -0.01 0 0 0 -0.02 0 0 0 -0.02 -0.01 0 0 -0.01 0 -0.01 0 -0.01 0 -0.01 -0.01 0 0 0 0 -0.01 0 0 -0.01 -0.01 0 0 -0.01 -0.02 0 0 -0.01 -0.01 0 0 0 0 -0.01 -0.01 -0.01 0 -0.01 -0.01 -0.01 -0.01 0 0 -0.01 0 -0.01 -0.01 0 0 -0.01 0 -0.01 0 -0.01 -0.01 -0.01 0 -0.01 0 0 0 -0.02 0 0 0 -0.02 0 -0.01 0 0 0 -0.02 0 0 0 -0.04 0 -0.01 0 -0.02 0 0 0 -0.02 0 -0.01 0.01 -0.01 0 -0.02 0 0 0 -0.03 0.01 0 0 -0.02 0 -0.01 0 -0.02 0.01 -0.01 0 -0.01 0 -0.02 0.01 -0.01 0 -0.02 0.01 0 0 -0.03 0.01 0 0 -0.03 0 -0.01 0.01 -0.01 0c0.16,-0.29 0.37,-0.64 0.71,-0.93 0.39,0.12 1,0.15 1.86,0.05 4.57,-0.53 5.18,-1.43 6.25,-2.69z"/>
   <path class="fil13" d="M275.31 176.16l0 -0.01c-0.28,0.29 -0.57,0.6 -0.85,0.94 8.18,-5.39 13.95,0.68 19,5.77 2.78,2.81 12.27,12.14 20.58,21.46 14.08,15.77 25.47,15.37 28.63,15.65 12.65,1.12 29.46,-9.54 39.16,-20.69 8.23,-9.46 11.65,-21.66 12.57,-24.08 3.15,-8.26 4.39,-27.46 4.49,-27.72 2.17,-0.98 3.3,-0.78 5.88,-1.78 -0.37,-3.07 -0.04,-2.82 -0.35,-5.6 -1.7,0 -6.75,1.27 -8.07,0.92 -45.46,-12.1 -76.21,-5.51 -106.69,4.78 -18.87,-14.54 -39.1,-18.22 -53.34,-17.35 -3.9,0.24 -13.89,0.43 -16.29,1.02 -0.15,1.9 -0.23,4.31 -0.18,6.08 1.28,0.32 2.9,0.41 4.27,0.65 -0.49,4.76 1.75,23.52 4.12,31.06 3.82,12.16 7.21,25.16 24.54,33.18 -0.07,-0.03 0.83,-1.06 0.58,-1.18 -15.18,-7.46 -20.46,-21.31 -23.78,-32.44 -2.41,-8.11 -4.15,-28.28 -4.24,-32.56 -1.26,-0.21 -2.5,-0.46 -3.84,-0.51 0.01,-1.19 -0.13,-1.9 -0.29,-3.07 2.39,-0.39 11.85,-0.78 17.14,-1.2 11.06,-0.88 33.83,4.2 50.94,17.76 17.16,-6.16 39.08,-11.14 62.23,-11.14 14.68,-0.01 29.86,2.24 44.62,6.64 1.19,0.36 4.59,-1.04 6.15,-1.04 0.24,1.44 0.46,1.88 0.86,3.06 -2.21,0.65 -4.26,0.84 -6.24,1.57 0.37,6.03 -1.19,23.19 -5.28,32.43 -4.83,10.92 -8.48,17.72 -16.96,24.99 -10.57,9.06 -18.95,14.16 -32.38,14.64 -4.65,0.17 -17.33,-3.71 -30.21,-18.13 -7.59,-8.52 -16.16,-17.2 -18.91,-19.54 -4.83,-4.11 -9.24,-7.43 -13.32,-6.96 5.6,-1.48 10.55,2.4 14.36,6.1 2.67,2.58 12.99,13.19 20.93,21.75 13.46,14.52 24.08,15.46 27.1,15.72 12.1,1.03 28.37,-9.06 37.09,-19.88 10.94,-13.56 16.86,-36.15 15.91,-52.79 -16.1,-4.64 -33.32,-7.26 -46.63,-7.17 -22.18,0.14 -41.03,5.71 -59.24,11.63 -16.93,-13.31 -39.94,-22.53 -62.06,-16.46 -0.25,9.17 -0.66,21.02 4.01,35.33 3.65,11.19 8.73,25.21 23.02,30.02 -0.07,-0.02 0.9,-1.16 0.64,-1.22 -12.31,-2.77 -19.19,-18.96 -22.37,-29.22 -3.11,-10.03 -5.22,-26.64 -3.7,-33.13 15.03,-6.46 42.49,1.38 60.33,16.23 20.46,-7.06 40.18,-11.76 60.2,-11.88 14.09,-0.08 29.69,3.12 44.45,7.46 0.53,10.78 -1.93,25.23 -7.65,37.16 -3.56,7.42 -8.37,14.69 -13.92,19.27 -10.1,8.33 -19.24,12.38 -29.06,13.4 -6.07,0.62 -17.68,-4.93 -29.99,-18.2 -7.26,-7.83 -16.57,-17.96 -19.2,-20.12 -6.74,-5.52 -12.48,-8.55 -18.76,-1.6z"/>
   <path class="fil0" d="M270.12 141.13c-1.63,-2.79 -4.3,-4.63 -9.03,-2.3 -0.73,0.03 -2.1,0.41 -2.13,0.97 0.23,0.23 4.18,0.15 4.75,0.19 2.26,0.16 5.04,2.38 6.46,5.71 0.79,1.86 1.57,4.79 1.44,3.48 -0.02,-0.23 -0.53,-3.01 -0.64,-3.8 -0.16,-1.21 -0.76,-2.27 -0.75,-2.57 0.66,0.36 1.64,3.67 1.99,6.07 0.2,1.41 0.11,5.25 0.31,5.98 0.36,0.48 0.93,-4.57 -0.15,-8.94 -0.37,-1.52 -1.27,-3.13 -2.25,-4.79zm-1.35 -0.1c-0.82,-0.61 -1.04,-1.05 -2.5,-1.68 -1.04,-0.45 -2.27,-0.53 -2.74,-0.66 1.38,-0.2 2.3,-0.33 3.09,0.01 0.59,0.24 1.91,1.21 2.15,2.33z"/>
   <path class="fil0" d="M271.78 159.97c-0.61,1.55 0.38,5.89 -0.48,11.01 -1.01,5.97 -2.86,12.77 -2.74,12.56 1.22,-2.17 5.6,-14.02 3.22,-23.57z"/>
   <path class="fil2" d="M260.41 170.47c1.68,2.38 4.95,10.64 4.06,15.31l0 0c-2.77,2.75 -5.84,6.16 -8.87,9.97l0 -0.01c-1.12,-6.13 0.88,-18.36 2.05,-21.25 0.3,-0.73 0.5,-5.46 0.78,-5.73 0.11,0.08 0.45,0.91 0.54,1.09 1.08,2.32 0.87,0.87 0.83,0.75 -0.48,-1.67 -1.02,-2.19 -1.12,-2.61 0.13,-0.43 0.26,-0.61 0.35,-0.83 0.41,0.8 0.77,1.47 1.07,2.02 -0.13,0.46 -0.15,0.66 0.31,1.29z"/>
   <path class="fil11" d="M262.77 166.31c-0.58,-1.26 -1.77,-3.42 -1.3,-4.54 0.13,0.2 0.26,0.4 0.39,0.6 0.1,0.15 0.28,0.31 0.41,0.03 -0.02,0.53 1.21,2.28 1.84,2.85 1.51,1.38 3.08,2.21 0.26,-0.96 0.83,-0.36 -0.77,-1.34 -0.75,-1.98 0.6,-0.04 0.59,0.49 1.17,0.96 0.56,0.45 1.93,0.15 2.68,0.58 0,0.53 0.02,1.03 0.06,1.43 0.14,1.15 0.36,3.27 0.35,5.36 -0.03,2.94 -0.33,5.81 -0.25,5.87 0.58,0.45 1.02,-2.37 1.33,-5.3 0.54,-0.11 1.56,-1.03 2.69,-2.23 0.03,0.95 0.02,2.83 -0.03,3.14 -0.32,1.89 -0.58,3.11 -1.09,4.7 -0.34,1.07 -0.45,3.1 -1.25,4.57l-0.06 0.05 -0.01 0.01 -0.06 0.05 -0.07 0.06 -0.07 0.05 0 0.01 -0.06 0.05 -0.07 0.06 -0.07 0.05 -0.02 0.02 -0.05 0.04 -0.07 0.06 -0.07 0.06 -0.03 0.02 -0.04 0.04 -0.07 0.06 -0.07 0.06 -0.04 0.03 -0.03 0.03 -0.07 0.06 -0.07 0.06 -0.05 0.05 -0.02 0.01 -0.08 0.07 -0.07 0.06 -0.06 0.05 -0.01 0.01 -0.07 0.07 -0.08 0.06 -0.07 0.06 0 0.01 -0.07 0.06 -0.15 0.13 -0.01 0.01 -0.06 0.06 -0.08 0.06 -0.07 0.07 -0.03 0.02 -0.05 0.05 -0.07 0.07 -0.08 0.07 -0.03 0.03 -0.12 0.1 -0.07 0.07 -0.05 0.05 -0.03 0.02 -0.08 0.07 -0.07 0.08 -0.07 0.05 -0.01 0.02 -0.08 0.07 -0.08 0.07 -0.07 0.07 0 0 -0.08 0.08 -0.08 0.07 -0.08 0.08 -0.01 0 -0.07 0.07 -0.08 0.07 -0.07 0.08 -0.03 0.02 -0.05 0.06 -0.08 0.07 -0.08 0.08 -0.04 0.03 -0.04 0.04 -0.08 0.08 -0.08 0.08 -0.05 0.04 -0.03 0.04 -0.08 0.08 -0.08 0.08 -0.06 0.05 -0.03 0.02 -0.08 0.08 -0.08 0.08 -0.07 0.07 -0.01 0.01 -0.08 0.09 -0.08 0.08 -0.09 0.08 0 0c0.89,-4.67 -2.38,-12.93 -4.06,-15.31 -0.46,-0.63 -0.44,-0.83 -0.31,-1.29l0.07 0.12 0.04 0.07 0.08 0.14 0.03 0.05 0.08 0.15 0.02 0.02 0.09 0.17 0 0 0.1 0.15 0.01 0.02 0.08 0.13 0.02 0.04 0.27 0.43 0.03 0.04 0.13 0.21 0.01 0 0.07 0.1 0 0c0.12,0.18 0.22,0.31 0.32,0.41l0.01 0.02 0.04 0.04 0.01 0.01 0.04 0.04 0 0 0.04 0.05 0 0 0.04 0.03 0.01 0.01 0.03 0.02 0.01 0.01 0.02 0.01 0.01 0.01 0.02 0.01 0.02 0.01c0.3,0.17 0.27,-0.34 0.22,-0.58l0 -0.02 0 -0.01 0 -0.01 -0.01 -0.01 0 -0.01 0 -0.01 0 0 -0.01 -0.02 0 0 0 -0.01 0 0 0 -0.01c-0.82,-1.89 -0.97,-3.3 -2.08,-4.75 -0.74,-0.98 -0.32,-1.15 -0.2,-1.39 0.9,1.34 1.82,2.45 2.13,2.25 0.19,-0.11 -0.08,-1.07 -0.22,-1.37l-0.01 -0.02 0 -0.01 -0.01 -0.01 0 -0.01 -0.01 -0.01 -0.01 -0.02 0 0 0 -0.01 -0.01 -0.02 -0.01 -0.01 0 0 0 -0.02 -0.01 -0.01 -0.01 -0.01 0 -0.01 -0.01 -0.01 0 -0.02 -0.01 -0.01 0 0 -0.01 -0.02 -0.01 -0.02 0 0 -0.01 -0.01 0 -0.02 -0.01 -0.01 0 -0.01 -0.01 -0.01 -0.01 -0.02 0 -0.01 -0.01 0 -0.01 -0.02 0 -0.02 -0.01 0 0 -0.01 -0.01 -0.02 -0.01 -0.02 0 0 -0.01 -0.02 -0.01 -0.01 0 -0.01 -0.01 -0.01 0 -0.02 -0.01 -0.01 -0.01 -0.01 0 -0.01 -0.01 -0.02 -0.01 -0.02 -0.01 -0.02 -0.01 -0.01 -0.01 -0.01 0 -0.01 -0.01 -0.02 -0.01 -0.02 0 0 -0.01 -0.01 -0.01 -0.02 0 -0.02 -0.01 0 0 -0.02 -0.01 -0.02 -0.01 -0.01 0 -0.01 -0.01 -0.01 -0.01 -0.02 -0.01 -0.01 0 -0.01 -0.01 -0.02 -0.01 -0.02 0 0 -0.01 -0.02 -0.01 -0.02 -0.01 -0.01 0 -0.01 -0.01 -0.01 -0.01 -0.02 -0.01 -0.01 0 -0.01 -0.01 -0.02 -0.01 -0.02 0 -0.01 -0.01 -0.01 -0.01 -0.02 -0.01 -0.02 0 0 -0.01 -0.02 -0.01 -0.02c0.54,0.4 1.13,1.04 1.65,1.67z"/>
   <path class="fil6" d="M394.92 20.68c4.59,2.71 9.04,5.67 13.31,8.85 24.26,18.06 43.07,43.44 52.8,73.46l-20.1 0c-8.94,-23.66 -24.43,-43.69 -43.98,-58.24 -1,-0.74 -2,-1.47 -3.02,-2.18l0 -21.89 0.99 0z"/>
  </g>
 </g>
</svg>
