<?xml version="1.0" encoding="UTF-8" standalone="no" ?>
<!DOCTYPE svg PUBLIC "-//W3C//DTD SVG 1.1//EN" "http://www.w3.org/Graphics/SVG/1.1/DTD/svg11.dtd">
<svg xmlns="http://www.w3.org/2000/svg" xmlns:xlink="http://www.w3.org/1999/xlink" version="1.1" width="50" height="100" viewBox="0 0 50 100" xml:space="preserve">
<desc>Created with Fabric.js 4.2.0</desc>
<defs>
</defs>
<g transform="matrix(1 0 0 1 25 50)" id="db50b03a-ceee-4739-b6e6-57c368b52010"  >
<rect style="stroke: none; stroke-width: 1; stroke-dasharray: none; stroke-linecap: butt; stroke-dashoffset: 0; stroke-linejoin: miter; stroke-miterlimit: 4; fill: rgb(255,255,255); fill-opacity: 0; fill-rule: nonzero; opacity: 1;" vector-effect="non-scaling-stroke"  x="-25" y="-50" rx="0" ry="0" width="50" height="100" />
</g>
<g transform="matrix(0 0 0 0 0 0)" id="47a33e37-b5a6-49e1-874d-0d6178c809c8"  >
</g>
<g transform="matrix(1 0 0 1 17 22.4)"  >
<path style="stroke: rgb(214,4,4); stroke-width: 5.5; stroke-dasharray: none; stroke-linecap: round; stroke-dashoffset: 0; stroke-linejoin: round; stroke-miterlimit: 10; fill: none; fill-rule: nonzero; opacity: 1;" vector-effect="non-scaling-stroke"  transform=" translate(-17, -22.4)" d="M 14.5 16.90075 Q 14.5 16.90625 14 18.40625 Q 13.5 19.90625 13.5 21.40625 Q 13.5 22.90625 13 23.40625 Q 12.5 23.90625 12.5 24.90625 Q 12.5 25.90625 12.5 26.40625 Q 12.5 26.90625 13 27.40625 Q 13.5 27.90625 14 27.90625 Q 14.5 27.90625 15 27.90625 Q 15.5 27.90625 16 27.90625 Q 16.5 27.90625 17 27.90625 Q 17.5 27.90625 18 27.90625 Q 18.5 27.90625 19 27.90625 Q 19.5 27.90625 20 27.90625 Q 20.5 27.90625 21 27.90625 L 21.5055 27.90625" stroke-linecap="round" />
</g>
<g transform="matrix(1 0 0 1 42.49 18.91)"  >
<path style="stroke: rgb(214,4,4); stroke-width: 5.5; stroke-dasharray: none; stroke-linecap: round; stroke-dashoffset: 0; stroke-linejoin: round; stroke-miterlimit: 10; fill: none; fill-rule: nonzero; opacity: 1;" vector-effect="non-scaling-stroke"  transform=" translate(-42.5, -18.91)" d="M 36.5 18.90075 Q 36.5 18.90625 36.5 19.40625 Q 36.5 19.90625 36.5 20.90625 Q 36.5 21.90625 36.5 22.40625 Q 36.5 22.90625 36 23.40625 Q 35.5 23.90625 36 23.90625 Q 36.5 23.90625 37 23.90625 Q 37.5 23.90625 38 23.90625 Q 38.5 23.90625 39 24.40625 Q 39.5 24.90625 40 24.90625 Q 40.5 24.90625 41 24.90625 Q 41.5 24.90625 42.5 25.40625 Q 43.5 25.90625 44 25.90625 Q 44.5 25.90625 45 25.90625 Q 45.5 25.90625 46.5 24.90625 Q 47.5 23.90625 48 22.90625 Q 48.5 21.90625 48.5 20.90625 Q 48.5 19.90625 49 19.90625 Q 49.5 19.90625 49.5 19.40625 Q 49.5 18.90625 49.5 17.90625 Q 49.5 16.90625 49 15.90625 Q 48.5 14.90625 48.5 13.90625 Q 48.5 12.90625 47.5 12.40625 Q 46.5 11.90625 46 11.90625 Q 45.5 11.90625 45 11.90625 Q 44.5 11.90625 43.5 11.90625 Q 42.5 11.90625 42 11.90625 Q 41.5 11.90625 41 12.40625 Q 40.5 12.90625 40 13.40625 Q 39.5 13.90625 39 13.90625 Q 38.5 13.90625 38 14.40625 Q 37.5 14.90625 37 14.90625 Q 36.5 14.90625 36 14.90625 L 35.4945 14.90625" stroke-linecap="round" />
</g>
<g transform="matrix(1 0 0 1 21 51.91)"  >
<path style="stroke: rgb(214,4,4); stroke-width: 5.5; stroke-dasharray: none; stroke-linecap: round; stroke-dashoffset: 0; stroke-linejoin: round; stroke-miterlimit: 10; fill: none; fill-rule: nonzero; opacity: 1;" vector-effect="non-scaling-stroke"  transform=" translate(-21, -51.91)" d="M 19.5055 43.90625 Q 19.5 43.90625 19 43.90625 Q 18.5 43.90625 18 43.90625 Q 17.5 43.90625 17.5 44.40625 Q 17.5 44.90625 17 44.90625 Q 16.5 44.90625 16 44.90625 Q 15.5 44.90625 15 44.90625 Q 14.5 44.90625 14 44.90625 Q 13.5 44.90625 12.5 45.40625 Q 11.5 45.90625 11.5 46.40625 Q 11.5 46.90625 11.5 48.40625 Q 11.5 49.90625 11.5 50.90625 Q 11.5 51.90625 11.5 52.90625 Q 11.5 53.90625 11.5 54.40625 Q 11.5 54.90625 12 55.40625 Q 12.5 55.90625 13 56.90625 Q 13.5 57.90625 14 58.40625 Q 14.5 58.90625 15 58.90625 Q 15.5 58.90625 16 59.40625 Q 16.5 59.90625 17 59.90625 Q 17.5 59.90625 18.5 59.90625 Q 19.5 59.90625 20.5 59.90625 Q 21.5 59.90625 22 59.90625 Q 22.5 59.90625 24 59.40625 Q 25.5 58.90625 27 58.40625 Q 28.5 57.90625 29 57.90625 Q 29.5 57.90625 30 57.40625 Q 30.5 56.90625 30.5 56.40625 Q 30.5 55.90625 30 55.40625 Q 29.5 54.90625 29 54.40625 Q 28.5 53.90625 27.5 53.40625 Q 26.5 52.90625 26 52.90625 Q 25.5 52.90625 25 52.40625 Q 24.5 51.90625 24 51.90625 Q 23.5 51.90625 23 51.90625 L 22.4945 51.90625" stroke-linecap="round" />
</g>
<g transform="matrix(1 0 0 1 48.13 58.38)"  >
<path style="stroke: rgb(214,4,4); stroke-width: 5.5; stroke-dasharray: none; stroke-linecap: round; stroke-dashoffset: 0; stroke-linejoin: round; stroke-miterlimit: 10; fill: none; fill-rule: nonzero; opacity: 1;" vector-effect="non-scaling-stroke"  transform=" translate(-48.13, -58.38)" d="M 39.375000000000014 45.24840625000004 Q 39.375000000000014 45.253906250000036 39.375000000000014 46.503906250000036 Q 39.375000000000014 47.753906250000036 39.375000000000014 49.628906250000036 Q 39.375000000000014 51.503906250000036 38.750000000000014 54.628906250000036 Q 38.125000000000014 57.753906250000036 38.125000000000014 60.253906250000036 Q 38.125000000000014 62.753906250000036 37.500000000000014 65.25390625000003 Q 36.875000000000014 67.75390625000003 36.875000000000014 69.00390625000003 Q 36.875000000000014 70.25390625000003 36.875000000000014 70.87890625000003 Q 36.875000000000014 71.50390625000003 38.125000000000014 72.12890625000003 Q 39.375000000000014 72.75390625000003 40.000000000000014 73.37890625000003 Q 40.625000000000014 74.00390625000003 41.875000000000014 75.25390625000003 Q 43.125000000000014 76.50390625000003 44.375000000000014 76.50390625000003 Q 45.625000000000014 76.50390625000003 46.875000000000014 76.50390625000003 Q 48.125000000000014 76.50390625000003 50.000000000000014 75.87890625000003 Q 51.875000000000014 75.25390625000003 53.125000000000014 74.00390625000003 Q 54.375000000000014 72.75390625000003 55.625000000000014 70.87890625000003 Q 56.875000000000014 69.00390625000003 57.500000000000014 68.37890625000003 Q 58.125000000000014 67.75390625000003 58.750000000000014 66.50390625000003 Q 59.375000000000014 65.25390625000003 59.375000000000014 64.00390625000003 Q 59.375000000000014 62.753906250000036 59.375000000000014 61.503906250000036 Q 59.375000000000014 60.253906250000036 58.750000000000014 57.753906250000036 Q 58.125000000000014 55.253906250000036 56.875000000000014 54.003906250000036 Q 55.625000000000014 52.753906250000036 55.000000000000014 51.503906250000036 Q 54.375000000000014 50.253906250000036 53.750000000000014 49.003906250000036 Q 53.125000000000014 47.753906250000036 51.875000000000014 46.503906250000036 Q 50.625000000000014 45.253906250000036 50.000000000000014 44.628906250000036 Q 49.375000000000014 44.003906250000036 48.125000000000014 43.378906250000036 Q 46.875000000000014 42.753906250000036 46.250000000000014 42.753906250000036 Q 45.625000000000014 42.753906250000036 45.625000000000014 42.128906250000036 Q 45.625000000000014 41.503906250000036 45.000000000000014 40.878906250000036 Q 44.375000000000014 40.253906250000036 43.750000000000014 40.253906250000036 Q 43.125000000000014 40.253906250000036 41.875000000000014 40.253906250000036 Q 40.625000000000014 40.253906250000036 40.000000000000014 40.253906250000036 Q 39.375000000000014 40.253906250000036 39.375000000000014 40.878906250000036 L 39.375000000000014 41.50940625000003" stroke-linecap="round" />
</g>
<g transform="matrix(0.71 -0.71 0.71 0.71 25 85.67)"  >
<path style="stroke: rgb(214,4,4); stroke-width: 5.5; stroke-dasharray: none; stroke-linecap: round; stroke-dashoffset: 0; stroke-linejoin: round; stroke-miterlimit: 10; fill: none; fill-rule: nonzero; opacity: 1;" vector-effect="non-scaling-stroke"  transform=" translate(-10.63, -74)" d="M 10.619500000000018 74.00390625000003 L 10.630500000000017 74.00390625000003" stroke-linecap="round" />
</g>
<g transform="matrix(1 0 0 1 29.38 84)"  >
<path style="stroke: rgb(214,4,4); stroke-width: 5.5; stroke-dasharray: none; stroke-linecap: round; stroke-dashoffset: 0; stroke-linejoin: round; stroke-miterlimit: 10; fill: none; fill-rule: nonzero; opacity: 1;" vector-effect="non-scaling-stroke"  transform=" translate(-29.38, -84)" d="M 29.369500000000016 84.00390625000003 L 29.38050000000002 84.00390625000003" stroke-linecap="round" />
</g>
<g transform="matrix(1 0 0 1 19.17 110.34)"  >
<path style="stroke: rgb(214,4,4); stroke-width: 30; stroke-dasharray: none; stroke-linecap: round; stroke-dashoffset: 0; stroke-linejoin: round; stroke-miterlimit: 10; fill: none; fill-rule: nonzero; opacity: 1;" vector-effect="non-scaling-stroke"  transform=" translate(-19.17, -110.34)" d="M 10.803333333333361 110.33854166666673 Q 10.83333333333336 110.33854166666673 12.500000000000028 110.33854166666673 Q 14.166666666666696 110.33854166666673 15.00000000000003 110.33854166666673 Q 15.833333333333364 110.33854166666673 17.50000000000003 110.33854166666673 Q 19.166666666666693 110.33854166666673 20.83333333333336 110.33854166666673 Q 22.50000000000003 110.33854166666673 23.33333333333336 110.33854166666673 Q 24.166666666666693 110.33854166666673 25.000000000000025 110.33854166666673 Q 25.833333333333357 110.33854166666673 26.666666666666693 110.33854166666673 L 27.53000000000003 110.33854166666673" stroke-linecap="round" />
</g>
</svg>