<svg width="912.92081" height="680.22808" xmlns="http://www.w3.org/2000/svg" data-name="Layer 1">
 <title>delivery_address</title>

 <g>
  <title>Layer 1</title>
  <rect id="svg_1" fill="#3f3d56" height="2.36139" width="556.10756" y="641.27035" x="102.00233"/>
  <path id="svg_2" fill="#ffb9b9" d="m396.91698,316.37544s-11.802,53.109 11.802,43.66742s9.44161,-46.02782 9.44161,-46.02782l-21.24361,2.3604z"/>
  <path id="svg_3" fill="#ffb9b9" d="m617.61449,334.07845s28.32482,34.22581 10.62181,41.307s-27.14462,-31.86542 -24.78422,-35.406s14.16241,-5.901 14.16241,-5.901z"/>
  <circle id="svg_4" fill="#ffb9b9" r="35.40602" cy="56.7313" cx="550.34306"/>
  <polygon id="svg_5" fill="#ffb9b9" points="523.789 70.304 519.068 106.89 558.014 121.052 566.276 79.745 523.789 70.304"/>
  <path id="svg_6" fill="#e52424" d="m545.62225,106.29973s-20.00721,-9.87712 -24.166,-17.92077l-8.8796,8.47916s-63.73084,-5.901 -73.17244,25.96442s-1.1802,147.52507 -1.1802,147.52507s-12.98221,51.92883 -9.44161,53.109s47.208,22.42381 108.57846,10.62181c0,0 27.14461,-4.72081 31.86542,-1.18021s-2.3604,-56.64962 -2.3604,-56.64962s47.208,-106.21806 38.94662,-119.20027s-44.84763,-40.12682 -44.84763,-40.12682l2.3604,-12.9822s-16.52282,7.08123 -17.70302,2.36043z"/>
  <path id="svg_7" fill="#cfcce0" d="m448.8458,114.56113s-21.24361,10.62181 -24.78421,27.14462s-36.58619,153.42608 -33.04562,161.68748s2.36043,18.88321 2.36043,18.88321l30.68521,-3.5406s-5.901,-8.26141 -2.3604,-11.802s7.0812,-15.34261 4.7208,-20.06341s-4.7208,3.5406 8.26141,-11.802s42.4872,-155.78649 14.16238,-160.5073z"/>
  <path id="svg_8" fill="#cfcce0" d="m598.73128,154.68795s10.03171,0.5901 12.39211,17.11291s6.4911,118.61016 6.4911,118.61016s15.34261,33.04562 9.44161,37.76642s-2.36041,11.802 -2.36041,11.802l-21.24361,5.901l-46.02782,-71.99224l41.30702,-119.20025z"/>
  <path id="svg_9" fill="#2f2e41" d="m432.323,318.73584s-7.08121,1.1802 -7.08121,27.14461s-12.9822,106.21806 -4.7208,119.20026s9.4416,129.82207 9.4416,129.82207s22.42382,9.4416 41.307,-21.24361l2.3604,-16.52281l4.7208,-80.25364l18.88321,-100.317l25.9644,110.9388s-3.5406,133.36267 9.44161,133.36267s37.76642,-10.6218 37.76642,-10.6218s5.901,-11.802 3.5406,-17.703s-4.7208,-4.7208 -2.3604,-9.44161s5.901,-127.46166 5.901,-127.46166s-4.7208,-126.28147 -10.6218,-129.82207s-134.54283,-7.08121 -134.54283,-7.08121z"/>
  <path id="svg_10" fill="#2f2e41" d="m432.323,590.18198l-18.88321,20.06341s-34.22582,31.86541 -4.72081,33.04561s46.02783,-18.88321 46.02783,-21.24361s1.1802,-10.6218 9.4416,-10.6218s28.32482,-20.06341 23.604,-28.32482s-18.88321,-11.802 -18.88321,-11.802l-36.5862,18.88321z"/>
  <path id="svg_11" fill="#2f2e41" d="m533.82025,616.14639s-14.16241,28.32482 -5.901,34.22582s10.6218,8.2614 10.6218,8.2614s7.0812,-1.1802 5.901,9.44161s42.48723,16.52281 44.84763,8.2614s1.1802,-24.78421 -3.54061,-29.505s-18.8832,-37.76642 -18.8832,-37.76642s-15.34261,-17.70302 -33.04562,7.08119z"/>
  <path id="svg_12" fill="#2f2e41" d="m586.07603,28.30127l6.66977,-0.94746s-9.28508,-17.08977 -27.25616,-20.19295l6.30833,-4.25771s-10.96188,-7.83392 -25.12862,2.2356c-7.44718,5.2933 -16.09389,11.54151 -22.4543,19.406l-6.50628,-1.59008l1.25421,6.64282l-10.96544,3.65643l10.01758,1.31012a34.39538,34.39538 0 0 0 -2.6885,9.85288a13.20963,13.20963 0 0 0 2.6474,9.54283l0,0s11.346,-13.75438 11.94045,-16.18661l-1.486,6.08055s7.41277,-3.98771 8.30439,-7.636l2.27357,5.06625l3.29154,-6.2837l18.80053,11.6828l-1.97636,-6.28234l12.25716,4.92866l-3.33623,-7.90348s12.428,11.41415 11.3458,18.23779c-1.08239,6.8235 1.57189,14.18856 1.57189,14.18856s18.90303,-28.5158 5.11527,-41.55096z"/>
  <rect id="svg_13" fill="#3f3d56" height="2.26159" width="189" y="429.45048" x="723.92081"/>
  <rect id="svg_14" fill="#cfcce0" height="45.55804" width="45.55804" y="603.7084" x="160.89644"/>
  <path id="svg_15" fill="#3f3d56" d="m200.45999,643.27196l-47.95583,0l0,-47.95583l47.95583,0l0,47.95583zm-45.558,-2.39779l43.16021,0l0,-43.16025l-43.16025,0l0.00004,43.16025z"/>
  <rect id="svg_16" transform="rotate(-21.1442 -238.073 53.6381)" fill="#f2f2f2" height="29.84223" width="30.9126" y="373.72984" x="137.27473"/>
  <path id="svg_17" fill="#3f3d56" d="m261.85292,231.27304l-30.34888,11.73755l-11.33113,-29.298l30.34888,-11.73755l11.33113,29.298zm-29.398,9.68577l27.314,-10.5638l-10.198,-26.36821l-27.314,10.5638l10.198,26.36821z"/>
  <rect id="svg_18" transform="rotate(71.0271 1080.94 -535.567)" fill="#f2f2f2" height="29.84223" width="30.9126" y="94.5748" x="1975.97158"/>
  <path id="svg_19" fill="#3f3d56" d="m760.24987,549.52122l-10.57932,-30.77178l29.70628,-10.213l10.57932,30.77178l-29.70628,10.213zm-8.565,-29.74384l9.52139,27.6946l26.73565,-9.1917l-9.52139,-27.69461l-26.73565,9.19171z"/>
  <path id="svg_20" fill="#770c0c" d="m142.3406,399.62192c16.90362,0.3626 30.35024,12.61229 30.35024,12.61229s-13.95955,11.6618 -30.86317,11.29919s-30.35027,-12.61229 -30.35027,-12.61229s13.95959,-11.6618 30.8632,-11.29919z"/>
  <path id="svg_21" fill="#770c0c" d="m58.35786,341.9211c15.27169,7.2553 32.78343,2.33538 32.78343,2.33538s-7.24856,-16.68308 -22.52025,-23.93838s-32.78342,-2.33537 -32.78342,-2.33537s7.24855,16.68308 22.52024,23.93837z"/>
  <path id="svg_22" fill="#3f3d56" d="m59.91027,334.71119c16.83734,-1.53875 31.575,9.12272 31.575,9.12272s-12.561,13.15627 -29.39836,14.695s-31.575,-9.12272 -31.575,-9.12272s12.56102,-13.15625 29.39836,-14.695z"/>
  <path id="svg_23" fill="#3f3d56" d="m121.63069,337.6263c-1.61385,16.8303 8.98175,31.61542 8.98175,31.61542s13.21218,-12.5022 14.826,-29.3325s-8.98175,-31.61543 -8.98175,-31.61543s-13.21215,12.50225 -14.826,29.33251z"/>
  <path id="svg_24" fill="#3f3d56" d="m200.92622,440.84604c-8.83127,14.41779 -5.79289,32.352 -5.79289,32.352s17.3567,-5.44166 26.188,-19.85944s5.79289,-32.352 5.79289,-32.352s-17.35673,5.44167 -26.188,19.85944z"/>
  <path id="svg_25" fill="#3f3d56" d="m175.30557,597.60438l1.287,-0.8699a40.32083,40.32083 0 0 1 -7.11618,-22.36062c0.036,-11.69395 5.77986,-22.51 11.33484,-32.97005c1.03106,-1.94153 2.05871,-3.877 3.0473,-5.81095a126.84805,126.84805 0 0 0 9.86618,-24.7682c8.61631,-32.01976 0.1331,-69.797 -22.69206,-101.05455c-18.10707,-24.79626 -45.09932,-46.47925 -82.51821,-66.2882l-0.72655,1.37273c37.20577,19.69594 64.0251,41.2299 81.99035,65.83163c22.55061,30.881 30.94168,68.16527 22.44633,99.73491a125.3412,125.3412 0 0 1 -9.74862,24.46484c-0.98556,1.92675 -2.00941,3.85463 -3.03668,5.78934c-5.64334,10.62686 -11.47894,21.61548 -11.5161,33.69395a41.88823,41.88823 0 0 0 7.3824,23.23507z"/>
  <circle id="svg_26" fill="#3f3d56" r="14.75565" cy="330.76716" cx="14.75596"/>
  <polygon id="svg_27" fill="#2f2e41" points="818.044 417.926 628.109 349.709 662.018 255.296 780.281 226.293 851.954 323.514 818.044 417.926"/>
  <path id="svg_28" fill="#f2f2f2" d="m795.03501,399.20445l-141.93911,-54.10641c36.8477,-49.35662 53.32538,-84.17278 53.33749,-138.959l141.93911,54.1064c-32.97522,46.84105 -46.7651,82.05342 -53.33749,138.95901z"/>
  <rect id="svg_29" transform="rotate(20.8666 46.3901 -410.896)" fill="#3f3d56" height="3.66029" width="78.69621" y="-47.49602" x="919.36906"/>
  <rect id="svg_30" transform="rotate(20.8666 50.9211 -408.141)" fill="#3f3d56" height="3.66029" width="78.69621" y="-31.06026" x="918.68497"/>
  <rect id="svg_31" transform="rotate(20.8666 55.452 -405.386)" fill="#3f3d56" height="3.66029" width="78.69621" y="-14.62454" x="918.00088"/>
  <rect id="svg_32" transform="rotate(20.8666 59.983 -402.631)" fill="#3f3d56" height="3.66029" width="78.69621" y="1.81122" x="917.31679"/>
  <rect id="svg_33" transform="rotate(20.8666 64.514 -399.876)" fill="#3f3d56" height="3.66029" width="78.69621" y="18.24696" x="916.6327"/>
  <rect id="svg_34" transform="rotate(20.8666 69.045 -397.122)" fill="#3f3d56" height="3.66029" width="78.69621" y="34.68272" x="915.94862"/>
  <rect id="svg_35" transform="rotate(20.8666 73.576 -394.367)" fill="#3f3d56" height="3.66029" width="78.69621" y="51.11845" x="915.26453"/>
  <rect id="svg_36" transform="rotate(20.8666 78.107 -391.612)" fill="#3f3d56" height="3.66029" width="78.69621" y="67.5542" x="914.58043"/>
  <polygon id="svg_37" fill="#3f3d56" points="813.656 430.144 623.721 361.927 662.018 255.296 742.226 330.502 851.954 323.514 813.656 430.144"/>
  <polygon id="svg_38" fill="#770c0c" points="717.148 396.545 622.442 362.53 645.518 298.277 647.401 298.953 625.001 361.323 717.824 394.662 717.148 396.545"/>
  <rect id="svg_39" fill="#770c0c" transform="matrix(0.94114 0.33802 -0.33802 0.94114 52.4844 -358.249)" height="11.80201" width="29.50502" y="432.76595" x="796.39003"/>
  <polygon id="svg_40" fill="#3f3d56" points="369.521 642.111 220.865 642.032 222.032 558.576 295.91 591.781 370.688 560.655 369.521 642.111"/>
  <rect transform="rotate(0.80117 253.589 603.097)" id="svg_41" fill="#770c0c" height="8.69421" width="21.73552" y="598.74959" x="242.72107"/>
  <polygon id="svg_42" fill="#770c0c" points="371.18499755859375,559.541015625 296.0450134277344,597.8480224609375 221.64100646972656,559.541015625 221.64100646972656,557.3309936523438 371.18499755859375,557.3309936523438 371.18499755859375,559.541015625 "/>
  <ellipse transform="rotate(-69.1334 1051.26 1321.06)" id="svg_43" fill="#770c0c" ry="25" rx="9.02966" cy="1321.05582" cx="1051.25786"/>
  <path id="svg_44" fill="#770c0c" d="m823.56497,102.55288a38,38 0 0 0 -47.56929,25.00326c-6.23144,20.04035 10.751,93.40458 10.751,93.40458s55.59009,-50.7982 61.82152,-70.83855a38,38 0 0 0 -25.00323,-47.56929zm-16.62757,53.47451a18,18 0 1 1 22.53282,-11.84365a18,18 0 0 1 -22.53282,11.84365z"/>
 </g>
</svg>