<?xml version="1.0" encoding="UTF-8"?>
<!DOCTYPE svg PUBLIC "-//W3C//DTD SVG 1.1//EN" "http://www.w3.org/Graphics/SVG/1.1/DTD/svg11.dtd">
<!-- Creator: CorelDRAW 2021 (64-Bit) -->
<svg xmlns="http://www.w3.org/2000/svg" xml:space="preserve" width="231px" height="253px" version="1.1" style="shape-rendering:geometricPrecision; text-rendering:geometricPrecision; image-rendering:optimizeQuality; fill-rule:evenodd; clip-rule:evenodd"
viewBox="0 0 38.02 41.69"
 xmlns:xlink="http://www.w3.org/1999/xlink"
 xmlns:xodm="http://www.corel.com/coreldraw/odm/2003">
 <defs>
  <style type="text/css">
   <![CDATA[
    .str0 {stroke:#2B2A29;stroke-width:2.92;stroke-linecap:round;stroke-linejoin:round;stroke-miterlimit:22.9256}
    .fil3 {fill:none}
    .fil4 {fill:#FEFEFE}
    .fil11 {fill:#EBECEC}
    .fil10 {fill:#D9DADA}
    .fil8 {fill:#C5C6C6}
    .fil6 {fill:#B2B3B3}
    .fil7 {fill:#9D9E9E}
    .fil2 {fill:#898989}
    .fil9 {fill:#727271}
    .fil5 {fill:#2B2A29}
    .fil1 {fill:#E31E24}
    .fil12 {fill:#E31E24}
    .fil0 {fill:#2B2A29;fill-rule:nonzero}
   ]]>
  </style>
    <clipPath id="id0">
     <path d="M16.47 1.65c9.58,-1.41 18.5,5.23 19.9,14.82 1.41,9.58 -5.23,18.5 -14.82,19.9 -9.59,1.41 -18.5,-5.23 -19.9,-14.82 -1.41,-9.59 5.23,-18.5 14.82,-19.9z"/>
    </clipPath>
 </defs>
 <g id="Layer_x0020_1">
  <metadata id="CorelCorpID_0Corel-Layer"/>
  <g id="_2111268967520">
   <path class="fil0" d="M16.2 0.45c5.12,-0.75 10.05,0.64 13.9,3.51 3.85,2.86 6.61,7.2 7.36,12.31 0.75,5.12 -0.65,10.06 -3.51,13.91 -2.87,3.85 -7.2,6.6 -12.32,7.35 -5.12,0.75 -10.06,-0.64 -13.9,-3.51 -3.85,-2.86 -6.61,-7.19 -7.36,-12.31 -0.75,-5.12 0.65,-10.06 3.51,-13.91 2.87,-3.85 7.2,-6.6 12.32,-7.35zm12.48 5.42c-3.35,-2.5 -7.67,-3.72 -12.14,-3.06 -4.47,0.65 -8.25,3.06 -10.75,6.41 -2.5,3.36 -3.71,7.67 -3.06,12.14 0.66,4.47 3.06,8.25 6.41,10.75 3.36,2.5 7.67,3.72 12.14,3.06 4.48,-0.65 8.26,-3.05 10.75,-6.41 2.5,-3.36 3.72,-7.67 3.07,-12.14 -0.66,-4.47 -3.06,-8.25 -6.42,-10.75z"/>
   <path class="fil1" d="M16.47 1.65c9.58,-1.41 18.5,5.23 19.9,14.82 1.41,9.58 -5.23,18.5 -14.82,19.9 -9.59,1.41 -18.5,-5.23 -19.9,-14.82 -1.41,-9.59 5.23,-18.5 14.82,-19.9z"/>
   <g style="clip-path:url(#id0)">
    <g>
     <circle class="fil2" cx="-4.51" cy="10.14" r="2.26"/>
    </g>
   </g>
   <path class="fil3 str0" d="M16.47 1.65c9.58,-1.41 18.5,5.23 19.9,14.82 1.41,9.58 -5.23,18.5 -14.82,19.9 -9.59,1.41 -18.5,-5.23 -19.9,-14.82 -1.41,-9.59 5.23,-18.5 14.82,-19.9z"/>
   <path class="fil4" d="M27.61 6.4c-0.01,-0.26 -0.06,-0.42 -0.11,-0.58 -0.04,-0.16 -0.22,-1.08 -0.6,-1.15 -0.07,-0.02 -0.18,0.01 -0.24,0.07 -0.07,0.08 0.02,0.18 0.11,0.43 0.17,0.45 0.24,0.76 0.17,1.36 -0.03,-0.28 -0.03,-0.49 -0.05,-0.65 -0.06,-0.57 -0.09,-0.57 -0.24,-0.78 -0.01,-0.02 0.11,0.32 0.09,0.7 -0.02,-0.19 -0.25,-0.99 -0.27,-0.96 -0.02,0.02 -0.02,0.02 -0.03,0.1 -0.11,-0.19 -0.15,-0.12 -0.01,0.36 0,0 -0.19,-0.04 -0.23,-0.15 -0.11,-0.25 -0.12,-0.7 -0.12,-0.72 -0.03,-0.14 -0.11,-0.39 -0.21,-0.44 -0.04,-0.02 -0.03,0.5 0.05,0.96 -0.17,-0.35 -0.19,-0.1 -0.17,-0.79 0.01,-0.5 -0.27,-0.57 -0.33,-0.41 -0.03,0.08 -0.24,0.33 -0.32,0.7 -0.26,-0.07 -0.57,-0.03 -0.76,0 0.08,0.34 -0.01,0.02 -0.06,0.1 -0.02,0.02 -0.03,0.06 0,0.17 -0.04,-0.09 -0.08,-0.18 -0.14,-0.23 -0.1,-0.07 -0.15,-0.06 -0.18,-0.03 -0.06,0.06 -0.07,-0.03 -0.16,-0.02 -0.02,0.01 -0.05,0.06 -0.09,0.05 -0.08,-0.01 -0.08,-0.01 -0.11,-0.01 -0.05,0.01 -0.02,0.04 -0.06,0.07 -0.02,0.01 -0.02,0.05 -0.06,0.04 -0.07,-0.09 -0.09,-0.14 -0.12,-0.14 -0.08,0.01 -0.08,0.03 -0.17,0.05 -0.11,-0.14 -0.14,-0.39 -0.26,-0.54 -0.24,-0.3 -0.37,-0.34 -0.46,-0.29 -0.15,0 -0.04,-0.19 -0.17,-0.28 -0.24,-0.15 -0.19,-0.18 -0.19,-0.43 0,-0.16 -0.15,-0.1 -0.2,0.08 -0.03,0.11 -0.17,0.31 -0.17,0.75 -0.05,-0.07 -0.1,-0.06 -0.12,-0.08 -0.04,-0.03 0,-0.13 0.01,-0.41 0,-0.06 -0.01,-0.14 -0.03,-0.18 -0.08,0.05 -0.17,0.13 -0.19,0.41 -0.01,0.01 -0.02,0.01 -0.02,0 -0.03,-0.05 0.02,-0.21 -0.01,-0.25 -0.02,-0.02 -0.14,0 -0.16,0.12 -0.03,0.12 -0.01,0.2 -0.02,0.26 -0.04,0 -0.07,0.02 -0.11,0.05 -0.01,-0.05 0.04,-0.24 -0.02,-0.29 -0.01,-0.12 0,-0.19 -0.04,-0.2 -0.08,0 0.02,0.02 -0.23,-0.03 -0.74,-0.05 -1.4,0.27 -1.84,0.39 0.11,0.36 0.15,0.71 0.18,1.08 0,0.1 0,0.45 0.03,1.42 0,0.03 -0.09,-0.57 -0.17,-1.35 -0.5,0.22 -1.26,0.31 -1.18,0.82l-0.01 -0.02c-0.05,-0.11 -0.15,-0.29 -0.25,-0.45l-0.15 -0.27c0.06,-0.36 0.13,-0.58 0.14,-1.17 -0.13,0.11 -0.27,0.34 -0.37,0.53 0.06,-0.31 0.22,-0.59 0.34,-0.89 -0.22,0.1 -0.4,0.52 -0.53,0.91 -0.48,-0.74 -0.98,-1.16 -1.22,-1.35 -0.28,-0.23 -0.82,-0.76 -1.16,-0.77 -0.39,0 -0.68,0.15 -0.96,0.53 -0.49,0.65 -0.83,1.48 -0.89,1.68l-0.07 0.22c-0.11,0.36 -0.25,0.81 -0.4,1.36 -0.13,0.49 -0.27,1.11 -0.39,1.72 -0.12,0.57 -0.21,1.14 -0.27,1.62 -0.06,0.49 -0.1,0.96 -0.11,1.43 -0.02,0.46 0,0.93 0.05,1.41 0.02,0.17 0.19,0.42 0.47,0.73 0.26,0.28 0.62,0.63 1.03,1 0.18,0.17 0.68,0.85 0.88,1.13l0.1 0.12c0.01,0.02 0.09,0.09 0.11,0.1 -0.27,0.2 -0.47,0.4 -0.54,0.43 -0.1,0.04 -0.89,0.66 -1.06,0.84 -0.35,0.38 -1.23,1.12 -1.47,1.12 -0.12,1.47 0.92,0.94 0.6,2.42 -0.05,0.23 -0.04,0.35 -0.2,0.83 -0.08,0.22 -0.73,1.57 -0.98,4.5 0.01,0.24 -0.47,1.04 -0.62,1.32 -0.85,1.52 -1.31,3.06 -2.03,4.05 -0.59,0.62 -0.91,1.16 -1.12,1.19 -0.67,0.24 -1.01,0.28 -1.01,0.89 0.01,0.44 0.08,1.07 0.53,1.51 0.06,0.03 0.21,0.2 0.28,0.2 0.08,0.22 0.13,0.51 0.15,0.73 -0.46,0.58 -0.54,1.59 -0.53,1.73 0.01,0.19 0.21,0.41 0.38,0.59 0.19,0.19 0.53,0.37 0.71,0.41 0.06,0.01 0.32,0.5 0.6,1.05 -0.05,0.01 -0.15,0.19 -0.14,0.31 0.55,2.34 3.75,2.41 5.39,2.32 0.73,-0.04 1.51,-0.19 2.06,-0.26 1.94,-0.27 1.86,-1.21 2.6,-2.34 0.38,-0.7 0.98,-1.32 1.55,-1.83 0.38,-0.33 1.02,-0.8 1.4,-0.94 0.91,-0.4 1.05,-0.66 1.22,-0.9 0.03,-0.05 0.25,-0.37 0.35,-0.52 0.37,-0.55 1.11,-0.77 1.31,-0.9 0.63,-0.39 1.19,-0.65 1.88,-0.68 0.34,-0.04 0.64,-0.1 0.93,-0.19 0.29,-0.1 0.57,-0.23 0.86,-0.41 0.52,-0.34 1.16,-0.89 1.81,-1.51 0.87,-0.82 1.54,-1.55 2.15,-2.26 0.34,-0.38 0.22,-1.27 0.19,-1.73 -0.03,-1.29 0.03,-2.68 0.17,-4 0.03,-0.08 0.04,-0.19 0.04,-0.3 0,-0.12 -0.01,-0.24 -0.01,-0.32 -0.01,-0.6 0.08,-1.34 0.04,-1.87 -0.02,-0.36 0.07,-0.78 0,-1.23 0.26,-0.05 0.74,-0.09 1.12,0.04 -0.06,-0.03 -0.1,-0.06 -0.28,-0.16 0.01,0 0.02,-0.02 0.02,-0.02 0.19,0.03 0.34,0.08 0.47,0.14 -0.48,-0.4 -0.91,-0.46 -1.42,-0.45 -0.31,0 -0.52,0.06 -0.64,0.13 0,-0.02 0,-0.07 0,-0.1 0.05,0 0.11,-0.02 0.18,-0.08 0.1,-0.08 0.33,-0.11 0.59,-0.08 0.19,0.03 0.4,-0.06 0.52,-0.07 -0.45,-0.17 -0.63,-0.21 -0.76,-0.27 0.11,-0.13 0.29,0.03 0.5,-0.04 0.08,-0.03 0.11,0.1 0.38,0.1 0.21,0 0.64,-0.18 0.37,-0.21 -0.43,-0.04 -1.17,-0.4 -1.14,-0.57 0.48,0.27 0.74,0.43 0.95,0.49 0.14,0.03 0.37,-0.05 0.65,-0.22 -0.15,0.05 -0.22,0.1 -0.43,0.11 -0.44,0.03 -1.27,-0.59 -1.35,-1.05 -0.04,-0.25 -0.01,-0.49 0.01,-0.57 0.01,-0.01 0.78,-0.46 0.98,-0.81 -0.15,0.07 -0.67,0.45 -0.9,0.57 -0.01,0.01 -0.03,-0.02 -0.04,-0.01 0.01,-0.06 0.02,-0.12 0.02,-0.2 0.13,-0.08 0.94,-0.52 1.13,-0.99 -0.07,0.01 -0.44,0.36 -0.53,0.4 0.09,-0.2 0.59,-0.53 -0.01,-0.19 -0.03,0.02 -0.59,0.22 0.1,-0.24 0.06,-0.04 0.3,-0.21 0.49,-0.4 0.05,-0.06 0.16,-0.1 0.17,-0.15 -0.04,0.01 -0.14,0.07 -0.21,0.1 0.01,-0.03 0.14,-0.13 0.1,-0.12 -0.05,0.03 -0.16,0.09 -0.23,0.13 -0.04,0.01 -0.1,0 -0.12,0.01 -0.19,0.07 -0.36,0.14 -0.41,0.14 0.47,-0.36 0.66,-0.65 1.03,-1.09 0.1,-0.11 -0.17,0.16 -0.33,0.29 -0.01,0.01 -0.02,-0.01 -0.03,-0.01 0.08,-0.13 0.35,-0.44 0.45,-0.57 0.33,-0.47 0.38,-0.44 0.8,-0.65 0.36,-0.18 -0.4,0.11 -0.43,0.06 0.01,-0.02 0.47,-0.35 0.58,-0.73 0.01,-0.01 -0.2,-0.67 -0.2,-0.68 -0.03,-0.17 -1.62,-2.43 -1.66,-2.46 -0.2,-0.13 -0.2,-0.3 -0.4,-0.43 -0.04,-0.02 -0.06,-0.02 -0.08,-0.03 -0.04,-0.07 -0.11,-0.14 -0.15,-0.19 -0.15,-0.15 -0.05,-0.14 -0.17,-0.17 -0.03,-0.01 -0.05,0 -0.06,0.01 -0.1,-0.11 -0.3,-0.4 -0.42,-0.52l0 -0.04c-0.03,-0.23 -0.21,-0.35 -0.41,-0.42 -0.03,-0.01 -0.14,-0.1 -0.15,-0.1 -0.03,-0.04 -0.06,-0.07 -0.1,-0.09l0 0c0.03,-0.08 0.04,-0.17 0,-0.17 -0.01,-0.02 -0.02,-0.04 -0.05,-0.07 -0.01,-0.03 -0.22,-0.19 -0.34,-0.25 0.06,-0.08 0.08,-0.14 0.04,-0.18 -0.1,-0.09 -0.34,0.27 -0.54,0.39 0.07,-0.12 0.22,-0.72 0.13,-0.71 -0.03,0 -0.09,0.09 -0.18,0.28 -0.08,0.2 -0.18,0.52 -0.31,0.56 0.11,-0.26 0.15,-0.49 0.18,-0.63 0.2,-0.73 -0.18,-0.39 -0.45,-0.73 -0.04,-0.05 -0.25,-0.15 -0.38,-0.1 -0.01,0.14 -0.03,0.17 -0.06,0.46 -0.01,0.11 -0.19,0.68 -0.28,1.03 0.06,-0.4 0.22,-1.78 -0.26,-1.76 0.1,0.17 0.14,0.37 0.1,0.78 -0.05,-0.31 -0.19,-0.71 -0.34,-0.69 0.14,0.04 0.19,0.79 0.15,1.28z"/>
   <path class="fil5" d="M15.28 14l0 0.01c0,0.03 -0.02,0.06 -0.03,0.08 -0.06,0.06 -0.15,0.03 -0.31,0.01 -0.29,-0.03 -0.48,-0.24 -0.67,-0.45 -0.11,-0.12 -0.27,-0.3 -0.34,-0.69 -0.11,-0.54 0.32,-0.25 0.6,-0.17 -0.18,-0.09 -0.31,-0.23 -0.35,-0.35 -0.03,-0.12 0.08,-0.29 0.35,-0.36 -0.3,-0.12 -0.32,-0.29 -0.26,-0.33 0.05,-0.03 0.16,0.01 0.29,0.02 -0.12,-0.07 -0.26,-0.39 0.26,-0.23 -0.08,-0.08 -0.07,-0.06 -0.14,-0.13 -0.26,0.08 -0.76,-0.29 -0.94,-0.47 -0.09,-0.09 -0.37,-0.46 -0.37,-0.46l0 0 0 0c0,-0.13 -0.1,-0.25 0.01,-0.25 0.05,0.01 0.12,0.34 0.32,0.29 -0.11,-0.17 -0.41,-0.65 -0.35,-0.69 0.04,-0.04 0.44,0.61 0.55,0.73 0.03,0 0.27,0.17 0.38,0.18 -0.21,-0.23 -0.43,-0.97 -0.44,-1 -0.17,-0.58 -0.13,-1.39 -0.08,-1.74 0.19,-1.43 0.44,-2.22 0.59,-2.45 -0.04,-0.03 -0.25,-0.05 0.04,-0.28 -0.12,-0.09 -0.18,-0.1 -0.27,-0.21 -0.31,-0.31 -0.19,-0.49 0.05,-0.84 0.12,-0.19 0.23,-0.27 0.27,-0.28 -0.41,-0.28 -0.44,-0.73 -0.39,-0.73 0.02,0 0.07,0.15 0.1,0.25 0.03,0.07 0.19,0.28 0.24,0.33 0.1,0.09 0.23,0.15 0.19,0.18 -0.03,0.02 -0.04,-0.02 -0.08,0 -0.03,0.02 -0.11,0.08 -0.17,0.19 -0.17,0.27 -0.54,0.57 -0.03,0.91 0.28,0.19 0.39,0.19 0.36,0.24 -0.04,0.06 -0.19,-0.09 -0.31,0.13 0.04,0 0.15,-0.04 0.2,-0.03 0.07,0.01 0.09,0.08 -0.09,0.17 -0.1,0.05 -0.22,0.53 -0.21,0.66 0.07,1.11 -0.09,1.62 0.15,2.79 0.33,1.62 1.26,2.03 1.2,2.42 -0.02,0.11 -0.56,0 -0.84,-0.23 0.13,0.26 0.47,0.31 0.47,0.38 -0.07,0.28 -0.39,0.26 -0.54,0.21 -0.06,0.08 -0.19,0.05 -0.31,0.07 0.11,0.13 0.49,0.12 0.49,0.16 0.01,0.08 -0.8,0.19 -0.49,0.49 0.28,0.27 0.66,0.2 0.45,0.4 -0.11,-0.07 -0.24,-0.02 -0.39,-0.07 -0.22,-0.07 -0.32,-0.18 -0.43,-0.15 -0.2,0.36 0.83,1.24 1.27,1.29zm-1.91 -3.36c0.03,0.45 0.22,0.63 0.51,0.91 -0.41,-0.33 -0.49,-0.62 -0.51,-0.91zm0.51 0.91c-0.03,0.08 -0.11,0.26 0.04,0.48 -0.13,-0.15 -0.1,-0.38 -0.04,-0.48zm0.04 0.48c-0.03,0.01 -0.07,0.01 -0.12,0.03l-0.01 -0.01c0.05,-0.01 0.09,-0.02 0.13,-0.02z"/>
   <path class="fil2" d="M14.68 11.41c0.07,0.07 0.06,0.05 0.14,0.13 -0.52,-0.16 -0.38,0.16 -0.26,0.23 -0.13,-0.01 -0.24,-0.05 -0.29,-0.02 -0.06,0.04 -0.04,0.21 0.26,0.33 -0.27,0.07 -0.38,0.24 -0.35,0.36 0.04,0.12 0.17,0.26 0.35,0.35 -0.28,-0.08 -0.71,-0.37 -0.6,0.17 0.07,0.39 0.23,0.57 0.34,0.69 0.19,0.21 0.38,0.42 0.67,0.45 0.2,0.02 0.31,0.07 0.34,-0.08 0.01,-0.02 -0.01,-0.03 -0.04,-0.04 0.11,-0.21 0.35,-0.64 0.56,-0.94 0.1,-0.24 0.22,-0.49 0.29,-0.62 -0.38,0.32 -0.39,0.65 -0.51,0.56 -0.18,-0.12 0.55,-1.09 0.75,-1.22 0.11,0.37 0.34,0.62 0.42,0.77 -0.28,0.22 -1.12,1.08 -1.12,1.31 0.29,-0.09 0.6,-0.5 0.88,-0.65 0.21,-0.12 0.42,-0.36 0.55,-0.36 0.16,0.2 0.37,0.46 0.87,0.32 -0.46,0.25 -1.14,0.65 -1.55,0.75 -0.07,0.01 -0.11,0.1 -0.15,0.15 0.36,0.06 0.86,-0.04 1.32,-0.25 0.45,-0.21 1.16,-0.68 1.25,-0.84 0.2,0.07 0.41,0.2 0.49,0.38 0.11,0.26 0.27,0.75 0.31,1.04 0.04,0.34 -0.05,1.07 -0.24,1.54 -0.25,0.63 -1.14,0.99 -2.24,1.16 -0.42,0.06 -1.24,0.06 -1.49,-0.15 -0.51,-0.43 -0.04,-1.43 0.15,-1.98 -0.12,-0.06 -0.37,-0.16 -0.4,-0.54 -0.08,0.06 -0.15,0.1 -0.22,0.13 -0.01,0 -0.01,-0.01 -0.01,-0.01 -0.53,0.01 -1.02,-0.4 -1.29,-0.78 -0.4,-0.55 -0.42,-0.57 -0.49,-0.85 -0.17,-0.7 0.39,-0.84 0.55,-0.87 -0.15,-0.22 -0.07,-0.4 -0.04,-0.48 -0.33,-0.31 -0.52,-0.5 -0.51,-1.07l0 0c0,0 0.28,0.37 0.37,0.46 0.18,0.18 0.68,0.55 0.94,0.47z"/>
   <path class="fil6" d="M14.04 3.15c0.06,-0.02 0.14,0.34 0.58,0.71 0.01,0.01 0.05,0.05 0.1,0.11 -0.03,-0.01 -0.05,0 -0.06,0 0.04,0.04 0.07,0.09 -0.04,0.14 -0.15,0.36 -0.26,0.46 0,0.85 0.1,0.14 0.24,0.27 0.36,0.31 0.09,0.03 0.18,0.03 0.18,0.06 0,0.02 -0.07,0.02 -0.18,0.04 -0.53,0.6 -0.33,2.3 -0.3,3 0.02,0.63 0.12,1.16 0.68,2.02 -0.1,-0.52 -0.07,-0.79 0.02,-1.02 0.04,0.29 0.19,1.11 0.32,1.46 0.11,0.3 0.34,0.77 0.28,0.78 -0.06,0.02 -0.22,-0.05 -0.38,-0.19 0.01,-0.38 -0.88,-0.81 -1.2,-2.39 -0.24,-1.17 -0.08,-1.68 -0.15,-2.79 -0.01,-0.13 0.11,-0.61 0.21,-0.66 0.18,-0.09 0.16,-0.16 0.09,-0.17 -0.05,-0.01 -0.16,0.03 -0.2,0.03 0.12,-0.22 0.27,-0.07 0.31,-0.13 0.03,-0.05 -0.08,-0.05 -0.36,-0.24 -0.51,-0.34 -0.14,-0.64 0.03,-0.91 0.06,-0.11 0.14,-0.17 0.17,-0.19 0.04,-0.02 0.05,0.02 0.08,0 0.04,-0.03 -0.09,-0.09 -0.19,-0.18 -0.05,-0.05 -0.21,-0.26 -0.24,-0.33 -0.03,-0.09 -0.08,-0.24 -0.1,-0.25 -0.01,-0.03 -0.01,-0.06 -0.01,-0.06z"/>
   <path class="fil2" d="M14.82 3.95c-0.34,0.42 -0.18,0.69 -0.11,0.84 0.06,0.14 0.44,0.41 0.59,0.23 -0.32,-0.04 -0.45,-0.19 -0.52,-0.33 -0.2,-0.36 0.03,-0.63 0.03,-0.72 0,0 0.01,-0.02 0.01,-0.02z"/>
   <path class="fil5" d="M16.08 9.96c-0.07,0.01 0,0.45 0.05,0.69 0.06,0.27 0.21,0.5 0.21,0.75 -0.16,-0.26 -0.16,-0.34 -0.18,-0.42 -0.04,0.25 0.1,0.43 0.21,0.9 0.12,0.3 0.31,0.52 0.38,0.65 -0.18,0.14 -0.6,0.56 -0.87,0.89 -0.15,0.18 -0.25,0.34 -0.25,0.42 0.29,-0.09 0.6,-0.5 0.88,-0.65 0.21,-0.12 0.42,-0.36 0.55,-0.36 0.16,0.2 0.37,0.46 0.87,0.32 -0.46,0.25 -1.14,0.65 -1.55,0.75 -0.07,0.01 -0.11,0.1 -0.15,0.15 0.36,0.06 0.86,-0.04 1.32,-0.25 0.45,-0.21 1.16,-0.68 1.25,-0.84l0.01 0c0.02,-0.03 0.04,-0.07 0.08,-0.1 0.06,0.01 0.78,-0.17 0.99,-0.29 0.25,-0.14 0.42,-0.26 0.74,-0.58 0.27,0.01 0.39,-0.04 0.47,-0.08 0.05,0.06 0.47,0.39 0.63,0.16 0.05,-0.09 0.09,-0.14 0.17,-0.26 -0.09,0.13 0.01,0.21 0.07,0.19 -0.18,0.14 -0.03,0.22 0.24,-0.08 0.12,-0.14 0.35,-0.35 0.49,-0.52 0.44,-0.5 1.01,-2.23 1.12,-2.93 -0.16,1.12 -0.51,2.16 -0.76,2.56 -0.13,0.21 -0.41,0.74 -0.89,1.21 0.07,0 0.14,-0.1 0.23,-0.07 0.22,0.05 0.76,0.09 1.25,-0.02 0.03,0.03 0.07,0.07 0.11,0.04 0.01,-0.01 0.1,-0.07 0.17,-0.15 0.06,0.17 0.14,0.18 0.32,0.02 0.06,-0.05 0.13,-0.06 0.25,-0.05 0.02,0.21 0.41,0.21 0.63,0.13 0.21,-0.06 0.41,-0.17 0.52,-0.27 0.15,-0.15 0.32,-0.29 0.42,-0.47 0.02,0.07 -0.27,0.53 -0.47,0.62 -0.08,0.03 -0.2,0.1 -0.29,0.16 -0.11,0.07 -0.38,0.1 -0.38,0.14 0,0.03 0.09,0.07 0.22,0.09 0.04,0.04 0.17,0.08 0.33,0.08 0.05,0.11 0.45,0.12 0.64,0.07 -0.12,0.24 -0.06,0.36 -0.13,0.58 -0.12,0.4 -0.38,1.1 -0.53,1.29 0.23,-0.13 0.46,-0.73 0.8,-1.58 0.03,-0.08 0.11,-0.53 0.24,-0.79 0.06,-0.11 0.05,-0.69 0.03,-0.97 -0.02,-0.37 -0.05,-0.94 -0.05,-1.38 0,-0.18 0.03,-0.35 0.04,-0.52 0.43,-0.32 0.37,-0.45 0.59,-0.63 0.07,-0.06 0.16,-0.21 0.25,-0.27 0.57,-0.4 1.23,-0.77 1.8,-1.24 0.08,-0.07 0.87,-0.67 0.72,-0.81 -0.1,-0.09 -0.36,0.27 -0.56,0.39 0.07,-0.12 0.22,-0.72 0.13,-0.71 -0.03,0 -0.09,0.09 -0.18,0.28 -0.08,0.2 -0.18,0.52 -0.31,0.56 0.11,-0.26 0.15,-0.49 0.18,-0.63 0.2,-0.73 -0.18,-0.39 -0.45,-0.73 -0.04,-0.05 -0.25,-0.15 -0.38,-0.1 -0.01,0.14 -0.03,0.17 -0.06,0.46 -0.01,0.11 -0.19,0.68 -0.28,1.03 0.06,-0.4 0.22,-1.78 -0.26,-1.76 0.1,0.17 0.14,0.37 0.1,0.78 -0.05,-0.31 -0.19,-0.71 -0.34,-0.69 0.18,0.05 0.21,1.27 0.1,1.62 -0.17,0.51 -0.43,1.42 -0.54,1.53 0.02,-0.07 0.28,-0.83 0.43,-1.39 0.11,-0.4 0.09,-0.69 0.05,-1.06 -0.01,-0.16 -0.22,-1.08 -0.6,-1.15 -0.07,-0.02 -0.18,0.01 -0.24,0.07 -0.07,0.08 0.02,0.18 0.11,0.43 0.17,0.45 0.24,0.76 0.17,1.36 -0.03,-0.28 -0.03,-0.49 -0.05,-0.65 -0.06,-0.57 -0.09,-0.57 -0.24,-0.78 -0.01,-0.02 0.11,0.32 0.09,0.7 -0.02,-0.19 -0.25,-0.99 -0.27,-0.96 -0.02,0.02 -0.02,0.02 -0.03,0.1 -0.11,-0.19 -0.15,-0.12 -0.01,0.36 0.18,0.59 0.19,1.84 0.03,2.38 -0.07,0.18 -0.17,0.67 -0.31,1.1 -0.02,0.14 0.04,0.26 0.03,0.39 -0.1,0.38 -0.21,0.73 -0.43,1.17 0.11,-0.37 0.15,-0.51 0.2,-0.75 0.03,-0.21 0.08,-0.53 0.15,-0.89 0.25,-0.46 0.27,-1.48 0.27,-1.85 0,-0.61 -0.03,-1.07 -0.14,-1.53 -0.04,-0.18 -0.1,-0.46 -0.14,-0.82 -0.01,-0.12 -0.1,-0.45 -0.22,-0.51 -0.04,-0.02 -0.03,0.5 0.05,0.96 -0.17,-0.35 -0.19,-0.1 -0.17,-0.79 0.01,-0.5 -0.27,-0.57 -0.33,-0.41 -0.03,0.08 -0.24,0.33 -0.32,0.7 -0.26,-0.07 -0.6,-0.11 -0.8,-0.08 0.16,0.37 0.26,0.46 0.26,0.91 -0.09,-0.46 -0.18,-0.61 -0.32,-0.78 -0.02,0.03 0.01,0.11 0.04,0.22 -0.04,-0.09 -0.08,-0.18 -0.14,-0.23 -0.1,-0.07 -0.15,-0.06 -0.18,-0.03 -0.06,0.06 -0.07,-0.03 -0.16,-0.02 -0.02,0.01 -0.05,0.06 -0.09,0.05 -0.08,-0.01 -0.07,-0.08 -0.1,-0.07 -0.08,0.03 0.16,0.43 0.27,0.73 0.12,0.37 0.25,0.89 0.32,1.42 0.05,0.33 -0.12,1.57 -0.11,1.47 0.07,-0.94 0.07,-2 -0.27,-2.89 -0.06,-0.14 -0.09,-0.33 -0.19,-0.47 -0.16,-0.24 -0.22,-0.29 -0.15,-0.09 -0.07,-0.09 -0.09,-0.14 -0.12,-0.14 -0.13,0.02 0.66,1.03 0.36,3.4 -0.02,0.14 0.01,0.24 -0.22,1.08 0.25,-1.15 0.18,-2.91 -0.09,-3.76 -0.06,-0.2 -0.28,-0.97 -0.48,-1.21 -0.24,-0.3 -0.37,-0.34 -0.46,-0.29 -0.15,0 -0.04,-0.19 -0.17,-0.28 -0.24,-0.15 -0.19,-0.18 -0.19,-0.43 0,-0.16 -0.15,-0.1 -0.2,0.08 -0.03,0.11 -0.17,0.31 -0.17,0.75 -0.05,-0.07 -0.1,-0.06 -0.12,-0.08 -0.04,-0.03 0,-0.13 0.01,-0.41 0,-0.06 -0.01,-0.14 -0.03,-0.18 -0.08,0.05 -0.17,0.13 -0.19,0.41 -0.01,0.01 -0.02,0.01 -0.02,0 -0.03,-0.05 0.02,-0.21 -0.01,-0.25 -0.02,-0.02 -0.14,0 -0.16,0.12 -0.03,0.12 -0.01,0.2 -0.02,0.26 -0.04,0 -0.07,0.02 -0.11,0.05 -0.01,-0.05 0.04,-0.24 -0.02,-0.29 -0.01,-0.12 0,-0.21 -0.04,-0.22 -0.12,0 -0.23,1.33 -0.24,1.7 -0.03,2.65 -0.07,3.96 0.45,6.49 -0.65,-1.94 -0.77,-5.15 -0.71,-6.03 0.08,-0.98 0.27,-2.18 0.27,-2.19 -0.74,-0.06 -1.4,0.29 -1.84,0.41 0.11,0.36 0.15,0.71 0.18,1.08 0.03,-0.15 -0.04,-0.37 0.08,-0.47 0.06,-0.04 0.08,-0.08 0.08,-0.04 -0.08,0.62 -0.01,2.59 -0.12,3.01 -0.04,-1 0.05,-1.87 -0.18,-2.57 -0.52,0.23 -1.3,0.47 -1.17,1.01 0,-0.08 -0.3,-0.56 -0.43,-0.79 0.07,-0.35 0.14,-0.58 0.15,-1.17 -0.13,0.11 -0.22,0.23 -0.31,0.41 0.06,-0.3 0.21,-0.45 0.28,-0.77 -0.52,0.24 -0.74,1.73 -0.84,2.31 -0.03,-0.31 0.08,-1.1 0.1,-1.36 -0.1,0.17 -0.14,0.37 -0.19,0.69 -0.04,0.23 -0.04,0.43 -0.08,0.79 -0.04,0.28 -0.02,1.29 0.07,1.64 0.05,0.17 0.17,0.6 0.3,0.92 0.01,0.02 0.02,0.11 0.03,0.14 -0.49,-0.89 -0.64,-1.96 -0.62,-2.16 -0.21,0.14 0.02,0.97 0.08,1.28 0.05,0.25 0.28,0.68 0.25,0.71 -0.01,0.01 -0.17,-0.28 -0.22,-0.42 -0.06,-0.22 -0.13,-0.43 -0.17,-0.55 0,0.2 0.02,0.29 0.06,0.49 0.06,0.22 0.36,0.91 0.56,1.09 -0.17,0.64 0.18,1.41 0.89,2.4 -0.84,-0.47 -1.06,-2.43 -1.08,-2.17 0.02,0.84 0.5,1.75 0.78,2.26 -0.15,-0.11 -0.37,-0.52 -0.49,-0.78 -0.14,-0.28 -0.2,-0.56 -0.24,-0.64 -0.01,0.05 -0.01,0.1 -0.01,0.15 0.11,0.55 0.55,1.18 0.87,1.69l0.08 0.12c0.01,0.03 -0.03,0.05 -0.05,0.04 -0.03,-0.03 -0.07,-0.06 -0.1,-0.09 -0.53,-0.47 -0.65,-0.9 -0.74,-1.14 -0.07,0.3 0.06,0.9 0.17,1.14 -0.13,-0.14 -0.39,-0.66 -0.46,-0.83 -0.15,-0.33 -0.31,-1.05 -0.39,-1.04z"/>
   <path class="fil2" d="M21.65 7.96c0.13,-0.83 0.14,-1.53 0.17,-2.08 0.05,-0.92 0.08,-1.46 0.08,-1.55 -0.08,0.4 -0.09,0.87 -0.15,1.56 -0.05,0.51 -0.12,1.17 -0.1,2.07z"/>
   <path class="fil7" d="M22.08 4.67c-0.05,1.18 -0.35,5.61 -0.41,6.42 0.25,-0.87 0.42,-2.43 0.45,-3.54 0.04,-1.27 -0.01,-2.74 -0.04,-2.88z"/>
   <path class="fil2" d="M25.25 8.07c0.08,0.57 -0.1,1.34 -0.33,2.06 -0.25,0.77 -0.57,1.48 -0.8,1.76 0.41,-0.71 0.96,-2.5 1.13,-3.82z"/>
   <path class="fil7" d="M22.91 7.51c-0.02,1.03 -0.36,2.26 -0.58,3.42 0.19,-0.4 0.34,-1.25 0.54,-1.92 0.21,-0.71 0.08,-1.33 0.04,-1.5z"/>
   <path class="fil8" d="M17.43 5.52c-0.03,0.45 0.31,3.09 0.77,3.57 -0.12,-0.31 -0.41,-1.17 -0.53,-1.97 -0.18,-1.09 -0.02,-1.51 -0.24,-1.6z"/>
   <path class="fil0" d="M14.21 14.93c0.01,0.02 0.02,0.05 0.03,0.07 0.18,-0.13 0.34,-0.23 0.41,-0.24 0.03,0.07 -0.25,0.23 -0.43,0.43 -0.38,0.43 -1.03,0.88 -1.38,1.17 -0.28,0.24 -0.45,0.42 -0.58,0.58 -0.14,0.16 -0.21,0.28 -0.79,0.34 -0.51,0.06 -0.32,-0.24 0.02,-0.31 0.41,-0.08 0.64,-0.21 0.93,-0.52 0.17,-0.19 0.91,-0.79 1.01,-0.84 0.06,-0.03 0.32,-0.23 0.59,-0.44 -0.03,-0.01 -0.05,-0.02 -0.06,-0.04l-0.09 -0.13c-0.21,-0.27 -0.7,-0.95 -0.89,-1.12 -0.41,-0.37 -0.77,-0.72 -1.03,-1.01 -0.28,-0.3 -0.45,-0.56 -0.47,-0.73 -0.05,-0.47 -0.06,-0.94 -0.05,-1.41 0.01,-0.47 0.05,-0.94 0.11,-1.43 0.06,-0.47 0.15,-1.04 0.27,-1.61 0.12,-0.62 0.26,-1.23 0.39,-1.72 0.15,-0.55 0.29,-1.01 0.41,-1.37l0.07 -0.21c0.06,-0.2 0.39,-1.14 0.88,-1.79 0.29,-0.39 0.63,-0.67 1.02,-0.67 0.28,0 0.35,0.07 0.74,0.43 0.11,0.1 0.24,0.22 0.39,0.35l0.1 0.09c0.25,0.19 0.76,0.6 1.27,1.42 0.05,0.1 0.12,0.21 0.17,0.32 0.26,0.44 0.7,1.24 0.82,1.44 0.29,0.49 0.53,1.46 0.63,2.47 0.1,0.91 0.08,1.85 -0.11,2.51 -0.03,0.08 -0.12,0.13 -0.2,0.1 -0.08,-0.02 -0.13,-0.11 -0.11,-0.19 0.18,-0.62 0.2,-1.52 0.11,-2.39 -0.1,-0.97 -0.33,-1.89 -0.6,-2.34 -0.11,-0.19 -0.56,-0.99 -0.81,-1.45l-0.18 -0.31c-0.47,-0.77 -0.95,-1.15 -1.19,-1.34l-0.11 -0.09c-0.18,-0.16 -0.3,-0.27 -0.4,-0.36 -0.31,-0.29 -0.37,-0.34 -0.52,-0.34 -0.27,-0.01 -0.53,0.23 -0.77,0.54 -0.45,0.61 -0.77,1.5 -0.83,1.69l-0.07 0.22c-0.11,0.36 -0.26,0.82 -0.4,1.35 -0.13,0.48 -0.27,1.09 -0.39,1.7 -0.11,0.56 -0.21,1.12 -0.26,1.59 -0.06,0.49 -0.1,0.95 -0.12,1.4 -0.01,0.45 0.01,0.9 0.06,1.37 0.01,0.1 0.15,0.29 0.39,0.55 0.24,0.28 0.6,0.61 1,0.99 0.21,0.19 0.72,0.88 0.93,1.17l0.09 0.11z"/>
   <path class="fil4" d="M18.64 5.56c-0.2,0.13 -0.21,0.11 -0.2,0.19 0.04,0.28 0.17,0.94 0.24,1.15 -0.01,-0.19 -0.02,-1.23 -0.04,-1.34z"/>
   <path class="fil9" d="M23.66 14.97c1.74,-0.06 2.3,-0.73 2.54,-2 -0.31,0.78 -0.53,1.33 -0.75,1.46 0.15,-0.19 0.41,-0.89 0.53,-1.29 0.07,-0.22 0.01,-0.34 0.13,-0.58 -0.19,0.05 -0.59,0.04 -0.64,-0.07 -0.16,0 -0.29,-0.04 -0.33,-0.08 -0.13,-0.02 -0.22,-0.06 -0.22,-0.09 0,-0.04 0.27,-0.07 0.38,-0.14 0.09,-0.06 0.21,-0.13 0.29,-0.16 0.2,-0.09 0.49,-0.55 0.47,-0.62 -0.1,0.18 -0.27,0.32 -0.42,0.47 -0.11,0.1 -0.31,0.21 -0.52,0.27 -0.22,0.08 -0.61,0.08 -0.63,-0.13 -0.12,-0.01 -0.19,0 -0.25,0.05 -0.18,0.16 -0.26,0.15 -0.32,-0.02 -0.07,0.08 -0.16,0.14 -0.17,0.15 -0.04,0.03 -0.08,-0.01 -0.11,-0.04 -0.49,0.11 -1.03,0.07 -1.25,0.02 -0.09,-0.03 -0.16,0.07 -0.23,0.07 0.48,-0.47 0.76,-1 0.89,-1.21 0.25,-0.4 0.6,-1.44 0.76,-2.56 -0.11,0.7 -0.68,2.43 -1.12,2.93 -0.14,0.17 -0.37,0.38 -0.49,0.52 -0.27,0.3 -0.42,0.22 -0.24,0.08 -0.06,0.02 -0.16,-0.06 -0.07,-0.19 -0.08,0.12 -0.12,0.17 -0.17,0.26 -0.06,0.08 -0.15,0.09 -0.25,0.07 -0.31,1.01 -0.52,2.93 2.19,2.83z"/>
   <path class="fil2" d="M26.5 10.62c-0.01,-0.3 -0.03,-0.64 -0.03,-0.91 0,-0.18 0.03,-0.35 0.04,-0.52 0.43,-0.32 0.37,-0.45 0.59,-0.63 0.07,-0.06 0.16,-0.21 0.25,-0.27 0.23,-0.17 0.48,-0.32 0.73,-0.49 -0.39,0.73 -0.73,1.15 -0.9,1.84 0.14,-0.21 0.74,-0.96 0.99,-1.16 -1.08,1.61 -1.1,4.75 -1.11,4.74 -0.28,-0.17 -0.19,-2.4 -0.14,-2.63 -0.2,0.5 -0.25,0.88 -0.28,1.36 -0.08,-0.44 -0.05,-1.04 -0.14,-1.33z"/>
   <path class="fil5" d="M30.13 6.8c-0.46,0.47 -1.79,1.32 -2.01,1.82 -0.05,0.09 -0.11,0.18 -0.19,0.27 -0.74,1.48 -0.85,3.7 -0.86,4.22 0.01,0.35 -0.01,0.53 0.12,0.53 0.03,0 -0.02,-0.06 0.01,-0.17 0.02,-0.08 0.02,-0.48 0.05,-0.64 0.02,0.12 0.2,0.49 0.23,0.46 0.08,-0.06 -0.19,-0.82 0.09,-2.58 0.12,-0.71 0.44,-1.65 0.73,-2.02 0.45,-0.58 1.77,-1.5 1.91,-1.75 0.06,-0.11 0.07,-0.29 -0.08,-0.14z"/>
   <path class="fil2" d="M28.05 7.95c0.21,-0.1 0.37,-0.28 0.5,-0.32 0.18,-0.07 0.63,-0.45 0.99,-0.67 -0.09,0.2 -0.58,0.59 -0.7,0.89 0.47,-0.38 1.03,-0.78 1.29,-1.05 0.04,-0.04 0.07,-0.06 0.09,-0.06 -0.01,-0.02 -0.02,-0.04 -0.05,-0.07 -0.01,-0.03 -0.22,-0.19 -0.34,-0.25 -0.17,0.23 -0.62,0.57 -0.68,0.63 -0.22,0.18 -0.45,0.34 -0.68,0.5 -0.07,0.09 -0.19,0.21 -0.42,0.4z"/>
   <path class="fil10" d="M27.62 8.1l0 0 0 0 0 0zm0.46 -0.3c-0.39,0.73 -0.73,1.15 -0.9,1.84 0.14,-0.21 0.74,-0.96 0.99,-1.16 -0.08,0.13 -0.16,0.27 -0.24,0.41 0.08,-0.09 0.14,-0.18 0.19,-0.27 0.09,-0.21 0.38,-0.49 0.72,-0.77 0.12,-0.3 0.61,-0.69 0.7,-0.89 -0.36,0.22 -0.81,0.6 -0.99,0.67 -0.13,0.04 -0.29,0.22 -0.5,0.32 0.23,-0.19 0.35,-0.31 0.42,-0.4 -0.13,0.08 -0.26,0.17 -0.39,0.25zm-0.4 1.69l-0.01 0.02 0 0 0.01 -0.02zm1.93 -2.84l0.01 -0.01 0 0 -0.01 0.01z"/>
   <path class="fil10" d="M14.12 5.06c-0.96,1.1 -1.11,2.17 -1.11,3.77 -0.63,-1.38 -0.48,-1.98 -0.46,-2.93l0 0c-0.11,0.44 -0.29,1.19 -0.41,1.74l0 0.03 0 0 -0.01 0.02 0 0.01 -0.01 0.02 0 0.01 0 0.02c-0.11,0.56 -0.21,1.12 -0.26,1.59 -0.06,0.49 -0.1,0.95 -0.12,1.4l0 0.02 0 0c-0.01,0.44 0.01,0.87 0.06,1.32 0.06,0.13 0.13,0.25 0.2,0.36 0.05,0.07 0.11,0.14 0.19,0.22 0.24,0.28 0.6,0.61 1,0.99 0.08,0.07 0.21,0.21 0.34,0.38 0.22,0.15 0.6,0.37 0.84,0.46 0.41,0.16 0.79,0.17 0.8,0.04l-0.01 0.01c-0.01,0 -0.01,-0.01 -0.01,-0.01 -0.53,0.01 -1.02,-0.4 -1.29,-0.78 -0.4,-0.55 -0.42,-0.57 -0.49,-0.85 -0.14,-0.58 0.24,-0.86 0.55,-0.87 -0.13,-0.15 -0.1,-0.38 -0.04,-0.48 -0.48,-0.39 -0.51,-0.72 -0.51,-1.07 0,-0.13 -0.1,-0.25 0.01,-0.25 0.05,0.01 0.12,0.34 0.32,0.29 -0.11,-0.17 -0.41,-0.65 -0.35,-0.69 0.04,-0.04 0.44,0.61 0.55,0.73 0.03,0 0.27,0.17 0.38,0.18 -0.21,-0.23 -0.43,-0.97 -0.44,-1 -0.17,-0.58 -0.13,-1.39 -0.08,-1.74 0.19,-1.43 0.44,-2.22 0.59,-2.45 -0.04,-0.03 -0.25,-0.05 0.04,-0.28 -0.12,-0.09 -0.18,-0.1 -0.27,-0.21zm-1.96 6.08c0,0.22 0.05,0.43 0.11,0.57 0.03,0.06 0.2,0.39 0.28,0.51 0.19,0.3 0.43,0.51 0.67,0.6 -0.1,-0.3 -0.21,-0.44 -0.28,-0.68 -0.04,-0.13 -0.21,-0.41 -0.22,-0.53 -0.01,-0.1 -0.49,-0.32 -0.56,-0.47zm2.43 -6.23c-0.01,-0.02 -0.01,-0.03 -0.02,-0.04l0.02 0.04z"/>
   <path class="fil5" d="M20.68 22.03c0.34,-0.43 0.6,-0.93 0.98,-1.31 0.28,-0.27 0.49,-0.64 1.42,-0.62 0.1,0 0.23,-0.07 0.48,-0.2 0.22,-0.12 0.37,-0.36 0.47,-0.44 -0.09,0.22 -0.21,0.36 -0.4,0.54 -0.02,0.01 -0.09,0.02 -0.22,0.13 0.32,-0.04 0.69,0.08 0.76,0.08 0.35,0.02 0.9,-0.24 1.19,-0.41 -0.01,0.03 -0.08,0.1 -0.19,0.18 -0.34,0.23 -0.38,0.23 -0.75,0.33 0.06,0.01 0.68,0.18 0.98,0.2 0.33,0.04 0.69,0.05 0.97,0.04 -0.1,0.09 -0.44,0.17 -0.9,0.17 -0.05,0 -0.54,-0.06 -0.64,-0.09 0,0.05 0.4,0.21 0.69,0.2 0.18,0 0.27,-0.02 0.53,-0.02 -0.07,0.03 -0.18,0.03 -0.26,0.05 -0.37,0.1 -0.81,0.07 -1.06,-0.06 -0.22,0.45 -0.49,0.81 -0.57,0.89 -0.48,0.44 -1.25,0.63 -2.13,0.4 -0.21,-0.06 -0.35,-0.19 -0.45,-0.24 -0.13,-0.06 -0.32,-0.14 -0.34,-0.14 -0.31,0.38 -0.56,0.59 -0.67,0.65 -0.01,0 -0.03,-0.01 -0.05,0.01 -0.05,0.05 -0.15,0.13 -0.21,0.14 0.01,-0.08 0.22,-0.28 0.37,-0.48z"/>
   <path class="fil4" d="M21.95 20.87c-0.18,0.48 0.48,0.42 0.57,0.16 0.23,-0.64 -0.43,-0.54 -0.57,-0.16z"/>
   <path class="fil4" d="M21.54 21.49c-0.03,0.21 0.25,0.24 0.29,0.12 0.11,-0.3 -0.25,-0.47 -0.29,-0.12z"/>
   <path class="fil4" d="M23.38 20.78c0.05,-0.05 0.02,-0.3 -0.08,-0.29 -0.2,0.02 -0.13,0.5 0.08,0.29z"/>
   <path class="fil7" d="M24.07 20.55c-0.18,0.54 -0.62,1.08 -1.19,1.26 -0.17,0.05 0.1,0.18 0.22,0.13 0.07,-0.02 0.22,-0.09 0.28,-0.13 -0.03,0.27 0.79,-0.36 0.83,-1.02 0,-0.02 0.01,-0.12 -0.01,-0.2 -0.01,0.01 -0.01,0.11 -0.03,0.14 0,-0.08 -0.02,-0.17 -0.1,-0.18z"/>
   <path class="fil4" d="M12.16 11.14c0,0.22 0.05,0.43 0.11,0.57 0.03,0.06 0.2,0.39 0.28,0.51 0.19,0.3 0.43,0.51 0.67,0.6 -0.1,-0.3 -0.21,-0.44 -0.28,-0.68 -0.04,-0.13 -0.21,-0.41 -0.22,-0.53 -0.01,-0.1 -0.49,-0.32 -0.56,-0.47z"/>
   <path class="fil10" d="M28.49 9.35c-0.05,0.18 -0.2,0.93 -0.15,1.44 0.08,0.65 0.27,1.76 0.51,1.66 0.02,-0.15 0.07,-0.59 0.45,-0.81 -0.07,-0.17 -0.19,-0.58 -0.1,-0.77 0.04,0.07 0.04,0.18 0.16,0.4 -0.03,-0.13 -0.13,-0.74 -0.1,-0.84 0.01,0.23 0.61,0.82 0.82,0.82 -0.03,-0.05 -0.38,-0.21 -0.59,-0.46 -0.14,-0.16 -0.15,-0.33 -0.14,-0.33 0.07,-0.02 0.08,-0.01 0.32,0.14 0.14,0.08 0.28,0.21 0.48,0.18 -0.44,-0.56 0.17,-1.34 0.29,-1.34 0.03,0 -0.34,0.36 -0.35,0.8 -0.01,0.27 0.15,0.5 0.17,0.54 0.02,0 0.04,0 0.05,-0.01 -0.32,-0.46 0.1,-1.33 0.22,-1.32 0,-0.05 0.01,-0.06 0.03,-0.08 0.02,0.06 0.1,0.14 0.17,0.14 0.09,0 0.43,-0.05 0.45,-0.11 -0.03,-0.55 0.1,-1.08 0.16,-1.28 -0.07,-0.04 -0.5,-0.7 -0.55,-0.61 -0.22,0.45 -0.39,1.41 -0.43,1.73 -0.04,0.03 -0.13,0.07 -0.2,0.09 -0.06,-0.08 -0.1,-0.16 -0.12,-0.28 0.02,-0.48 0.14,-1.56 0.33,-1.91 0.04,-0.04 -0.06,-0.18 -0.15,-0.23 0,0.01 -0.01,0.02 -0.01,0.03 -0.09,0.17 -0.72,0.64 -1.26,1.1 -0.1,0.29 -0.4,1.01 -0.46,1.31z"/>
   <path class="fil11" d="M30.32 7c0.01,0 0.12,0.09 0.15,0.1 0.2,0.07 0.38,0.19 0.41,0.42l0 0.04c-0.04,-0.05 -0.07,-0.07 -0.09,-0.05 -0.22,0.45 -0.39,1.41 -0.43,1.73 -0.04,0.03 -0.13,0.07 -0.2,0.09 -0.06,-0.08 -0.1,-0.16 -0.12,-0.28 0.02,-0.48 0.14,-1.56 0.33,-1.91 0.02,-0.03 0,-0.09 -0.05,-0.14z"/>
   <path class="fil2" d="M31.36 8.07c0.12,0.03 0.02,0.02 0.17,0.17 0.07,0.07 0.22,0.22 0.14,0.33 -0.06,0.08 -0.1,0.47 -0.17,0.58 -0.06,0.11 -0.05,0.16 -0.16,0.31 -0.08,0.11 -0.24,0.22 -0.38,0.26 -0.11,0.04 -0.17,0.02 -0.27,-0.05 -0.12,-0.09 -0.13,-0.09 -0.13,0.1 0,0.16 0.07,0.33 0.14,0.47 0.1,0.21 0.01,0.01 0.03,0.23 0,0.07 0.1,0.27 0.21,0.26 0.13,0 0.07,0.02 0,0.12 -0.09,0.14 -0.43,0.4 -0.61,0.3 -0.18,-0.1 -0.35,-0.13 -0.52,-0.27 -0.14,-0.11 -0.18,-0.13 -0.32,-0.27 -0.01,-0.01 -0.07,-0.05 -0.14,-0.09 -0.01,-0.04 -0.01,-0.06 0,-0.06 0.07,-0.02 0.08,-0.01 0.32,0.14 0.14,0.08 0.28,0.21 0.48,0.18 -0.44,-0.56 0.17,-1.34 0.29,-1.34 0.03,0 -0.34,0.36 -0.35,0.8 -0.01,0.27 0.15,0.5 0.17,0.54 0.02,0 0.04,0 0.05,-0.01 -0.32,-0.46 0.1,-1.33 0.22,-1.32 0,-0.05 0.01,-0.06 0.03,-0.08 0.02,0.06 0.1,0.14 0.17,0.14 0.09,0 0.43,-0.05 0.45,-0.11 -0.03,-0.55 0.1,-1.08 0.16,-1.28 -0.01,0 -0.02,-0.02 -0.04,-0.04 0.01,-0.01 0.03,-0.02 0.06,-0.01zm-2.1 2.37l-0.01 0 0.01 -0.01 0 0.01zm0.96 -1.13c0.03,-0.02 0.06,-0.04 0.1,-0.06 0.01,-0.01 0.03,-0.01 0.04,-0.02l0 0.01c-0.03,0.02 -0.08,0.05 -0.14,0.07z"/>
   <path class="fil5" d="M31.68 8.43c0.02,0.01 0.04,0.01 0.08,0.03 0.2,0.13 0.2,0.3 0.4,0.43 0.04,0.03 0.15,0.27 0.06,0.37 -0.21,0.23 -0.48,0.43 -0.79,0.53 0.02,0.04 0.2,-0.02 0.3,-0.03 -0.17,0.24 -0.57,0.19 -0.75,0.12 0.04,0.05 0.28,0.18 0.39,0.2 0.2,0.02 -0.15,0.14 -0.25,0.12 -0.09,-0.01 -0.23,-0.1 -0.29,-0.16 0.11,0.2 0.19,0.29 0.33,0.33 0.29,0.23 -0.08,0.22 -0.23,0.11 -0.04,-0.02 -0.11,-0.11 -0.06,0.01 0,0.01 0.06,0.07 0.07,0.08 0.14,0.17 0.46,-0.14 0.35,0.12 -0.1,0.25 -0.49,0.4 -0.71,0.44 -0.09,0.04 -0.18,0.06 -0.25,0.02 -0.18,-0.1 -0.35,-0.13 -0.52,-0.27 -0.14,-0.11 -0.18,-0.13 -0.32,-0.27 -0.01,-0.01 -0.07,-0.05 -0.14,-0.09 0.02,0.06 0.05,0.17 0.14,0.27 0.21,0.25 0.56,0.41 0.59,0.46 -0.21,0 -0.79,-0.57 -0.82,-0.81l-0.01 0c-0.01,0.12 0.08,0.7 0.11,0.83 -0.12,-0.22 -0.12,-0.33 -0.16,-0.4 -0.09,0.19 0.02,0.57 0.1,0.76l0.01 0.02c0.04,0.1 0.11,0.19 0.19,0.26 -0.28,0.18 -0.39,0.58 -0.3,0.89l0 0 0 0c-0.24,0.45 0.37,0.32 0.06,0.43 -0.08,0.03 -0.23,0.16 -0.11,0.23 0.13,0.08 0.06,0.06 -0.14,0.16 -0.38,0.18 -0.6,0.28 -0.85,0.71 -0.12,0.02 -0.47,-0.15 -0.67,-0.22 0.34,0.36 0.66,0.51 1.09,0.51 0,0 -0.23,0.04 -0.36,0.1 -0.19,0.09 -0.31,0.04 -0.33,0.08 -0.04,0.14 0.89,0.43 1.26,-0.35 0.03,-0.05 0.07,-0.04 0.08,-0.06 0.02,-0.02 -0.27,0.03 -0.37,0.05 0.19,-0.07 0.48,-0.23 0.58,-0.35 0.06,-0.07 0.09,-0.11 -0.07,-0.04 -0.14,0.07 -0.69,0.42 -1.07,0.33 0.29,-0.43 0.63,-0.57 1.05,-0.74 0.12,-0.05 0.22,-0.25 0.01,-0.27 -0.09,-0.01 0.26,-0.13 0.12,-0.3 -0.02,-0.03 -0.02,-0.05 0,-0.07 0.02,-0.01 0.04,-0.03 0.06,-0.03 0.16,-0.06 0.21,-0.1 0.22,-0.14 0.05,-0.04 0.08,-0.11 -0.01,-0.23l-0.01 -0.01c0.02,-0.02 0.03,-0.04 0.05,-0.05 0.5,0.01 0.41,-0.32 0.53,-0.41 0.22,-0.16 -0.08,-0.19 -0.14,-0.21 -0.39,-0.14 -0.65,-0.64 -0.81,-1.05 0.14,0.27 0.81,0.89 1.25,0.47 0.18,-0.02 0.4,-0.18 0.4,-0.25 -0.01,-0.03 -0.16,0.07 -0.44,0.04 0.15,-0.06 0.3,-0.19 0.36,-0.28 0.07,-0.1 0.13,-0.12 0,-0.12 -0.11,0.01 -0.21,-0.19 -0.21,-0.26 -0.02,-0.22 0.07,-0.02 -0.03,-0.23 -0.07,-0.14 -0.14,-0.31 -0.14,-0.47 0,-0.19 0.01,-0.19 0.13,-0.1 0.1,0.07 0.16,0.09 0.27,0.05 0.14,-0.04 0.3,-0.15 0.38,-0.26 0.11,-0.15 0.1,-0.2 0.16,-0.31 0.07,-0.11 0.11,-0.5 0.17,-0.58 0.03,-0.04 0.03,-0.09 0.01,-0.14z"/>
   <path class="fil2" d="M29.3 11.63l0 0.01c-0.38,0.22 -0.43,0.66 -0.45,0.81 0,0.16 -0.02,0.3 0.04,0.45 -0.44,-0.02 -1.03,0.58 -0.94,1.39 0.03,0.01 0.05,0.02 0.07,0.02l0 0c-0.02,-0.51 0.31,-1.03 0.66,-1.23 0.06,-0.03 0.26,-0.1 0.27,0.01 0,0.05 -0.11,0.06 -0.19,0.17 -0.05,0.08 -0.15,0.13 -0.22,0.19 -0.27,0.23 -0.46,0.49 -0.46,0.88 0.03,0 0.06,0.01 0.08,0 0.25,-0.43 0.47,-0.53 0.85,-0.71 0.2,-0.1 0.27,-0.08 0.14,-0.16 -0.12,-0.07 0.03,-0.2 0.11,-0.23 0.31,-0.11 -0.3,0.02 -0.06,-0.43l0 0 0 0c-0.09,-0.31 0.02,-0.71 0.3,-0.89 -0.08,-0.07 -0.15,-0.16 -0.19,-0.26l-0.01 -0.02z"/>
   <path class="fil4" d="M28.02 14.31c-0.02,-0.51 0.31,-1.03 0.66,-1.23 0.06,-0.03 0.26,-0.1 0.27,0.01 0,0.05 -0.11,0.06 -0.19,0.17 -0.05,0.08 -0.15,0.13 -0.22,0.19 -0.27,0.23 -0.46,0.49 -0.46,0.88 -0.02,-0.01 -0.04,-0.01 -0.06,-0.02l0 0z"/>
   <path class="fil2" d="M21.67 16.93c-0.14,0.22 -1.06,1.76 -0.35,2.16 0.61,0.09 0.2,-0.69 1.28,-0.4 0.24,0.06 0.55,0.13 0.77,0.12 0.24,-0.02 0.48,-0.33 0.56,-0.58 0.07,-0.22 0.14,-0.43 0.16,-0.66 0.03,-0.25 -0.3,-0.92 -0.44,-1.13 -0.51,-0.75 -0.95,-0.82 -1.54,-0.13l0.05 -0.02c0.17,-0.07 0.67,-0.24 0.35,-0.09 -0.21,0.1 -0.4,0.21 -0.56,0.32 -0.09,0.12 -0.18,0.26 -0.28,0.41z"/>
   <path class="fil5" d="M22.16 16.29c-0.16,0.08 -0.39,0.16 -0.59,0.33 -0.32,0.29 -0.36,0.37 -0.59,0.74 -0.19,0.29 -0.35,0.58 -0.44,0.87 0.13,-0.15 0.22,-0.37 0.31,-0.5 0.13,-0.17 0.57,-1.03 1.66,-1.53 0.32,-0.15 -0.18,0.02 -0.35,0.09z"/>
   <path class="fil5" d="M21.85 17.52c0.43,-0.4 1.08,-0.92 1.63,-0.76 0.53,0.15 0.98,0.46 1.28,0.8 0.08,0.09 0.41,0.47 0.51,0.65 -0.19,-0.18 -0.54,-0.54 -0.61,-0.59 -0.29,-0.19 -0.25,-0.24 -0.67,-0.43 -0.19,-0.09 -0.72,-0.44 -1.31,-0.04 0.73,-0.19 1.36,0 1.82,0.53 0.22,0.24 -0.32,-0.07 -0.42,-0.16 -0.23,-0.2 -0.58,-0.25 -0.89,-0.28 -1.04,-0.08 -1.48,0.79 -2.11,1.63 -0.29,0.38 -0.52,0.72 -0.53,0.72 -0.27,0 1.01,-1.79 1.3,-2.07z"/>
   <path class="fil2" d="M24.9 20.15c0.57,0.61 1.78,0.33 2.74,-0.42 0.21,-0.17 1.77,-1.44 1.91,-1.65 0.35,0.19 0.84,0.71 1,1.41 -0.08,-0.2 -0.98,-1.21 -0.63,-0.62 0.18,0.3 0.41,0.63 0.57,0.99 0.18,0.41 0.31,0.88 0.47,1.08 0,-0.02 0.01,-0.04 0.01,-0.07 -0.05,-0.35 -0.14,-0.79 -0.14,-0.96 -0.01,-0.61 0.61,-0.81 1.15,-0.77 -0.07,-0.03 -0.21,-0.08 -0.38,-0.08 -0.06,0.01 -0.13,0.02 -0.2,0.02 -0.09,0.01 -0.19,0.05 -0.26,0.09 -0.31,0.2 -0.47,0 -0.2,-0.15 0,-0.02 0,-0.04 0,-0.07 -0.09,0 -0.1,-0.13 0.05,-0.24 0.07,-0.06 0.22,-0.08 0.38,-0.12 -0.02,-0.01 -0.36,-0.08 -0.61,0.08 -0.06,-0.53 0.09,-2.42 -0.47,-2.65 -0.23,-0.09 -0.56,-0.04 -0.73,0.04 0.34,-0.08 0.62,-0.01 0.6,0.06 0,0.04 -0.16,0.06 -0.24,0.14 -0.25,0.21 -0.49,0.41 -0.67,0.66 0.14,-0.07 0.73,-0.15 0.72,0.07 -0.22,-0.02 -0.64,0.26 -0.55,0.26 0.3,0 0.73,-0.02 0.81,0.2 0.11,0.27 0.03,0.11 -0.08,0.08 -0.32,-0.09 -0.03,0.01 0.02,0.12 0.1,0.23 -0.06,0.12 -0.15,0.09 -0.15,-0.05 -0.33,-0.08 -0.41,-0.03 -0.27,0.16 -0.34,-0.02 -0.19,-0.14 0.07,-0.06 0.19,-0.09 0.3,-0.1 -0.05,-0.03 -0.1,-0.03 -0.18,-0.03 -0.19,0.19 -0.22,-0.02 -0.18,-0.07 -0.21,-0.03 -0.15,-0.3 0.08,-0.38 -0.12,-0.01 -0.22,0.06 -0.26,0.11 -0.14,0.22 -0.21,-0.3 0.44,-0.72 -0.29,0.11 -0.47,0.41 -0.47,0.41 -0.05,-0.33 0.81,-0.69 0.26,-0.5 -0.43,0.16 -0.19,0.04 -0.17,-0.04 0.08,-0.23 0.22,-0.44 0.4,-0.64 -0.03,0.02 -0.07,0.04 -0.11,0.06 -1.22,0.92 -1.28,1.52 -2.4,2.41 -1.06,1.03 -2.88,1.02 -2.3,1.98 0.21,-0.09 0.4,-0.18 0.53,-0.26 -0.01,0.03 -0.08,0.1 -0.19,0.18 -0.12,0.08 -0.2,0.13 -0.27,0.17z"/>
   <path class="fil5" d="M33.83 12.09c-0.25,0.37 -1.86,1.39 -2.39,2.1 -0.61,0.56 -1.92,1.19 -2.2,2.06 -0.02,0.08 -0.26,0.2 0.17,0.04 0.55,-0.19 -0.31,0.17 -0.26,0.5 0,0 0.18,-0.3 0.47,-0.41 -0.65,0.42 -0.58,0.94 -0.44,0.72 0.04,-0.05 0.14,-0.12 0.26,-0.11 -0.23,0.08 -0.29,0.35 -0.08,0.38 -0.04,0.05 -0.01,0.26 0.18,0.07 0.08,0 0.13,0 0.18,0.03 -0.11,0.01 -0.23,0.04 -0.3,0.1 -0.15,0.12 -0.08,0.3 0.19,0.14 0.08,-0.05 0.26,-0.02 0.41,0.03 0.09,0.03 0.25,0.14 0.15,-0.09 -0.05,-0.11 -0.34,-0.21 -0.02,-0.12 0.11,0.03 0.19,0.19 0.08,-0.08 -0.08,-0.22 -0.51,-0.2 -0.81,-0.2 -0.09,0 0.33,-0.28 0.55,-0.26 0.01,-0.22 -0.58,-0.14 -0.72,-0.07 0.18,-0.25 0.42,-0.45 0.67,-0.66 0.08,-0.08 0.24,-0.1 0.24,-0.14 0.02,-0.07 -0.26,-0.14 -0.6,-0.06 0.17,-0.08 0.5,-0.13 0.73,-0.04 0.56,0.23 0.41,2.12 0.47,2.65 0.25,-0.16 0.59,-0.09 0.61,-0.08 -0.16,0.04 -0.31,0.06 -0.38,0.12 -0.21,0.16 -0.11,0.36 0.13,0.16 0.1,-0.08 0.33,-0.11 0.59,-0.08 0.19,0.03 0.4,-0.06 0.52,-0.07 -0.45,-0.17 -0.63,-0.21 -0.76,-0.27 0.03,-0.03 0.16,-0.05 0.32,0.03 0.07,0.03 0.11,0.02 0.16,0 0.08,-0.03 0.13,0.06 0.4,0.06 0.21,0 0.67,-0.22 0.41,-0.25 -0.44,-0.03 -1.21,-0.4 -1.19,-0.55 0.46,0.34 0.75,0.44 0.96,0.49 0.14,0.03 0.51,0.03 0.92,-0.37 -0.15,0.05 -0.49,0.2 -0.7,0.21 -0.44,0.03 -1.27,-0.55 -1.35,-1.01 -0.04,-0.25 -0.01,-0.49 0.01,-0.57 0.01,-0.01 0.94,-0.48 1.07,-0.9 -0.16,0.07 -0.84,0.55 -1.03,0.65 0.01,-0.06 0.02,-0.12 0.02,-0.2 0.13,-0.08 0.94,-0.54 1.13,-1 -0.07,0.01 -0.44,0.35 -0.53,0.39 0.15,-0.17 0.6,-0.56 0,-0.22 -0.03,0.01 -0.53,0.28 0.16,-0.18 0.07,-0.04 0.27,-0.23 0.46,-0.42 0.05,-0.06 0.12,-0.11 0.13,-0.16 -0.04,0.01 -0.14,0.07 -0.21,0.1 0.01,-0.02 0.14,-0.13 0.1,-0.11 -0.05,0.02 -0.16,0.08 -0.23,0.13 -0.04,0.01 -0.1,-0.01 -0.12,0 -0.19,0.08 -0.36,0.14 -0.41,0.14 0.47,-0.36 0.7,-0.6 1.04,-1.07 0.13,-0.18 -0.23,0.19 -0.37,0.28 0.08,-0.13 0.35,-0.44 0.45,-0.57 0.33,-0.47 0.38,-0.44 0.8,-0.65 0.36,-0.18 -0.16,-0.03 -0.43,0.06 0.01,-0.02 0.5,-0.37 0.59,-0.76 0.01,-0.04 -0.18,0.06 -0.2,0.09z"/>
   <path class="fil10" d="M20.79 18.92c-0.03,0.1 -0.33,0.55 -0.45,0.82 -0.21,0.51 -0.13,0.67 0.07,0.89 0.07,-0.1 0.13,-0.17 0.19,-0.21 -0.06,0.12 -0.07,0.14 -0.15,0.3 -0.09,0.16 -0.05,0.2 -0.12,0.33 -0.37,0.65 -0.76,1.42 -1.15,2.26 0.01,0.09 0.06,0.08 0.18,-0.22 0.18,-0.41 0.66,-1.13 1.04,-1.54 0.07,-0.07 0.49,-0.36 0.66,-0.46 -0.2,0.36 -0.31,0.59 -0.4,0.8 -0.08,0.17 -0.15,0.21 -0.06,0.25 0.03,-0.03 0.06,-0.07 0.08,-0.11 0.24,-0.29 0.43,-0.62 0.65,-0.92 -0.11,0.03 -0.11,-0.05 -0.07,-0.16 -0.09,0.1 -0.16,0.2 -0.23,0.28 0.2,-0.43 0.5,-0.75 0.86,-1.02 0.37,-0.28 0.78,-0.37 1.5,-0.22 -0.14,0.01 -0.44,0 -0.6,-0.01 -0.13,0 -0.24,0.01 -0.36,0.04 0.11,0.01 0.09,0.08 0.07,0.13 0.15,-0.03 0.34,-0.05 0.58,-0.05 0.1,0 0.23,-0.07 0.48,-0.2 0.17,-0.1 0.3,-0.26 0.39,-0.37 -0.14,-0.05 -0.29,-0.11 -0.47,-0.16 -0.26,-0.08 -0.28,-0.08 -0.54,0.01 -0.39,0.14 -0.8,0.28 -1.21,0.55 -0.14,0.09 -0.57,0.47 -0.74,0.2 -0.12,-0.18 0.24,-0.67 0.4,-0.92 0.02,-0.04 0.04,-0.07 0.04,-0.11 -0.03,0 -0.07,0 -0.11,-0.01 -0.11,-0.06 -0.18,-0.15 -0.22,-0.25l-0.02 0.03c-0.29,0.38 -0.52,0.72 -0.53,0.72 -0.12,0 0.04,-0.32 0.29,-0.71 -0.03,0.02 -0.05,0.03 -0.05,0.04zm4.08 1.5c-0.01,-0.06 -0.04,-0.14 -0.07,-0.22 -0.1,0.04 -0.2,0.06 -0.38,0.11 0.03,0.01 0.23,0.06 0.45,0.11zm-0.14 -0.32l-0.02 -0.03c-0.19,-0.23 -0.41,-0.39 -0.72,-0.52 -0.09,0.17 -0.2,0.3 -0.36,0.45 -0.02,0.01 -0.09,0.02 -0.22,0.13 0.32,-0.04 0.69,0.08 0.76,0.08 0.16,0.01 0.36,-0.04 0.56,-0.11z"/>
   <path class="fil5" d="M21.03 21.23c0.34,-0.41 0.9,-1.27 1.76,-1.25 0.16,0.01 0.46,0.02 0.6,0.01 -0.72,-0.15 -1.13,-0.06 -1.5,0.22 -0.36,0.27 -0.66,0.59 -0.86,1.02z"/>
   <path class="fil5" d="M14.41 32.82c0.56,-0.24 1.25,-1.75 2.49,-4.46 1.2,-2.62 2.37,-5.44 3.43,-7.31 0.07,-0.13 0.03,-0.17 0.12,-0.33 0.08,-0.16 0.09,-0.18 0.15,-0.3 -0.61,0.47 -2.37,4.43 -3.82,7.75 -0.91,2.09 -1.95,4.36 -2.37,4.65z"/>
   <path class="fil5" d="M21.09 22.17c0.15,-0.16 0.37,-0.04 0.63,0.07 0.23,0.09 0.47,0.17 0.69,0.16 0.34,-0.02 0.51,-0.05 1.06,-0.14 -0.15,0.08 -0.47,0.16 -0.6,0.19 -0.44,0.09 -0.83,0.16 -1.28,-0.06 -0.07,-0.03 -0.28,-0.08 -0.15,-0.1 0.01,-0.01 0.22,0.02 0.32,0.03 -0.14,-0.05 -0.46,-0.27 -0.67,-0.15z"/>
   <path class="fil5" d="M19.98 23c0.35,0.22 0.89,-0.2 1.01,-0.38 -0.2,0 -0.41,0.18 -0.62,0.24 -0.15,0.04 -0.29,0.05 -0.37,0.05 -0.05,0.01 -0.08,0.05 -0.02,0.09z"/>
   <path class="fil5" d="M24.98 21.56c-0.55,0.17 -1.17,0.79 -1.29,1.21 0.21,-0.31 0.54,-0.65 0.67,-0.75 0.27,-0.21 0.66,-0.47 0.62,-0.46z"/>
   <path class="fil5" d="M25.15 21.67c-0.35,0.04 -1.11,0.62 -1.29,1.06 0.01,-0.01 0.25,-0.25 0.54,-0.49 0.29,-0.24 0.64,-0.46 0.75,-0.57z"/>
   <path class="fil10" d="M21.75 22.46c0.19,0.12 0.4,0.28 0.8,0.35 0.28,0.06 0.7,0.08 0.78,0.06 0.08,-0.03 0.14,-0.04 0.04,0.03 -0.02,0.02 -0.08,0.04 -0.1,0.07 -0.01,0.02 0.13,-0.02 0.12,-0.01 -0.58,0.49 -1.18,0.25 -1.62,0.2 0.44,0.38 1.13,0.36 1.44,0.15 0.76,-0.48 1.01,-0.87 1.42,-1.25 -0.08,0.06 -0.16,0.12 -0.23,0.18 -0.29,0.24 -0.53,0.48 -0.54,0.49 0.12,-0.3 0.51,-0.66 0.85,-0.87 0.01,-0.04 0.03,-0.08 0.04,-0.13 -0.12,0.09 -0.27,0.19 -0.39,0.29 -0.13,0.1 -0.46,0.44 -0.67,0.75 0.1,-0.37 0.6,-0.89 1.09,-1.13 0.02,-0.09 0.05,-0.19 0.07,-0.29 0.08,-0.4 -0.03,-0.15 -0.39,0.25 -0.19,0.21 -0.6,0.5 -1,0.66l0.01 0c-0.15,0.08 -0.47,0.16 -0.6,0.19 -0.39,0.08 -0.73,0.14 -1.12,0.01z"/>
   <path class="fil10" d="M24.3 22.98c-0.59,0.94 0.58,-0.58 0.99,-0.79 0.15,-0.08 0.34,-0.2 0.4,-0.27 -0.64,0 -1.07,0.55 -1.39,1.06z"/>
   <path class="fil0" d="M31.6 23.09c-0.14,1.32 -0.2,2.71 -0.17,4 0.03,0.46 0.15,1.35 -0.19,1.73 -0.61,0.71 -1.39,1.55 -2.25,2.37 -0.65,0.62 -1.3,1.17 -1.82,1.5 -0.29,0.19 -0.57,0.32 -0.86,0.41 -0.29,0.1 -0.59,0.16 -0.93,0.2 -0.69,0.03 -1.25,0.29 -1.88,0.68 -0.21,0.13 -1.01,0.76 -1.36,1.34 0.11,-0.64 1.03,-1.32 1.25,-1.45 1.43,-1.05 2.61,-0.56 3.61,-1.44 0.46,-0.43 1.12,-0.86 1.81,-1.43 0.85,-0.81 1.56,-1.51 2.18,-2.21 0.07,-0.08 0.21,-0.51 0.22,-0.73 0.01,-0.25 -0.01,-0.57 -0.03,-0.95 -0.06,-1.42 0.02,-2.81 -0.08,-4.17 0,-0.05 0,-0.09 -0.01,-0.13l0 0c0,-0.02 0,-0.04 0,-0.07 0.02,-0.47 -0.1,-1.2 -0.09,-1.5 0.02,-0.31 -0.17,-1.09 -0.17,-1.33 -0.01,-0.61 0.61,-0.81 1.15,-0.77 -0.13,-0.06 -0.58,-0.09 -0.84,0.03 -0.44,0.29 -0.59,-0.26 0.44,-0.27 0.51,-0.01 1,0.11 1.48,0.51 -0.14,-0.06 -0.35,-0.12 -0.55,-0.16 0.18,0.1 0.27,0.15 0.34,0.18 -0.38,-0.13 -0.92,-0.11 -1.18,-0.06 0.07,0.45 -0.02,0.87 0,1.23 0.04,0.53 -0.05,1.27 -0.04,1.87 0,0.08 0.01,0.2 0.01,0.32 0,0.11 -0.01,0.22 -0.04,0.3z"/>
   <path class="fil2" d="M31.15 25.63c-0.36,-0.78 -0.95,-1.26 -1.91,-0.83 -1.21,0.54 -2.41,2.69 -1.67,4.08 0.46,0.86 2.29,1.05 2.5,0.89l0 0c0.33,-0.33 0.63,-0.65 0.92,-0.98 0.07,-0.08 0.21,-0.51 0.22,-0.73 0.01,-0.25 -0.01,-0.57 -0.03,-0.95 -0.03,-0.49 -0.03,-0.99 -0.03,-1.48z"/>
   <path class="fil0" d="M30.32 23.64c0.02,0.22 0.04,0.71 0,1.2 -0.04,0.59 -0.14,1.19 -0.17,1.37 -0.07,0.38 -0.77,2.9 -1.13,3.26 0.03,-0.19 0.21,-0.66 0.37,-1.2 0.25,-0.83 0.51,-1.81 0.56,-2.11 0.04,-0.28 0.19,-0.77 0.26,-1.27 0.07,-0.47 0.07,-0.96 0.11,-1.25z"/>
   <path class="fil10" d="M30.32 19.53c0.02,0.68 0.11,0.54 0.15,0.97 0.01,0.15 -0.03,0.63 -0.04,1.64 0,0.51 -0.05,1.18 -0.09,1.71 0.01,0.22 0.01,0.54 -0.01,0.87 0.48,0.23 0.73,1.11 0.82,1.15 0,-0.99 0.02,-1.97 -0.05,-2.93 0,-0.05 0,-0.09 -0.01,-0.13l0 0c0,-0.02 0,-0.04 0,-0.07 0.02,-0.47 -0.1,-1.2 -0.09,-1.5 0.01,-0.09 -0.01,-0.22 -0.03,-0.37 0,0.03 -0.01,0.05 -0.01,0.07 -0.16,-0.2 -0.29,-0.67 -0.47,-1.08 -0.05,-0.11 -0.1,-0.22 -0.17,-0.33l0 0z"/>
   <path class="fil10" d="M28.64 29.63c-0.23,0.74 -1.95,2.82 -2.62,2.94 0.09,0.1 0.18,0.19 0.25,0.29 0.25,-0.1 0.5,-0.23 0.73,-0.43 0.46,-0.43 1.12,-0.86 1.81,-1.43 0.45,-0.44 0.87,-0.84 1.26,-1.23 -0.12,0.1 -0.79,0.07 -1.43,-0.14z"/>
   <path class="fil2" d="M21.21 35.77c0.11,-0.22 0.24,-0.44 0.23,-0.67 -0.04,-0.57 -0.1,-1.13 0.14,-1.72 0.36,-0.86 1.36,-1.69 2.05,-1.78 1.05,-0.13 2.13,0.59 2.64,1.26 -0.83,0.31 -1.78,0.2 -2.88,1.01 -0.14,0.08 -0.55,0.38 -0.86,0.75 -0.38,0.31 -0.45,0.42 -0.93,1.01 -0.05,0.05 -0.48,0.31 -0.39,0.14z"/>
   <path class="fil5" d="M25.08 31.69c-0.62,0.19 -1.35,1.39 -0.97,1.09 0.12,-0.1 0.78,-0.77 1.03,-0.94 0.14,-0.09 0.08,-0.19 -0.06,-0.15z"/>
   <path class="fil7" d="M18.82 22.14c-0.16,0 -0.32,-0.11 -0.62,-0.09 -0.2,0.01 -0.31,0.12 -0.34,0.14 -0.35,0.26 -0.53,0.47 -0.74,1.13 -0.17,0.57 0.11,2.26 0.84,2.18 0.57,-1.28 1.13,-2.5 1.61,-3.43 -0.04,-0.09 -0.28,0.06 -0.75,0.07z"/>
   <path class="fil7" d="M18.25 30.64c-0.87,1.79 1.95,1.72 2.57,1.01 0.84,-0.95 1.02,-3.23 -0.71,-3.37 -1.12,-0.09 -1.16,0.76 -1.46,1.74 -0.1,0.32 -0.27,0.36 -0.4,0.62z"/>
   <path class="fil0" d="M22.33 34.78c-0.17,0.28 -0.31,0.46 -0.41,0.59 -0.18,0.28 -0.31,0.49 -1.3,0.93 -0.38,0.14 -1.02,0.6 -1.39,0.94 -0.58,0.51 -1.08,1.24 -1.45,1.93 -0.74,1.14 -0.76,1.97 -2.7,2.24 -0.55,0.07 -1.34,0.22 -2.06,0.26 -1.65,0.09 -4.85,0.02 -5.4,-2.33 -0.01,-0.14 0.16,-0.4 0.17,-0.27 0.43,1.83 2.31,2.16 3.62,2.23 1.5,0.12 2.2,-0.02 3.52,-0.25 1.42,-0.34 1.87,-1 2.57,-2.07 0.56,-0.87 0.8,-1.39 1.75,-2.17 0.34,-0.26 0.85,-0.57 1.27,-0.73 0.81,-0.38 1.2,-0.6 1.36,-0.83 0.23,-0.27 0.2,-0.25 0.45,-0.47z"/>
   <path class="fil0" d="M20.24 34.58c0.08,0.12 -0.03,0.21 -0.14,0.26 0.01,0.09 -0.05,0.16 -0.19,0.3 -0.18,0.19 -0.45,0.45 -0.87,0.93 -0.05,0.05 -0.2,0.33 -0.25,0.38 -0.51,0.55 -1.03,1.18 -1.5,1.75 -0.51,0.63 -0.88,1.32 -1.26,1.52 -0.36,0.15 -1.56,0.87 -1.79,0.84 -2.06,-0.03 -3.45,-0.15 -5.05,-0.7 -0.79,-0.19 -1.06,-0.52 -1.26,-0.5 -0.33,-0.66 -0.7,-1.36 -0.77,-1.37 -0.18,-0.04 -0.52,-0.22 -0.7,-0.41 -0.17,-0.18 -0.38,-0.4 -0.39,-0.59 -0.01,-0.15 0.03,-1.15 0.49,-1.73 -0.07,0.37 -0.27,1.51 -0.23,1.71 0.01,0.19 0.38,0.5 0.54,0.59 0.16,0.09 0.19,0.15 0.28,0.23 1.72,0.11 5.18,1.27 7.54,1.11 0.4,-0.08 1.16,-0.46 1.74,-0.7 0.96,-0.57 1.14,-0.96 2.17,-1.92 0.41,-0.42 0.42,-0.91 0.66,-1.13 -0.07,0.07 -0.16,0.21 -0.15,0.07 0.06,-0.46 1.04,-0.78 1.13,-0.64zm-12.66 3.54c0.18,0.22 0.43,0.58 0.55,0.76 0.33,0.1 0.8,0.31 1.71,0.53 1.57,0.38 3.05,0.75 3.7,0.76 0.95,-0.21 1.77,-0.55 2.63,-1.05 0.05,-0.12 0.1,-0.5 0.02,-0.57 -0.27,0.07 -0.95,0.43 -1.45,0.58 -1.86,0.09 -5.26,-0.64 -7.16,-1.01z"/>
   <path class="fil10" d="M13.26 41.3c0.52,-0.05 1.02,-0.14 1.67,-0.25 1.42,-0.34 1.87,-1 2.57,-2.07 0.38,-0.58 0.61,-1.01 1,-1.46 -0.24,0.15 -0.71,0.58 -0.91,0.75 0.1,-0.15 0.75,-1.11 0.96,-1.56 -0.43,0.48 -0.86,1.01 -1.26,1.49 -0.51,0.63 -0.88,1.32 -1.26,1.52 -0.36,0.15 -1.56,0.87 -1.79,0.84 -0.33,-0.01 -0.64,-0.01 -0.94,-0.03 0.05,0.27 0.09,0.52 -0.04,0.77z"/>
   <path class="fil2" d="M9.76 40.04c-0.26,0.23 -0.29,0.54 -0.36,0.86 0.66,0.29 1.39,0.37 2.01,0.4 0.76,0.06 1.32,0.05 1.85,0 0.13,-0.25 0.09,-0.5 0.04,-0.77 -1.34,-0.04 -2.41,-0.16 -3.54,-0.49z"/>
   <path class="fil8" d="M8.14 39.9c0.23,0.15 0.66,0.37 0.77,0.39 0.06,0.01 0.24,0.05 0.26,0.11 0,0 0.15,0.23 0.26,0.35 0.06,-0.26 0.11,-0.51 0.33,-0.7l0 -0.01c-0.19,-0.05 -0.38,-0.11 -0.57,-0.18 -0.79,-0.19 -1.06,-0.52 -1.26,-0.5l-0.13 -0.26c0.07,0.31 0.19,0.57 0.34,0.8z"/>
   <path class="fil10" d="M14.72 39.13c0.13,0.05 0.1,0.03 0.26,0.09 -0.01,0.02 -0.03,0.37 -0.03,0.51 0.41,-0.17 0.81,-0.37 1.22,-0.61 0.05,-0.12 0.1,-0.5 0.02,-0.57 -0.27,0.07 -0.95,0.43 -1.45,0.58l-0.02 0z"/>
   <path class="fil10" d="M6.33 36.89c0.22,0.04 0.72,0.35 1.05,0.55 0.75,0.16 3.54,0.64 4.11,1.17 -1.66,-0.31 -3.31,-0.76 -4.34,-0.82 -0.09,-0.08 -0.12,-0.14 -0.28,-0.23 -0.16,-0.09 -0.53,-0.4 -0.54,-0.59 0,-0.02 0,-0.04 0,-0.08z"/>
   <path class="fil10" d="M11.27 24.83c0.29,-0.4 0.44,-0.42 0.48,-0.36 0.15,0.27 -1.34,1.62 -1.85,4.35 -0.09,0.45 -0.14,0.72 -0.2,0.94 -0.95,0.03 -1.71,0.89 -1.77,1.86 -0.1,0.22 -0.17,0.46 -0.3,0.83 -0.17,0.51 -0.37,0.72 -0.04,1.08 0,0.01 1.08,1.54 0.28,0.7 -0.22,-0.23 -0.3,-0.38 -0.37,-0.43 0.15,0.52 0.68,1.34 0.6,2.49 0.18,-0.01 0.31,0.55 0.61,0.84 -0.35,-0.14 -0.89,-0.29 -1.54,-0.65 -0.09,-0.15 -0.16,-0.31 -0.22,-0.55 0.3,-0.99 -0.09,-1.66 -0.45,-1.89 0.5,0.84 0.43,1.05 0.42,1.77 -0.02,-0.1 -0.04,-0.22 -0.06,-0.36 0,0.19 -0.26,0.84 -0.25,0.3 0.01,-0.37 -0.01,-0.82 -0.16,-1.22 0.01,0 0.02,-0.01 0.03,-0.02 0.02,-0.1 -0.25,-0.41 -0.38,-0.64 -0.33,-0.57 -0.42,-1.9 0.41,-1.73 0.27,0.05 0.81,-0.51 1.4,-1.22 1.02,-1.32 1.23,-2.8 2.04,-4.08 0.38,-0.6 0.74,-1.22 1.16,-1.84 0.07,-0.06 0.12,-0.12 0.16,-0.17zm-4.02 10.5c0.05,-0.14 0.04,-0.95 -0.13,-1.28 -0.23,-0.44 -0.6,-0.71 -0.74,-0.75 0.11,0.15 0.47,0.49 0.63,0.79 0.12,0.21 0.16,1 0.24,1.24z"/>
   <path class="fil2" d="M10.16 29.81c-1.27,-0.32 -2.38,0.91 -2.22,2.17 0.07,0.61 0.69,0.93 0.87,1.2 0.72,1.1 0.93,-0.39 1.12,-0.98 0.12,-0.39 0.34,-0.76 0.49,-0.97 0.44,-0.61 0.4,-1.25 -0.26,-1.42z"/>
   <path class="fil0" d="M12.92 22.83c-1.44,1.37 -2.15,2.71 -2.97,4.01 -0.81,1.28 -1.02,2.76 -2.04,4.08 -0.59,0.71 -1.13,1.27 -1.4,1.22 -0.83,-0.17 -0.74,1.16 -0.41,1.73 0.13,0.23 0.4,0.54 0.38,0.64 -0.04,0.08 -0.23,-0.15 -0.31,-0.19 -0.45,-0.43 -0.52,-1.06 -0.53,-1.5 0,-0.61 0.25,-0.86 0.92,-1.1 0.21,-0.04 0.5,-0.36 1.09,-0.98 0.72,-0.99 1.18,-2.53 2.02,-4.05 0.23,-0.41 0.49,-0.81 0.76,-1.19 -0.07,-0.76 0.04,-2.48 0.8,-4.15 -0.05,-0.15 -0.27,-0.39 -0.28,-0.43 -0.02,-0.09 0.16,0.13 0.32,0.35 0.04,-0.09 0.04,-0.1 -0.01,-0.18 -0.15,-0.22 -0.42,-0.45 -0.11,-0.35 0.03,0.01 0.15,0.14 0.21,0.24 0.02,-0.02 0.06,-0.07 0.04,-0.09 -0.08,-0.13 -0.15,-0.64 -0.06,-0.65 0.04,-0.01 0.07,0.19 0.14,0.39 0.06,0.18 0.15,0.34 0.2,0.45 0.02,0.04 0.06,0.16 0.03,0.17 -0.04,0.02 -0.15,-0.12 -0.27,-0.28 -0.01,0.03 -0.06,0.05 0.03,0.17 0.14,0.18 0.16,0.36 0.26,0.6 0.01,0.02 0.06,0.37 -0.38,-0.49 -0.01,0.03 -0.03,0.05 -0.04,0.11 0.01,0.05 0.08,0.12 0.14,0.33 0,0.01 0.03,0.19 -0.11,-0.1 -0.01,-0.02 -0.05,-0.13 -0.06,-0.13 -0.04,0.03 -0.07,0.62 -0.1,0.72 -0.15,0.36 -0.4,1.9 -0.26,2.67l0 0c0.76,-0.96 1.54,-1.71 2,-2.02z"/>
   <path class="fil5" d="M7.25 35.33c0.05,-0.14 0.04,-0.95 -0.13,-1.28 -0.23,-0.44 -0.6,-0.71 -0.74,-0.75 0.11,0.15 0.47,0.49 0.63,0.79 0.12,0.21 0.16,1 0.24,1.24z"/>
   <path class="fil5" d="M6.5 34.04c0.54,0.91 0.41,1.08 0.42,1.98 0.35,-1.04 -0.05,-1.75 -0.42,-1.98z"/>
   <path class="fil5" d="M20.48 32.84c0.13,0.01 0.24,0.23 0.32,0.47 0.14,0.42 0.2,0.89 0.24,0.38 0.03,-0.38 -0.08,-0.63 -0.18,-0.78 -0.31,-0.44 -0.85,-0.11 -0.38,-0.07z"/>
   <path class="fil5" d="M20.85 32.56c0,0 0.2,0.24 0.24,0.49 0.02,0.17 0.06,0.37 0.08,0.27 0.06,-0.24 -0.02,-0.69 -0.32,-0.76z"/>
   <path class="fil10" d="M20.34 34.01c0.34,-0.3 0.73,0.28 0.56,0.63 -0.27,0.57 -1.83,1.43 -1.84,1.41 0.41,-0.47 0.67,-0.72 0.85,-0.91 0.14,-0.14 0.2,-0.21 0.19,-0.3 0.11,-0.05 0.22,-0.14 0.14,-0.26 -0.01,-0.01 -0.03,-0.02 -0.05,-0.03 0.2,-0.2 -0.05,-0.38 0.15,-0.54z"/>
   <path class="fil5" d="M20.19 34.44c-0.37,-0.25 -1.23,0.22 -1.26,0.96 0.04,-0.03 0.14,-0.12 0.15,-0.2 0.05,-0.38 0.73,-0.67 1.01,-0.68 0.02,0 0.1,-0.05 0.1,-0.08zm-0.97 0.7l0 -0.01 0.01 -0.01 -0.01 0.02z"/>
   <path class="fil10" d="M12.18 31.51c-0.15,0.09 -0.37,0.43 -0.45,0.68 -0.14,0.43 0.06,1.26 0.07,1.32 0.05,-0.56 0.04,-0.83 0.08,-1.16 0.05,-0.37 0.25,-0.69 0.3,-0.84z"/>
   <path class="fil2" d="M14.61 31.76c-0.06,-0.02 -0.06,-0.51 -0.69,-0.68 -0.77,-0.22 -1.12,0.62 -1.2,0.7 -0.44,0.42 -0.59,1.28 -0.67,1.95 -0.07,0.59 -0.21,1.97 0.56,2.16 0.51,0.12 1.68,-0.65 2.32,-0.58 0.46,0.04 0.85,-0.14 1.2,-0.5 0.43,-0.44 0.83,-1.89 0.46,-2.36 -0.51,-0.65 -0.94,-0.75 -1.3,-0.73 -0.35,0.62 -0.62,0.99 -0.88,1.1 0.16,-0.11 0.41,-0.52 0.72,-1.09 -0.2,0.02 -0.37,0.06 -0.52,0.03z"/>
   <path class="fil5" d="M12.67 33.1c-0.31,0 -0.53,0.69 -0.47,1.01 0.03,0.17 0.05,0.47 0.4,0.86 0,0 -0.42,-0.79 -0.29,-1.3 0.12,-0.48 0.36,-0.57 0.36,-0.57z"/>
   <path class="fil5" d="M13.03 33.14c-0.2,-0.01 -0.41,0.12 -0.51,0.31 -0.19,0.35 -0.14,0.82 0.02,1.18 0.03,0.07 0.29,0.58 0.25,0.36 -0.02,-0.1 -0.08,-0.25 -0.11,-0.35 -0.17,-0.45 -0.2,-0.86 -0.01,-1.17 0.06,-0.1 0.2,-0.22 0.33,-0.21 0.1,0 0.43,-0.06 0.55,-0.17 -0.16,-0.01 -0.38,0.06 -0.52,0.05z"/>
   <path class="fil5" d="M13.79 33.83c-0.2,0.01 -0.44,0.13 -0.46,0.33 -0.08,0.74 0.23,1.31 0.98,1.53 0.34,0.11 0.46,0.03 0.6,-0.34 0.27,-0.74 0.53,-1.07 0.65,-1.43 -0.13,0.16 -0.54,0.74 -0.78,0.49 -0.4,-0.42 0.23,-1.02 0.09,-1.36 -0.1,0.05 -0.3,0.36 -0.45,0.49 -0.05,0.04 -0.43,0.28 -0.63,0.29z"/>
   <path class="fil10" d="M16.65 28.9c0.11,-0.07 0.21,0.03 0.15,0.36 -0.05,0.25 -0.28,2.55 -0.43,2.94 -0.41,-0.42 -0.77,-0.49 -1.08,-0.48 0.36,-0.66 0.8,-1.6 1.36,-2.82z"/>
   <path class="fil10" d="M12.99 35.87c0.14,0.17 0.67,0.76 0.71,0.76 0.58,-0.02 1.31,-0.56 1.15,-0.58 -0.37,-0.05 -0.56,0.13 -0.93,0.17 -0.09,-0.11 -0.28,-0.39 -0.38,-0.53 -0.19,0.07 -0.39,0.14 -0.55,0.18z"/>
   <path class="fil5" d="M14.9 36.06c0.11,-0.04 0.25,-0.21 0.25,-0.34 -0.03,0.06 -0.23,0.36 -0.37,0.29 -0.05,-0.02 -0.01,0.1 0.12,0.05z"/>
   <path class="fil10" d="M16.8 23.73c0.02,-0.06 0.19,-0.65 0.35,-1.22 0.2,-0.74 0.43,-1.24 0.42,-1.26 -0.06,-0.12 -0.35,0.52 -0.57,1.2 -0.25,0.77 -0.33,1.61 -0.2,1.28z"/>
   <path class="fil10" d="M16.38 23.67c0.01,0.08 0.05,0.32 0.11,0.16 0.16,-0.51 0.5,-2.09 0.77,-2.59 0.1,-0.18 0.17,-0.22 0.16,-0.24 -0.27,-0.3 -1.09,2.11 -1.04,2.67z"/>
   <path class="fil10" d="M13.62 23.67c0.09,0.04 0.4,-0.81 0.6,-1.63 0.19,-0.75 0.28,-1.5 0.15,-1.52 -0.05,-0.01 -0.03,0.2 -0.08,0.49 -0.04,0.26 -0.15,0.58 -0.23,0.91 -0.21,0.83 -0.51,1.71 -0.44,1.75z"/>
   <path class="fil10" d="M13.76 20.6c0,0.35 0,0.87 -0.13,1.46 -0.17,0.8 -0.4,1.23 -0.35,1.48 0.07,-0.19 0.35,-1.09 0.43,-1.53 0.16,-0.8 0.05,-1.41 0.05,-1.41z"/>
   <path class="fil10" d="M13.4 20.95c0.15,0.91 0,1.89 -0.26,2.36 -0.06,-0.09 0.03,-0.54 0.1,-1.03 0.05,-0.41 0.07,-0.85 0.02,-1.15l-0.01 -0.01c0.06,-0.06 0.1,-0.12 0.15,-0.18l0 0.01z"/>
   <path class="fil5" d="M11.01 17.88c-0.34,-0.21 0.4,1.02 0.65,1.15 -0.1,0.13 -0.39,0.2 -0.67,0.22 -0.26,0.01 -0.52,-0.02 -0.62,0.02 0.42,0.23 1.02,0.19 1.21,0.05 0,0 -0.03,0.09 -0.12,0.16 -0.19,0.18 -0.72,0.17 -0.94,0.19 0.68,0.15 0.81,0.06 1,-0.04 0.01,0.02 -0.1,0.41 0.01,0.7 0.03,0.09 0.1,0.21 0.18,0.32 0.01,0.02 0.03,0.04 0.05,0.01 0,0.06 0.15,0.28 0.23,0.35 0.19,0.18 0.39,0.28 0.03,-0.12 0.11,-0.04 -0.1,-0.17 -0.09,-0.25 0.07,0 0.07,0.07 0.14,0.13 0.08,0.05 0.25,0.01 0.34,0.07 0,0.07 0,0.13 0.01,0.18 0.02,0.14 0.04,0.41 0.04,0.67 0,0.37 -0.04,0.73 -0.03,0.74 0.15,0.11 0.22,-1.38 0.24,-1.42 0,-0.02 -0.04,-0.74 -0.06,-0.79 -0.02,-0.22 -0.07,-0.43 -0.13,-0.6 -0.06,-0.15 -0.21,-0.43 -0.29,-0.55 -0.09,-0.11 -0.15,-0.08 -0.21,-0.17 -0.03,-0.05 -0.07,-0.06 -0.12,-0.06 -0.09,0 -0.02,0.04 -0.04,0.07 -0.02,0.04 -0.07,0.08 -0.12,0.09 -0.13,-0.32 -0.48,-0.71 -0.46,-0.76 0.05,0.01 0.19,0.26 0.28,0.27 -0.02,-0.03 -0.37,-0.49 -0.37,-0.55 0,-0.11 -0.01,-0.35 0.01,-0.45 0.12,-0.15 0.03,-0.15 -0.07,-0.09 -0.09,0.04 -0.13,0.12 -0.08,0.46z"/>
   <path class="fil4" d="M11.74 19.32c-0.05,0.38 0.28,0.34 0.3,0.14 0.04,-0.33 -0.28,-0.35 -0.3,-0.14z"/>
   <path class="fil7" d="M11.59 19.8c0,0.14 0.15,0.17 0.19,0.05 0.06,-0.22 -0.19,-0.25 -0.19,-0.05z"/>
   <path class="fil7" d="M12.11 20.18c-0.08,0.08 -0.22,0.01 -0.3,0.07 -0.03,0.02 0.02,0.06 0.04,0.09 0.05,0.08 0.08,0.2 0.23,0.2 0.18,0.01 0.32,-0.18 0.34,-0.35 0.01,-0.1 -0.01,-0.12 -0.03,-0.22 -0.02,-0.06 -0.02,-0.18 -0.06,-0.18 -0.04,-0.01 -0.17,0.33 -0.22,0.39z"/>
   <path class="fil4" d="M12.24 20.05c0.04,-0.03 -0.01,-0.09 -0.05,-0.06 -0.04,0.04 0.01,0.09 0.05,0.06z"/>
   <path class="fil2" d="M12.25 16.95c0.53,0.29 0.78,0.31 1.16,0.76 1.01,1.21 0.4,2.62 0.18,2.98 -0.06,0.09 -0.79,1.03 -0.99,1.07l0 -0.01 0 -0.01 0 -0.01 0 -0.02 0.01 0 0 -0.01 0 -0.02 0 -0.01 0 -0.01 0 -0.02 0 0 0 -0.01 0 -0.02 0 -0.01 0.01 -0.01 0 -0.01 0 -0.01 0 -0.01 0 -0.02 0 0 0 -0.01 0 -0.02 0 -0.01 0 0 0.01 -0.02 0 -0.01 0 -0.01 0 -0.01 0 -0.01 0 -0.01 0 -0.01 0 -0.01 0 -0.01 0 -0.01 0.01 -0.01 0 -0.01 0 -0.01 0 -0.01 0 -0.01 0 -0.01 0 -0.01 0 -0.01 0 -0.01 0 -0.01 0 -0.01 0 -0.01 0 -0.01 0 0 0.01 -0.02 0 -0.01 0 -0.01 0 -0.01 0 0 0 -0.02 0 -0.01 0 0 0 -0.01 0 -0.01 0 0 0 -0.01 0 -0.01 0 0 0.01 -0.01 0 -0.01 0 0 0 -0.01 0 -0.01 0 0 0 -0.01 0 -0.01 0 0 0 -0.01 0 0 0 0 0 -0.01 0 -0.01 0 0 0 0 0 -0.01 0 0 0 -0.01 0 0 0 0 0 -0.01 0.01 0 0 0 0 0 0 -0.01 0 0 0 0 0 0 0 0c0,-0.02 -0.04,-0.74 -0.06,-0.79 -0.02,-0.22 -0.07,-0.43 -0.13,-0.6 -0.06,-0.15 -0.21,-0.43 -0.29,-0.55 -0.09,-0.11 -0.15,-0.08 -0.21,-0.17l0 0 0 0 0 0 0 0 0 0 0 0 0 -0.01 0 0 0 0 0 0 0 0 0 0 -0.01 0 0 0 0 0 0 0 0 -0.01 0 0 0 0 0 0 0 0 0 0 0 0 0 0 -0.01 0 0 0 0 0 0 0 0 -0.01 0 0 0 0 0 0 0 0 0 0 0 0 -0.01 0 0 0 0 0 0 0 0 -0.01 0 0 0 0 0 0 0 0 0 0 -0.01 0 0 0 0 0 0 0 0 0 0 0 0 0 0 0 0 0 0 0 0 0 -0.01 0 0 0 0 -0.01 0 0 0 0c-0.18,-0.41 -0.6,-0.59 -0.76,-0.84l0 0 -0.01 -0.01 0 0 0 0 0 0 0 0 0 0 0 -0.01 0 0 0 0 0 0 0 0 0 0 0 0 0 0 -0.01 -0.01 0 0 0 0 0 0 0 0 0 0 0 0 0 -0.01 0 0 0 0 0 0 0 0 0 0 0 0 0 0 0 0 0 0 0 0 0 0 0 0 0 -0.01 0 0 0 0 0 0 0 0 0 0c0,-0.11 -0.01,-0.35 0.01,-0.45l0 0 0 0 0.01 -0.01 0 0 0 0 0 -0.01 0.01 0 0 0 0 0 0 -0.01 0 0 0.01 0 0 -0.01 0 0 0 0 0 0 0 -0.01 0 0 0.01 0 0 0 0 -0.01 0 0 0 0 0 0 0 0 0.01 -0.01 0 0 0 0 0 0 0 0 0 0 0 -0.01 0 0 0 0 0 0 0 0 0 -0.01 0 0 0 0 0 0 0 0 0.01 0 0 -0.01 0 0 0 0 0 0 0 0 0 0 0 0 0 0 0 0 0 0 0 -0.01 0 0 0 0 0 0 -0.01 0 0 0 0 0 0 0 0 0 0 0 0 -0.01 0 0 0 0 0 0 0 0 0 0 0 0 0 0 0 0 0 0 0 0 0 0 -0.01 0 0 0 0 0 0 0 0 0 0 0 0 0 0 0 0 0 -0.01 -0.01 0 0 0 0 0 0 0 0 0 0 0 0 -0.01 0 0 0 0 0.01 0 0 0 0 -0.01 0 0 0 0 0 0 0 0 0 0 0 -0.01 0 0 0 0 0 0 0 0 0 0 0 0 0 -0.01 0 0 0 0 0 0 0 0 0 -0.01 0 0 0c0.02,-0.03 0.05,-0.08 0.09,-0.11 0.05,0.01 0.13,0.02 0.24,0 0.57,-0.06 0.65,-0.18 0.78,-0.33z"/>
   <path class="fil12" d="M13.4 22.39l0 -0.01c-0.04,0.04 -0.07,0.08 -0.11,0.12 1.03,-0.67 1.75,0.09 2.39,0.73 0.35,0.35 1.54,1.52 2.58,2.69 1.77,1.99 3.2,1.94 3.6,1.97 1.59,0.14 3.7,-1.2 4.92,-2.6 1.04,-1.19 1.47,-2.72 1.58,-3.03 0.4,-1.03 0.55,-3.45 0.57,-3.48 0.27,-0.12 0.41,-0.1 0.74,-0.22 -0.05,-0.39 -0.01,-0.36 -0.05,-0.71 -0.21,0 -0.85,0.16 -1.01,0.12 -5.72,-1.52 -9.58,-0.69 -13.41,0.6 -2.37,-1.83 -4.91,-2.29 -6.7,-2.18 -0.49,0.03 -1.75,0.05 -2.05,0.13 -0.02,0.24 -0.03,0.54 -0.02,0.76 0.16,0.04 0.36,0.05 0.53,0.08 -0.06,0.6 0.22,2.96 0.52,3.91 0.48,1.53 0.91,3.16 3.09,4.17 -0.01,-0.01 0.1,-0.14 0.07,-0.15 -1.91,-0.94 -2.57,-2.68 -2.99,-4.08 -0.3,-1.02 -0.52,-3.55 -0.53,-4.09 -0.16,-0.03 -0.32,-0.06 -0.49,-0.06 0.01,-0.15 -0.01,-0.24 -0.03,-0.39 0.3,-0.05 1.49,-0.1 2.15,-0.15 1.39,-0.11 4.25,0.53 6.4,2.23 2.16,-0.77 4.92,-1.4 7.82,-1.4 1.85,0 3.76,0.28 5.61,0.84 0.15,0.04 0.58,-0.13 0.77,-0.13 0.03,0.18 0.06,0.23 0.11,0.38 -0.28,0.08 -0.53,0.11 -0.78,0.2 0.04,0.75 -0.15,2.91 -0.66,4.07 -0.61,1.37 -1.07,2.23 -2.14,3.14 -1.33,1.14 -2.38,1.78 -4.07,1.84 -0.58,0.02 -2.17,-0.46 -3.79,-2.28 -0.96,-1.07 -2.03,-2.16 -2.38,-2.45 -0.61,-0.52 -1.16,-0.94 -1.67,-0.88 0.7,-0.18 1.32,0.31 1.8,0.77 0.34,0.33 1.63,1.66 2.63,2.73 1.69,1.83 3.03,1.95 3.41,1.98 1.52,0.13 3.56,-1.14 4.66,-2.5 1.37,-1.7 2.12,-4.54 2,-6.63 -2.02,-0.59 -4.19,-0.92 -5.86,-0.9 -2.79,0.01 -5.16,0.71 -7.45,1.46 -2.12,-1.68 -5.02,-2.83 -7.8,-2.07 -0.03,1.15 -0.08,2.64 0.51,4.44 0.46,1.4 1.1,3.17 2.89,3.77 -0.01,0 0.11,-0.14 0.08,-0.15 -1.54,-0.35 -2.41,-2.39 -2.81,-3.67 -0.39,-1.27 -0.66,-3.35 -0.46,-4.17 1.89,-0.81 5.34,0.18 7.58,2.04 2.57,-0.89 5.05,-1.48 7.56,-1.49 1.77,-0.01 3.73,0.39 5.59,0.94 0.07,1.35 -0.24,3.17 -0.96,4.67 -0.45,0.93 -1.06,1.84 -1.75,2.42 -1.27,1.04 -2.42,1.55 -3.65,1.68 -0.77,0.08 -2.23,-0.62 -3.77,-2.29 -0.92,-0.98 -2.08,-2.25 -2.42,-2.52 -0.84,-0.7 -1.56,-1.08 -2.35,-0.2z"/>
   <path class="fil5" d="M12.74 17.98c-0.2,-0.35 -0.54,-0.58 -1.13,-0.29 -0.09,0.01 -0.26,0.06 -0.27,0.13 0.03,0.02 0.53,0.01 0.6,0.02 0.28,0.02 0.63,0.3 0.81,0.72 0.1,0.23 0.2,0.6 0.18,0.44 0,-0.03 -0.06,-0.38 -0.08,-0.48 -0.02,-0.15 -0.09,-0.29 -0.09,-0.33 0.08,0.05 0.2,0.47 0.25,0.77 0.02,0.17 0.01,0.66 0.04,0.75 0.04,0.06 0.11,-0.58 -0.02,-1.12 -0.05,-0.2 -0.16,-0.4 -0.29,-0.61zm-0.16 -0.01c-0.11,-0.08 -0.14,-0.13 -0.32,-0.21 -0.13,-0.06 -0.28,-0.07 -0.34,-0.08 0.17,-0.03 0.29,-0.04 0.39,0 0.07,0.03 0.23,0.15 0.27,0.29z"/>
   <path class="fil5" d="M12.95 20.35c-0.07,0.2 0.05,0.74 -0.06,1.38 -0.12,0.75 -0.36,1.61 -0.34,1.58 0.15,-0.27 0.7,-1.76 0.4,-2.96z"/>
   <path class="fil2" d="M11.52 21.67c0.22,0.3 0.63,1.34 0.52,1.92l-0.01 0c-0.34,0.35 -0.73,0.78 -1.11,1.26l0 0c-0.14,-0.77 0.11,-2.31 0.26,-2.67 0.03,-0.1 0.06,-0.69 0.1,-0.72 0.01,0 0.05,0.11 0.06,0.13 0.14,0.29 0.11,0.11 0.11,0.1 -0.06,-0.21 -0.13,-0.28 -0.14,-0.33 0.01,-0.06 0.03,-0.08 0.04,-0.11 0.05,0.11 0.1,0.19 0.14,0.26 -0.02,0.06 -0.02,0.08 0.03,0.16z"/>
   <path class="fil10" d="M11.82 21.15c-0.07,-0.16 -0.22,-0.43 -0.16,-0.57 0.01,0.02 0.03,0.05 0.05,0.07 0.01,0.02 0.03,0.04 0.05,0.01 0,0.06 0.15,0.28 0.23,0.35 0.19,0.18 0.39,0.28 0.03,-0.12 0.11,-0.04 -0.1,-0.17 -0.09,-0.25 0.07,0 0.07,0.07 0.14,0.13 0.08,0.05 0.25,0.01 0.34,0.07 0,0.07 0,0.13 0.01,0.18 0.02,0.14 0.04,0.41 0.04,0.67 0,0.37 -0.04,0.73 -0.03,0.74 0.07,0.06 0.13,-0.3 0.17,-0.67 0.07,-0.01 0.2,-0.13 0.34,-0.28 0,0.12 0,0.36 -0.01,0.4 -0.04,0.23 -0.07,0.39 -0.13,0.59 -0.05,0.13 -0.06,0.39 -0.16,0.57l-0.01 0.01 0 0 -0.01 0.01 -0.01 0 0 0.01 -0.01 0 0 0.01 -0.01 0.01 -0.01 0 0 0 -0.01 0.01 -0.01 0.01 -0.01 0 0 0.01 0 0 -0.01 0.01 -0.01 0.01 -0.01 0 0 0 -0.01 0.01 -0.01 0.01 -0.01 0.01 0 0 -0.01 0.01 -0.01 0 0 0.01 -0.01 0 0 0.01 -0.01 0.01 -0.01 0.01 0 0 -0.01 0 -0.02 0.02 0 0 -0.01 0.01 -0.01 0.01 -0.01 0.01 0 0 -0.01 0 -0.01 0.01 -0.01 0.01 0 0.01 -0.02 0.01 -0.01 0.01 0 0 -0.01 0.01 0 0 -0.01 0.01 -0.01 0.01 0 0 -0.01 0.01 -0.01 0.01 -0.01 0.01 0 0 -0.01 0.01 -0.01 0.01 -0.01 0.01 0 0 -0.01 0.01 -0.01 0.01 -0.01 0.01 -0.01 0 0 0.01 -0.01 0.01 -0.01 0 -0.01 0.01 0 0 -0.01 0.01 -0.01 0.01 -0.01 0.01 0 0 -0.01 0.01 -0.01 0.01 -0.01 0.01 0 0 -0.01 0.01 -0.01 0.01 -0.01 0.01 0 0 -0.01 0.01 -0.01 0.01 -0.01 0.01 0 0c0.11,-0.58 -0.3,-1.62 -0.52,-1.92 -0.05,-0.08 -0.05,-0.1 -0.03,-0.16l0 0.01 0.01 0.01 0.01 0.02 0 0.01 0.01 0.01 0.01 0.01 0.01 0.02 0 0 0.01 0.02 0 0 0.01 0.02 0 0 0.04 0.06 0 0 0.02 0.03 0 0 0.01 0.01 0 0c0.01,0.02 0.03,0.04 0.04,0.05l0 0 0 0.01 0.01 0 0 0.01 0 0 0.01 0 0 0 0 0 0 0.01 0.01 0 0 0 0 0 0 0 0 0 0.01 0.01c0.03,0.02 0.03,-0.05 0.02,-0.08l0 0 0 0 0 0 0 0 0 -0.01 0 0 0 0 0 0 0 0 0 0 0 0 0 0c-0.1,-0.24 -0.12,-0.42 -0.26,-0.6 -0.09,-0.12 -0.04,-0.14 -0.03,-0.17 0.12,0.16 0.23,0.3 0.27,0.28 0.03,-0.01 -0.01,-0.13 -0.03,-0.17l0 0 0 -0.01 0 0 0 0 0 0 0 0 0 0 0 0 0 -0.01 0 0 0 0 0 0 0 0 -0.01 0 0 0 0 -0.01 0 0 0 0 0 0 0 0 0 0 0 0 0 -0.01 0 0 0 0 0 0 0 0 -0.01 0 0 -0.01 0 0 0 0 0 0 0 0 0 0 0 0 0 -0.01 0 0 0 0 0 0 -0.01 0 0 0 0 -0.01 0 0 0 0 0 0 0 0 0 0 0 -0.01 0 0 0 0 0 0 -0.01 0 0 -0.01 0 0 0 0 0 0 0 0 0 0 0 0 0 -0.01 0 0 0 0 -0.01 0 0 0 0 0 0 -0.01 0 0 0 0 0 0 0 0 0 -0.01 0 0 0 0 -0.01 0 0 0 0 0 0 -0.01 0 0 0 0 0 0 0 0 0 0 0 -0.01 0 0 -0.01 0 0 0c0.07,0.05 0.15,0.13 0.21,0.21z"/>
   <path class="fil0" d="M28.43 2.85c0.58,0.34 1.13,0.71 1.67,1.11 3.05,2.27 5.41,5.46 6.64,9.23l-2.53 0c-1.12,-2.97 -3.07,-5.49 -5.53,-7.32 -0.12,-0.09 -0.25,-0.18 -0.38,-0.27l0 -2.75 0.13 0z"/>
  </g>
 </g>
</svg>
